PayapLanna-Regular.ufo
<glyph name="exclam" format="2">
  <advance width="445"/>
  <unicode hex="0021"/>
  <outline>
    <contour>
      <point x="260" y="311" type="curve"/>
      <point x="300" y="1164" type="line"/>
      <point x="265" y="1184" type="line"/>
      <point x="229" y="1168"/>
      <point x="181" y="1144"/>
      <point x="140" y="1118" type="curve"/>
      <point x="178" y="296" type="line"/>
      <point x="201" y="280" type="line"/>
      <point x="228" y="288"/>
      <point x="240" y="296"/>
    </contour>
    <contour>
      <point x="312" y="98" type="curve"/>
      <point x="312" y="156"/>
      <point x="285" y="188"/>
      <point x="232" y="188" type="curve" smooth="yes"/>
      <point x="172" y="188"/>
      <point x="121" y="129"/>
      <point x="121" y="57" type="curve" smooth="yes"/>
      <point x="121" y="0"/>
      <point x="144" y="-32"/>
      <point x="201" y="-32" type="curve" smooth="yes"/>
      <point x="264" y="-32"/>
      <point x="312" y="24"/>
    </contour>
  </outline>
</glyph>
<glyph name="quotedbl" format="2">
  <advance width="696"/>
  <unicode hex="0022"/>
  <outline>
    <contour>
      <point x="534" y="667" type="curve"/>
      <point x="568" y="1167" type="line"/>
      <point x="534" y="1184" type="line"/>
      <point x="511" y="1179"/>
      <point x="437" y="1154"/>
      <point x="414" y="1140" type="curve"/>
      <point x="456" y="650" type="line"/>
      <point x="481" y="650"/>
      <point x="517" y="658"/>
    </contour>
    <contour>
      <point x="247" y="667" type="curve"/>
      <point x="281" y="1167" type="line"/>
      <point x="247" y="1184" type="line"/>
      <point x="224" y="1179"/>
      <point x="152" y="1154"/>
      <point x="128" y="1140" type="curve"/>
      <point x="170" y="650" type="line"/>
      <point x="195" y="650"/>
      <point x="231" y="658"/>
    </contour>
  </outline>
</glyph>
<glyph name="numbersign" format="2">
  <advance width="768"/>
  <unicode hex="0023"/>
  <outline>
    <contour>
      <point x="785" y="748" type="curve"/>
      <point x="765" y="768" type="line"/>
      <point x="179" y="768" type="line"/>
      <point x="171" y="747"/>
      <point x="159" y="719"/>
      <point x="154" y="696" type="curve"/>
      <point x="174" y="676" type="line"/>
      <point x="760" y="676" type="line"/>
      <point x="768" y="694"/>
      <point x="780" y="725"/>
    </contour>
    <contour>
      <point x="464" y="136" type="curve"/>
      <point x="715" y="1016" type="line"/>
      <point x="693" y="1033" type="line"/>
      <point x="668" y="1024"/>
      <point x="644" y="1017"/>
      <point x="621" y="1000" type="curve"/>
      <point x="369" y="117" type="line"/>
      <point x="390" y="101" type="line"/>
      <point x="418" y="111"/>
      <point x="444" y="121"/>
    </contour>
    <contour>
      <point x="223" y="136" type="curve"/>
      <point x="476" y="1016" type="line"/>
      <point x="452" y="1033" type="line"/>
      <point x="429" y="1024"/>
      <point x="405" y="1017"/>
      <point x="382" y="1000" type="curve"/>
      <point x="130" y="117" type="line"/>
      <point x="151" y="101" type="line"/>
      <point x="179" y="111"/>
      <point x="204" y="121"/>
    </contour>
    <contour>
      <point x="698" y="450" type="curve"/>
      <point x="680" y="472" type="line"/>
      <point x="93" y="472" type="line"/>
      <point x="84" y="450"/>
      <point x="74" y="420"/>
      <point x="69" y="400" type="curve"/>
      <point x="87" y="380" type="line"/>
      <point x="676" y="380" type="line"/>
      <point x="684" y="398"/>
      <point x="693" y="429"/>
    </contour>
  </outline>
</glyph>
<glyph name="dollar" format="2">
  <advance width="768"/>
  <unicode hex="0024"/>
  <outline>
    <contour>
      <point x="417" y="-114" type="curve"/>
      <point x="417" y="1089" type="line"/>
      <point x="396" y="1107" type="line"/>
      <point x="365" y="1099"/>
      <point x="375" y="1102"/>
      <point x="345" y="1084" type="curve"/>
      <point x="345" y="-121" type="line"/>
      <point x="367" y="-139" type="line"/>
      <point x="393" y="-132"/>
      <point x="398" y="-131"/>
    </contour>
    <contour>
      <point x="353" y="-8" type="curve" smooth="yes"/>
      <point x="575" y="-8"/>
      <point x="689" y="159"/>
      <point x="689" y="301" type="curve" smooth="yes"/>
      <point x="689" y="624"/>
      <point x="180" y="556"/>
      <point x="180" y="766" type="curve" smooth="yes"/>
      <point x="180" y="827"/>
      <point x="224" y="892"/>
      <point x="360" y="892" type="curve" smooth="yes"/>
      <point x="422" y="892"/>
      <point x="489" y="863"/>
      <point x="550" y="792" type="curve"/>
      <point x="581" y="786" type="line"/>
      <point x="609" y="811"/>
      <point x="661" y="884"/>
      <point x="648" y="899" type="curve"/>
      <point x="606" y="942"/>
      <point x="511" y="971"/>
      <point x="409" y="971" type="curve" smooth="yes"/>
      <point x="157" y="971"/>
      <point x="78" y="828"/>
      <point x="78" y="728" type="curve" smooth="yes"/>
      <point x="78" y="428"/>
      <point x="581" y="524"/>
      <point x="581" y="259" type="curve" smooth="yes"/>
      <point x="581" y="157"/>
      <point x="486" y="88"/>
      <point x="391" y="88" type="curve" smooth="yes"/>
      <point x="276" y="88"/>
      <point x="175" y="142"/>
      <point x="116" y="268" type="curve"/>
      <point x="81" y="272" type="line"/>
      <point x="65" y="212"/>
      <point x="67" y="87"/>
      <point x="81" y="76" type="curve"/>
      <point x="178" y="16"/>
      <point x="247" y="-8"/>
    </contour>
  </outline>
</glyph>
<glyph name="ampersand" format="2">
  <advance width="1092"/>
  <unicode hex="0026"/>
  <outline>
    <contour>
      <point x="1076" y="598" type="curve"/>
      <point x="1058" y="627" type="line"/>
      <point x="703" y="627" type="line"/>
      <point x="681" y="619"/>
      <point x="655" y="600"/>
      <point x="644" y="586" type="curve"/>
      <point x="661" y="564" type="line"/>
      <point x="724" y="564"/>
      <point x="789" y="491"/>
      <point x="789" y="401" type="curve" smooth="yes"/>
      <point x="789" y="267"/>
      <point x="648" y="67"/>
      <point x="422" y="67" type="curve" smooth="yes"/>
      <point x="304" y="67"/>
      <point x="193" y="148"/>
      <point x="193" y="298" type="curve" smooth="yes"/>
      <point x="193" y="422"/>
      <point x="262" y="527"/>
      <point x="494" y="673" type="curve"/>
      <point x="620" y="752"/>
      <point x="694" y="852"/>
      <point x="694" y="963" type="curve" smooth="yes"/>
      <point x="694" y="1066"/>
      <point x="648" y="1160"/>
      <point x="512" y="1160" type="curve" smooth="yes"/>
      <point x="378" y="1160"/>
      <point x="253" y="1030"/>
      <point x="253" y="858" type="curve" smooth="yes"/>
      <point x="253" y="494"/>
      <point x="788" y="-24"/>
      <point x="864" y="-24" type="curve" smooth="yes"/>
      <point x="888" y="-24"/>
      <point x="955" y="-4"/>
      <point x="1047" y="36" type="curve"/>
      <point x="1040" y="70" type="line"/>
      <point x="978" y="56"/>
      <point x="933" y="67"/>
      <point x="892" y="101" type="curve"/>
      <point x="694" y="260"/>
      <point x="355" y="645"/>
      <point x="355" y="904" type="curve" smooth="yes"/>
      <point x="355" y="988"/>
      <point x="393" y="1074"/>
      <point x="470" y="1074" type="curve" smooth="yes"/>
      <point x="545" y="1074"/>
      <point x="583" y="1011"/>
      <point x="583" y="936" type="curve" smooth="yes"/>
      <point x="583" y="866"/>
      <point x="551" y="784"/>
      <point x="402" y="700" type="curve" smooth="yes"/>
      <point x="188" y="580"/>
      <point x="64" y="425"/>
      <point x="64" y="281" type="curve" smooth="yes"/>
      <point x="64" y="81"/>
      <point x="200" y="-24"/>
      <point x="398" y="-24" type="curve" smooth="yes"/>
      <point x="670" y="-24"/>
      <point x="886" y="248"/>
      <point x="886" y="434" type="curve" smooth="yes"/>
      <point x="886" y="496"/>
      <point x="883" y="522"/>
      <point x="860" y="560" type="curve"/>
      <point x="896" y="558"/>
      <point x="958" y="545"/>
      <point x="997" y="527" type="curve"/>
      <point x="1024" y="545"/>
      <point x="1050" y="565"/>
    </contour>
  </outline>
</glyph>
<glyph name="quotesingle" format="2">
  <advance width="409"/>
  <unicode hex="0027"/>
  <outline>
    <contour>
      <point x="247" y="667" type="curve"/>
      <point x="281" y="1167" type="line"/>
      <point x="247" y="1184" type="line"/>
      <point x="224" y="1179"/>
      <point x="152" y="1154"/>
      <point x="128" y="1140" type="curve"/>
      <point x="170" y="650" type="line"/>
      <point x="195" y="650"/>
      <point x="231" y="658"/>
    </contour>
  </outline>
</glyph>
<glyph name="parenleft" format="2">
  <advance width="519"/>
  <unicode hex="0028"/>
  <outline>
    <contour>
      <point x="462" y="-252" type="curve"/>
      <point x="488" y="-216" type="line"/>
      <point x="324" y="-81"/>
      <point x="232" y="209"/>
      <point x="232" y="520" type="curve" smooth="yes"/>
      <point x="232" y="863"/>
      <point x="348" y="1128"/>
      <point x="488" y="1244" type="curve"/>
      <point x="462" y="1280" type="line"/>
      <point x="242" y="1165"/>
      <point x="96" y="848"/>
      <point x="96" y="498" type="curve" smooth="yes"/>
      <point x="96" y="159"/>
      <point x="220" y="-140"/>
    </contour>
  </outline>
</glyph>
<glyph name="parenright" format="2">
  <advance width="519"/>
  <unicode hex="0029"/>
  <outline>
    <contour>
      <point x="424" y="531" type="curve"/>
      <point x="424" y="869"/>
      <point x="298" y="1170"/>
      <point x="57" y="1280" type="curve"/>
      <point x="32" y="1244" type="line"/>
      <point x="196" y="1112"/>
      <point x="288" y="817"/>
      <point x="288" y="508" type="curve" smooth="yes"/>
      <point x="288" y="165"/>
      <point x="170" y="-100"/>
      <point x="32" y="-216" type="curve"/>
      <point x="57" y="-252" type="line"/>
      <point x="276" y="-137"/>
      <point x="424" y="180"/>
    </contour>
  </outline>
</glyph>
<glyph name="asterisk" format="2">
  <advance width="732"/>
  <unicode hex="002A"/>
  <outline>
    <contour>
      <point x="391" y="950" type="line"/>
      <point x="424" y="1232" type="line"/>
      <point x="395" y="1248" type="line"/>
      <point x="372" y="1243"/>
      <point x="332" y="1222"/>
      <point x="309" y="1210" type="curve"/>
      <point x="340" y="949" type="line"/>
      <point x="112" y="1119" type="line"/>
      <point x="84" y="1100" type="line"/>
      <point x="76" y="1080"/>
      <point x="76" y="1035"/>
      <point x="75" y="1009" type="curve"/>
      <point x="316" y="906" type="line"/>
      <point x="56" y="794" type="line"/>
      <point x="57" y="760" type="line"/>
      <point x="72" y="744"/>
      <point x="109" y="720"/>
      <point x="132" y="706" type="curve"/>
      <point x="341" y="863" type="line"/>
      <point x="308" y="581" type="line"/>
      <point x="339" y="567" type="line"/>
      <point x="362" y="572"/>
      <point x="400" y="591"/>
      <point x="422" y="604" type="curve"/>
      <point x="392" y="863" type="line"/>
      <point x="617" y="694" type="line"/>
      <point x="647" y="712" type="line"/>
      <point x="655" y="736"/>
      <point x="655" y="778"/>
      <point x="656" y="804" type="curve"/>
      <point x="416" y="908" type="line"/>
      <point x="676" y="1020" type="line"/>
      <point x="675" y="1053" type="line"/>
      <point x="658" y="1071"/>
      <point x="622" y="1092"/>
      <point x="600" y="1107" type="curve"/>
    </contour>
  </outline>
</glyph>
<glyph name="plus" format="2">
  <advance width="672"/>
  <unicode hex="002B"/>
  <outline>
    <contour>
      <point x="622" y="474" type="curve"/>
      <point x="603" y="493" type="line"/>
      <point x="73" y="493" type="line"/>
      <point x="64" y="472"/>
      <point x="54" y="446"/>
      <point x="48" y="424" type="curve"/>
      <point x="68" y="405" type="line"/>
      <point x="598" y="405" type="line"/>
      <point x="606" y="423"/>
      <point x="617" y="452"/>
    </contour>
    <contour>
      <point x="381" y="188" type="curve"/>
      <point x="381" y="717" type="line"/>
      <point x="362" y="736" type="line"/>
      <point x="339" y="730"/>
      <point x="309" y="719"/>
      <point x="289" y="712" type="curve"/>
      <point x="289" y="181" type="line"/>
      <point x="309" y="164" type="line"/>
      <point x="332" y="168"/>
      <point x="360" y="178"/>
    </contour>
  </outline>
</glyph>
<glyph name="comma" format="2">
  <advance width="375"/>
  <unicode hex="002C"/>
  <outline>
    <contour>
      <point x="312" y="56" type="curve"/>
      <point x="312" y="116"/>
      <point x="298" y="159"/>
      <point x="247" y="183" type="curve"/>
      <point x="209" y="184"/>
      <point x="88" y="136"/>
      <point x="70" y="111" type="curve"/>
      <point x="83" y="73" type="line"/>
      <point x="152" y="78"/>
      <point x="180" y="47"/>
      <point x="180" y="0" type="curve" smooth="yes"/>
      <point x="180" y="-92"/>
      <point x="156" y="-147"/>
      <point x="96" y="-216" type="curve"/>
      <point x="132" y="-244" type="line"/>
      <point x="244" y="-160"/>
      <point x="312" y="-28"/>
    </contour>
  </outline>
</glyph>
<glyph name="hyphen" format="2">
  <advance width="552"/>
  <unicode hex="002D"/>
  <guideline x="278" y="410" angle="0"/>
  <anchor x="276" y="840" name="U"/>
  <outline>
    <contour>
      <point x="503" y="436" type="curve"/>
      <point x="483" y="456" type="line"/>
      <point x="73" y="456" type="line"/>
      <point x="64" y="435"/>
      <point x="54" y="406"/>
      <point x="48" y="383" type="curve"/>
      <point x="68" y="364" type="line"/>
      <point x="478" y="364" type="line"/>
      <point x="486" y="381"/>
      <point x="496" y="413"/>
    </contour>
  </outline>
</glyph>
<glyph name="period" format="2">
  <advance width="375"/>
  <unicode hex="002E"/>
  <outline>
    <contour>
      <point x="295" y="98" type="curve"/>
      <point x="295" y="156"/>
      <point x="268" y="188"/>
      <point x="216" y="188" type="curve" smooth="yes"/>
      <point x="156" y="188"/>
      <point x="104" y="129"/>
      <point x="104" y="57" type="curve" smooth="yes"/>
      <point x="104" y="0"/>
      <point x="128" y="-32"/>
      <point x="184" y="-32" type="curve" smooth="yes"/>
      <point x="247" y="-32"/>
      <point x="295" y="24"/>
    </contour>
  </outline>
</glyph>
<glyph name="slash" format="2">
  <advance width="768"/>
  <unicode hex="002F"/>
  <outline>
    <contour>
      <point x="168" y="-227" type="curve"/>
      <point x="727" y="1262" type="line"/>
      <point x="697" y="1280" type="line"/>
      <point x="667" y="1272"/>
      <point x="628" y="1259"/>
      <point x="600" y="1240" type="curve"/>
      <point x="39" y="-248" type="line"/>
      <point x="68" y="-268" type="line"/>
      <point x="95" y="-260"/>
      <point x="147" y="-241"/>
    </contour>
  </outline>
</glyph>
<glyph name="zero" format="2">
  <advance width="768"/>
  <unicode hex="0030"/>
  <anchor x="384" y="-80" name="L"/>
  <anchor x="384" y="1096" name="U"/>
  <outline>
    <contour>
      <point x="708" y="481" type="curve"/>
      <point x="708" y="760"/>
      <point x="603" y="988"/>
      <point x="400" y="988" type="curve" smooth="yes"/>
      <point x="198" y="988"/>
      <point x="60" y="756"/>
      <point x="60" y="481" type="curve" smooth="yes"/>
      <point x="60" y="206"/>
      <point x="165" y="-24"/>
      <point x="368" y="-24" type="curve" smooth="yes"/>
      <point x="572" y="-24"/>
      <point x="708" y="206"/>
    </contour>
    <contour>
      <point x="576" y="452" type="curve"/>
      <point x="576" y="181"/>
      <point x="511" y="68"/>
      <point x="400" y="68" type="curve" smooth="yes"/>
      <point x="281" y="68"/>
      <point x="192" y="223"/>
      <point x="192" y="516" type="curve" smooth="yes"/>
      <point x="192" y="783"/>
      <point x="259" y="896"/>
      <point x="368" y="896" type="curve" smooth="yes"/>
      <point x="476" y="896"/>
      <point x="576" y="744"/>
    </contour>
  </outline>
</glyph>
<glyph name="one" format="2">
  <advance width="768"/>
  <unicode hex="0031"/>
  <anchor x="384" y="-80" name="L"/>
  <anchor x="384" y="1096" name="U"/>
  <outline>
    <contour>
      <point x="136" y="0" type="line"/>
      <point x="672" y="0" type="line"/>
      <point x="672" y="42" type="line"/>
      <point x="511" y="62"/>
      <point x="472" y="93"/>
      <point x="472" y="114" type="curve" smooth="yes"/>
      <point x="472" y="968" type="line"/>
      <point x="442" y="996" type="line"/>
      <point x="372" y="956"/>
      <point x="200" y="884"/>
      <point x="111" y="860" type="curve"/>
      <point x="128" y="819" type="line"/>
      <point x="268" y="848"/>
      <point x="324" y="844"/>
      <point x="337" y="830" type="curve" smooth="yes"/>
      <point x="350" y="816"/>
      <point x="352" y="794"/>
      <point x="352" y="752" type="curve" smooth="yes"/>
      <point x="352" y="114" type="line" smooth="yes"/>
      <point x="352" y="92"/>
      <point x="303" y="62"/>
      <point x="136" y="42" type="curve"/>
    </contour>
  </outline>
</glyph>
<glyph name="two" format="2">
  <advance width="768"/>
  <unicode hex="0032"/>
  <anchor x="384" y="-80" name="L"/>
  <anchor x="384" y="1096" name="U"/>
  <outline>
    <contour>
      <point x="656" y="0" type="line"/>
      <point x="668" y="229" type="line"/>
      <point x="628" y="239" type="line"/>
      <point x="628" y="239"/>
      <point x="619" y="96"/>
      <point x="547" y="96" type="curve" smooth="yes"/>
      <point x="212" y="96" type="line"/>
      <point x="540" y="481"/>
      <point x="658" y="619"/>
      <point x="658" y="761" type="curve" smooth="yes"/>
      <point x="658" y="917"/>
      <point x="556" y="988"/>
      <point x="428" y="988" type="curve" smooth="yes"/>
      <point x="264" y="988"/>
      <point x="100" y="842"/>
      <point x="100" y="732" type="curve"/>
      <point x="121" y="708" type="line"/>
      <point x="170" y="712"/>
      <point x="188" y="727"/>
      <point x="224" y="747" type="curve"/>
      <point x="224" y="822"/>
      <point x="286" y="916"/>
      <point x="373" y="916" type="curve" smooth="yes"/>
      <point x="489" y="916"/>
      <point x="534" y="837"/>
      <point x="534" y="739" type="curve" smooth="yes"/>
      <point x="534" y="617"/>
      <point x="458" y="500"/>
      <point x="78" y="59" type="curve"/>
      <point x="101" y="0" type="line"/>
    </contour>
  </outline>
</glyph>
<glyph name="three" format="2">
  <advance width="768"/>
  <unicode hex="0033"/>
  <anchor x="384" y="-80" name="L"/>
  <anchor x="384" y="1096" name="U"/>
  <outline>
    <contour>
      <point x="660" y="304" type="curve"/>
      <point x="660" y="434"/>
      <point x="565" y="544"/>
      <point x="444" y="558" type="curve"/>
      <point x="548" y="604"/>
      <point x="614" y="686"/>
      <point x="614" y="766" type="curve" smooth="yes"/>
      <point x="614" y="875"/>
      <point x="545" y="988"/>
      <point x="386" y="988" type="curve" smooth="yes"/>
      <point x="224" y="988"/>
      <point x="83" y="861"/>
      <point x="83" y="772" type="curve"/>
      <point x="104" y="747" type="line"/>
      <point x="150" y="750"/>
      <point x="180" y="760"/>
      <point x="216" y="778" type="curve"/>
      <point x="203" y="850"/>
      <point x="255" y="915"/>
      <point x="340" y="915" type="curve" smooth="yes"/>
      <point x="442" y="915"/>
      <point x="486" y="825"/>
      <point x="486" y="752" type="curve" smooth="yes"/>
      <point x="486" y="686"/>
      <point x="458" y="594"/>
      <point x="262" y="540" type="curve"/>
      <point x="273" y="492" type="line"/>
      <point x="306" y="498"/>
      <point x="298" y="498"/>
      <point x="328" y="498" type="curve" smooth="yes"/>
      <point x="422" y="498"/>
      <point x="532" y="439"/>
      <point x="532" y="278" type="curve" smooth="yes"/>
      <point x="532" y="142"/>
      <point x="444" y="56"/>
      <point x="314" y="56" type="curve" smooth="yes"/>
      <point x="234" y="56"/>
      <point x="178" y="76"/>
      <point x="81" y="148" type="curve"/>
      <point x="54" y="95" type="line"/>
      <point x="150" y="3"/>
      <point x="240" y="-24"/>
      <point x="324" y="-24" type="curve" smooth="yes"/>
      <point x="544" y="-24"/>
      <point x="660" y="124"/>
    </contour>
  </outline>
</glyph>
<glyph name="four" format="2">
  <advance width="768"/>
  <unicode hex="0034"/>
  <anchor x="384" y="-80" name="L"/>
  <anchor x="384" y="1096" name="U"/>
  <outline>
    <contour>
      <point x="699" y="344" type="curve"/>
      <point x="678" y="368" type="line"/>
      <point x="580" y="368" type="line"/>
      <point x="580" y="968" type="line"/>
      <point x="550" y="996" type="line"/>
      <point x="519" y="980"/>
      <point x="484" y="958"/>
      <point x="440" y="939" type="curve"/>
      <point x="44" y="306" type="line"/>
      <point x="70" y="280" type="line"/>
      <point x="468" y="280" type="line"/>
      <point x="468" y="92" type="line" smooth="yes"/>
      <point x="468" y="73"/>
      <point x="439" y="57"/>
      <point x="300" y="34" type="curve"/>
      <point x="300" y="0" type="line"/>
      <point x="691" y="0" type="line"/>
      <point x="691" y="34" type="line"/>
      <point x="603" y="54"/>
      <point x="580" y="67"/>
      <point x="580" y="83" type="curve" smooth="yes"/>
      <point x="580" y="280" type="line"/>
      <point x="636" y="280" type="line"/>
      <point x="660" y="298"/>
      <point x="676" y="309"/>
    </contour>
    <contour>
      <point x="468" y="832" type="line"/>
      <point x="468" y="368" type="line"/>
      <point x="170" y="368" type="line"/>
    </contour>
  </outline>
</glyph>
<glyph name="five" format="2">
  <advance width="768"/>
  <unicode hex="0035"/>
  <anchor x="384" y="-80" name="L"/>
  <anchor x="384" y="1096" name="U"/>
  <outline>
    <contour>
      <point x="668" y="328" type="curve"/>
      <point x="668" y="484"/>
      <point x="564" y="624"/>
      <point x="370" y="624" type="curve" smooth="yes"/>
      <point x="316" y="624"/>
      <point x="253" y="616"/>
      <point x="211" y="603" type="curve"/>
      <point x="220" y="650"/>
      <point x="242" y="797"/>
      <point x="245" y="860" type="curve"/>
      <point x="555" y="860" type="line"/>
      <point x="580" y="878"/>
      <point x="620" y="920"/>
      <point x="644" y="955" type="curve"/>
      <point x="620" y="978" type="line"/>
      <point x="620" y="978"/>
      <point x="584" y="964"/>
      <point x="524" y="964" type="curve" smooth="yes"/>
      <point x="175" y="964" type="line"/>
      <point x="168" y="851"/>
      <point x="129" y="614"/>
      <point x="109" y="498" type="curve"/>
      <point x="147" y="472" type="line"/>
      <point x="203" y="514"/>
      <point x="276" y="536"/>
      <point x="322" y="536" type="curve" smooth="yes"/>
      <point x="472" y="536"/>
      <point x="540" y="439"/>
      <point x="540" y="293" type="curve" smooth="yes"/>
      <point x="540" y="172"/>
      <point x="473" y="56"/>
      <point x="334" y="56" type="curve" smooth="yes"/>
      <point x="273" y="56"/>
      <point x="203" y="70"/>
      <point x="90" y="148" type="curve"/>
      <point x="62" y="95" type="line"/>
      <point x="154" y="9"/>
      <point x="253" y="-24"/>
      <point x="352" y="-24" type="curve" smooth="yes"/>
      <point x="553" y="-24"/>
      <point x="668" y="142"/>
    </contour>
  </outline>
</glyph>
<glyph name="six" format="2">
  <advance width="768"/>
  <unicode hex="0036"/>
  <anchor x="384" y="-80" name="L"/>
  <anchor x="384" y="1096" name="U"/>
  <outline>
    <contour>
      <point x="704" y="329" type="curve"/>
      <point x="704" y="504"/>
      <point x="604" y="616"/>
      <point x="432" y="616" type="curve" smooth="yes"/>
      <point x="373" y="616"/>
      <point x="264" y="583"/>
      <point x="180" y="470" type="curve"/>
      <point x="190" y="393" type="line"/>
      <point x="253" y="491"/>
      <point x="337" y="528"/>
      <point x="400" y="528" type="curve" smooth="yes"/>
      <point x="478" y="528"/>
      <point x="584" y="478"/>
      <point x="584" y="278" type="curve" smooth="yes"/>
      <point x="584" y="180"/>
      <point x="550" y="60"/>
      <point x="436" y="60" type="curve" smooth="yes"/>
      <point x="303" y="60"/>
      <point x="216" y="176"/>
      <point x="216" y="429" type="curve" smooth="yes"/>
      <point x="216" y="648"/>
      <point x="353" y="884"/>
      <point x="645" y="952" type="curve"/>
      <point x="630" y="999" type="line"/>
      <point x="259" y="945"/>
      <point x="88" y="680"/>
      <point x="88" y="378" type="curve" smooth="yes"/>
      <point x="88" y="137"/>
      <point x="229" y="-24"/>
      <point x="404" y="-24" type="curve" smooth="yes"/>
      <point x="601" y="-24"/>
      <point x="704" y="180"/>
    </contour>
  </outline>
</glyph>
<glyph name="seven" format="2">
  <advance width="768"/>
  <unicode hex="0037"/>
  <anchor x="384" y="-80" name="L"/>
  <anchor x="384" y="1096" name="U"/>
  <outline>
    <contour>
      <point x="708" y="933" type="curve"/>
      <point x="681" y="964" type="line"/>
      <point x="117" y="964" type="line"/>
      <point x="104" y="916"/>
      <point x="90" y="808"/>
      <point x="83" y="758" type="curve"/>
      <point x="120" y="744" type="line"/>
      <point x="165" y="868"/>
      <point x="192" y="860"/>
      <point x="223" y="860" type="curve" smooth="yes"/>
      <point x="586" y="860" type="line"/>
      <point x="468" y="588"/>
      <point x="368" y="328"/>
      <point x="183" y="2" type="curve"/>
      <point x="216" y="-24" type="line"/>
      <point x="268" y="-10"/>
      <point x="308" y="8"/>
      <point x="345" y="35" type="curve"/>
      <point x="401" y="205"/>
      <point x="560" y="589"/>
    </contour>
  </outline>
</glyph>
<glyph name="eight" format="2">
  <advance width="768"/>
  <unicode hex="0038"/>
  <anchor x="384" y="-80" name="L"/>
  <anchor x="384" y="1096" name="U"/>
  <outline>
    <contour>
      <point x="693" y="281" type="curve"/>
      <point x="693" y="608"/>
      <point x="220" y="555"/>
      <point x="220" y="760" type="curve" smooth="yes"/>
      <point x="220" y="832"/>
      <point x="265" y="912"/>
      <point x="360" y="912" type="curve" smooth="yes"/>
      <point x="465" y="912"/>
      <point x="533" y="861"/>
      <point x="533" y="750" type="curve" smooth="yes"/>
      <point x="533" y="689"/>
      <point x="500" y="627"/>
      <point x="408" y="567" type="curve"/>
      <point x="464" y="532" type="line"/>
      <point x="572" y="604"/>
      <point x="653" y="678"/>
      <point x="653" y="775" type="curve" smooth="yes"/>
      <point x="653" y="899"/>
      <point x="561" y="988"/>
      <point x="401" y="988" type="curve" smooth="yes"/>
      <point x="240" y="988"/>
      <point x="116" y="880"/>
      <point x="116" y="732" type="curve" smooth="yes"/>
      <point x="116" y="447"/>
      <point x="565" y="536"/>
      <point x="565" y="247" type="curve" smooth="yes"/>
      <point x="565" y="154"/>
      <point x="517" y="56"/>
      <point x="400" y="56" type="curve" smooth="yes"/>
      <point x="278" y="56"/>
      <point x="203" y="140"/>
      <point x="203" y="252" type="curve" smooth="yes"/>
      <point x="203" y="350"/>
      <point x="247" y="416"/>
      <point x="352" y="491" type="curve"/>
      <point x="295" y="520" type="line"/>
      <point x="162" y="448"/>
      <point x="75" y="347"/>
      <point x="75" y="228" type="curve" smooth="yes"/>
      <point x="75" y="96"/>
      <point x="178" y="-24"/>
      <point x="360" y="-24" type="curve" smooth="yes"/>
      <point x="542" y="-24"/>
      <point x="693" y="116"/>
    </contour>
  </outline>
</glyph>
<glyph name="nine" format="2">
  <advance width="768"/>
  <unicode hex="0039"/>
  <anchor x="384" y="-80" name="L"/>
  <anchor x="384" y="1096" name="U"/>
  <outline>
    <contour>
      <point x="696" y="584" type="curve"/>
      <point x="696" y="868"/>
      <point x="553" y="988"/>
      <point x="404" y="988" type="curve" smooth="yes"/>
      <point x="216" y="988"/>
      <point x="80" y="797"/>
      <point x="80" y="636" type="curve" smooth="yes"/>
      <point x="80" y="476"/>
      <point x="180" y="356"/>
      <point x="350" y="356" type="curve" smooth="yes"/>
      <point x="444" y="356"/>
      <point x="553" y="424"/>
      <point x="604" y="519" type="curve"/>
      <point x="594" y="603" type="line"/>
      <point x="553" y="512"/>
      <point x="475" y="444"/>
      <point x="384" y="444" type="curve" smooth="yes"/>
      <point x="306" y="444"/>
      <point x="200" y="488"/>
      <point x="200" y="684" type="curve" smooth="yes"/>
      <point x="200" y="811"/>
      <point x="262" y="904"/>
      <point x="372" y="904" type="curve" smooth="yes"/>
      <point x="460" y="904"/>
      <point x="568" y="819"/>
      <point x="568" y="536" type="curve" smooth="yes"/>
      <point x="568" y="283"/>
      <point x="453" y="92"/>
      <point x="137" y="12" type="curve"/>
      <point x="152" y="-34" type="line"/>
      <point x="524" y="20"/>
      <point x="696" y="260"/>
    </contour>
  </outline>
</glyph>
<glyph name="less" format="2">
  <advance width="719"/>
  <unicode hex="003C"/>
  <outline>
    <contour>
      <point x="670" y="699" type="curve"/>
      <point x="650" y="719" type="line"/>
      <point x="73" y="503" type="line"/>
      <point x="64" y="481"/>
      <point x="54" y="445"/>
      <point x="48" y="424" type="curve"/>
      <point x="68" y="404" type="line"/>
      <point x="647" y="619" type="line"/>
      <point x="653" y="639"/>
      <point x="664" y="676"/>
    </contour>
    <contour>
      <point x="670" y="257" type="curve"/>
      <point x="656" y="286" type="line"/>
      <point x="73" y="503" type="line"/>
      <point x="64" y="481"/>
      <point x="54" y="445"/>
      <point x="48" y="424" type="curve"/>
      <point x="68" y="404" type="line"/>
      <point x="603" y="204" type="line"/>
      <point x="636" y="224"/>
      <point x="647" y="236"/>
    </contour>
  </outline>
</glyph>
<glyph name="equal" format="2">
  <advance width="719"/>
  <unicode hex="003D"/>
  <outline>
    <contour>
      <point x="670" y="592" type="curve"/>
      <point x="650" y="612" type="line"/>
      <point x="73" y="612" type="line"/>
      <point x="64" y="592"/>
      <point x="54" y="565"/>
      <point x="48" y="544" type="curve"/>
      <point x="68" y="524" type="line"/>
      <point x="647" y="524" type="line"/>
      <point x="653" y="542"/>
      <point x="664" y="571"/>
    </contour>
    <contour>
      <point x="670" y="352" type="curve"/>
      <point x="650" y="372" type="line"/>
      <point x="73" y="372" type="line"/>
      <point x="64" y="350"/>
      <point x="54" y="327"/>
      <point x="48" y="305" type="curve"/>
      <point x="68" y="284" type="line"/>
      <point x="647" y="284" type="line"/>
      <point x="653" y="304"/>
      <point x="664" y="329"/>
    </contour>
  </outline>
</glyph>
<glyph name="greater" format="2">
  <advance width="719"/>
  <unicode hex="003E"/>
  <outline>
    <contour>
      <point x="670" y="500" type="curve"/>
      <point x="652" y="519" type="line"/>
      <point x="116" y="719" type="line"/>
      <point x="96" y="703"/>
      <point x="73" y="686"/>
      <point x="48" y="667" type="curve"/>
      <point x="62" y="636" type="line"/>
      <point x="514" y="468" type="line"/>
      <point x="73" y="303" type="line"/>
      <point x="65" y="284"/>
      <point x="56" y="245"/>
      <point x="48" y="224" type="curve"/>
      <point x="68" y="204" type="line"/>
      <point x="645" y="419" type="line"/>
      <point x="655" y="443"/>
      <point x="665" y="480"/>
    </contour>
  </outline>
</glyph>
<glyph name="question" format="2">
  <advance width="709"/>
  <unicode hex="003F"/>
  <outline>
    <contour>
      <point x="644" y="932" type="curve"/>
      <point x="644" y="1081"/>
      <point x="558" y="1184"/>
      <point x="401" y="1184" type="curve" smooth="yes"/>
      <point x="223" y="1184"/>
      <point x="64" y="1072"/>
      <point x="64" y="922" type="curve" smooth="yes"/>
      <point x="64" y="914"/>
      <point x="64" y="904"/>
      <point x="65" y="896" type="curve"/>
      <point x="87" y="872" type="line"/>
      <point x="134" y="876"/>
      <point x="170" y="884"/>
      <point x="204" y="902" type="curve"/>
      <point x="200" y="917"/>
      <point x="195" y="933"/>
      <point x="195" y="948" type="curve" smooth="yes"/>
      <point x="195" y="1032"/>
      <point x="262" y="1107"/>
      <point x="339" y="1107" type="curve" smooth="yes"/>
      <point x="450" y="1107"/>
      <point x="513" y="1027"/>
      <point x="513" y="896" type="curve" smooth="yes"/>
      <point x="513" y="744"/>
      <point x="273" y="572"/>
      <point x="283" y="388" type="curve"/>
      <point x="289" y="295" type="line"/>
      <point x="309" y="278" type="line"/>
      <point x="339" y="286"/>
      <point x="350" y="296"/>
      <point x="370" y="311" type="curve"/>
      <point x="375" y="388" type="line" smooth="yes"/>
      <point x="391" y="614"/>
      <point x="644" y="691"/>
    </contour>
    <contour>
      <point x="431" y="98" type="curve"/>
      <point x="431" y="156"/>
      <point x="404" y="188"/>
      <point x="352" y="188" type="curve" smooth="yes"/>
      <point x="292" y="188"/>
      <point x="240" y="129"/>
      <point x="240" y="57" type="curve" smooth="yes"/>
      <point x="240" y="0"/>
      <point x="264" y="-32"/>
      <point x="320" y="-32" type="curve" smooth="yes"/>
      <point x="383" y="-32"/>
      <point x="431" y="24"/>
    </contour>
  </outline>
</glyph>
<glyph name="at" format="2">
  <advance width="1322"/>
  <unicode hex="0040"/>
  <outline>
    <contour>
      <point x="1266" y="439" type="curve"/>
      <point x="1266" y="848"/>
      <point x="1056" y="1066"/>
      <point x="739" y="1066" type="curve" smooth="yes"/>
      <point x="364" y="1066"/>
      <point x="56" y="734"/>
      <point x="56" y="372" type="curve" smooth="yes"/>
      <point x="56" y="-37"/>
      <point x="316" y="-300"/>
      <point x="683" y="-300" type="curve" smooth="yes"/>
      <point x="912" y="-300"/>
      <point x="1083" y="-190"/>
      <point x="1160" y="-109" type="curve"/>
      <point x="1138" y="-65" type="line"/>
      <point x="1074" y="-120"/>
      <point x="902" y="-204"/>
      <point x="722" y="-204" type="curve" smooth="yes"/>
      <point x="432" y="-204"/>
      <point x="176" y="32"/>
      <point x="176" y="419" type="curve" smooth="yes"/>
      <point x="176" y="708"/>
      <point x="381" y="970"/>
      <point x="708" y="970" type="curve" smooth="yes"/>
      <point x="978" y="970"/>
      <point x="1170" y="768"/>
      <point x="1170" y="409" type="curve" smooth="yes"/>
      <point x="1170" y="229"/>
      <point x="1071" y="87"/>
      <point x="1017" y="87" type="curve" smooth="yes"/>
      <point x="966" y="87"/>
      <point x="931" y="132"/>
      <point x="931" y="228" type="curve" smooth="yes"/>
      <point x="931" y="578" type="line" smooth="yes"/>
      <point x="931" y="667"/>
      <point x="955" y="744"/>
      <point x="955" y="744" type="curve"/>
      <point x="930" y="768" type="line"/>
      <point x="900" y="735"/>
      <point x="872" y="711"/>
      <point x="844" y="694" type="curve"/>
      <point x="788" y="756"/>
      <point x="760" y="768"/>
      <point x="711" y="768" type="curve" smooth="yes"/>
      <point x="503" y="768"/>
      <point x="368" y="539"/>
      <point x="368" y="355" type="curve" smooth="yes"/>
      <point x="368" y="117"/>
      <point x="494" y="-24"/>
      <point x="603" y="-24" type="curve" smooth="yes"/>
      <point x="688" y="-24"/>
      <point x="728" y="8"/>
      <point x="816" y="129" type="curve"/>
      <point x="830" y="18"/>
      <point x="873" y="-24"/>
      <point x="925" y="-24" type="curve" smooth="yes"/>
      <point x="1061" y="-24"/>
      <point x="1266" y="162"/>
    </contour>
    <contour>
      <point x="811" y="584" type="curve"/>
      <point x="811" y="200" type="line"/>
      <point x="730" y="104"/>
      <point x="701" y="80"/>
      <point x="660" y="80" type="curve" smooth="yes"/>
      <point x="584" y="80"/>
      <point x="488" y="198"/>
      <point x="488" y="380" type="curve" smooth="yes"/>
      <point x="488" y="580"/>
      <point x="568" y="680"/>
      <point x="686" y="680" type="curve" smooth="yes"/>
      <point x="750" y="680"/>
      <point x="781" y="644"/>
    </contour>
  </outline>
</glyph>
<glyph name="A" format="2">
  <advance width="975"/>
  <unicode hex="0041"/>
  <anchor x="479" y="0" name="H"/>
  <anchor x="479" y="-80" name="L"/>
  <anchor x="768" y="0" name="O"/>
  <anchor x="479" y="1096" name="U"/>
  <outline>
    <contour>
      <point x="304" y="356" type="line"/>
      <point x="631" y="356" type="line"/>
      <point x="722" y="88" type="line" smooth="yes"/>
      <point x="734" y="53"/>
      <point x="703" y="39"/>
      <point x="620" y="34" type="curve"/>
      <point x="620" y="0" type="line"/>
      <point x="958" y="0" type="line"/>
      <point x="958" y="34" type="line"/>
      <point x="889" y="42"/>
      <point x="864" y="59"/>
      <point x="853" y="88" type="curve" smooth="yes"/>
      <point x="517" y="1053" type="line"/>
      <point x="489" y="1038"/>
      <point x="448" y="1016"/>
      <point x="424" y="989" type="curve"/>
      <point x="126" y="88" type="line" smooth="yes"/>
      <point x="116" y="56"/>
      <point x="72" y="47"/>
      <point x="0" y="34" type="curve"/>
      <point x="0" y="0" type="line"/>
      <point x="332" y="0" type="line"/>
      <point x="332" y="34" type="line"/>
      <point x="245" y="44"/>
      <point x="205" y="56"/>
      <point x="216" y="88" type="curve" smooth="yes"/>
    </contour>
    <contour>
      <point x="606" y="428" type="line"/>
      <point x="328" y="428" type="line"/>
      <point x="465" y="839" type="line"/>
    </contour>
  </outline>
</glyph>
<glyph name="B" format="2">
  <advance width="900"/>
  <unicode hex="0042"/>
  <anchor x="422" y="-80" name="L"/>
  <anchor x="422" y="1096" name="U"/>
  <outline>
    <contour>
      <point x="812" y="284" type="curve"/>
      <point x="812" y="432"/>
      <point x="708" y="552"/>
      <point x="572" y="578" type="curve"/>
      <point x="664" y="614"/>
      <point x="724" y="701"/>
      <point x="724" y="816" type="curve" smooth="yes"/>
      <point x="724" y="950"/>
      <point x="589" y="1032"/>
      <point x="375" y="1032" type="curve" smooth="yes"/>
      <point x="259" y="1032"/>
      <point x="116" y="1007"/>
      <point x="32" y="984" type="curve"/>
      <point x="40" y="934" type="line"/>
      <point x="130" y="951"/>
      <point x="246" y="964"/>
      <point x="330" y="964" type="curve" smooth="yes"/>
      <point x="536" y="964"/>
      <point x="600" y="883"/>
      <point x="600" y="776" type="curve" smooth="yes"/>
      <point x="600" y="684"/>
      <point x="553" y="580"/>
      <point x="311" y="580" type="curve" smooth="yes"/>
      <point x="232" y="580" type="line"/>
      <point x="240" y="501" type="line"/>
      <point x="292" y="511"/>
      <point x="345" y="520"/>
      <point x="416" y="520" type="curve" smooth="yes"/>
      <point x="601" y="520"/>
      <point x="681" y="375"/>
      <point x="681" y="257" type="curve" smooth="yes"/>
      <point x="681" y="137"/>
      <point x="583" y="56"/>
      <point x="429" y="56" type="curve" smooth="yes"/>
      <point x="381" y="56"/>
      <point x="308" y="60"/>
      <point x="276" y="78" type="curve"/>
      <point x="98" y="0" type="line"/>
      <point x="198" y="-4"/>
      <point x="355" y="-11"/>
      <point x="447" y="-11" type="curve"/>
      <point x="663" y="-11"/>
      <point x="812" y="103"/>
    </contour>
    <contour>
      <point x="40" y="0" type="line"/>
      <point x="400" y="0" type="line"/>
      <point x="400" y="34" type="line"/>
      <point x="322" y="48"/>
      <point x="284" y="70"/>
      <point x="284" y="83" type="curve" smooth="yes"/>
      <point x="284" y="984" type="line"/>
      <point x="156" y="968" type="line"/>
      <point x="156" y="83" type="line" smooth="yes"/>
      <point x="156" y="68"/>
      <point x="112" y="48"/>
      <point x="40" y="34" type="curve"/>
    </contour>
  </outline>
</glyph>
<glyph name="C" format="2">
  <advance width="878"/>
  <unicode hex="0043"/>
  <anchor x="467" y="0" name="H"/>
  <anchor x="491" y="-80" name="L"/>
  <anchor x="491" y="1096" name="U"/>
  <outline>
    <contour>
      <point x="814" y="168" type="curve"/>
      <point x="811" y="176"/>
      <point x="796" y="200"/>
      <point x="784" y="204" type="curve"/>
      <point x="667" y="106"/>
      <point x="572" y="72"/>
      <point x="514" y="72" type="curve" smooth="yes"/>
      <point x="362" y="72"/>
      <point x="180" y="214"/>
      <point x="180" y="498" type="curve" smooth="yes"/>
      <point x="180" y="830"/>
      <point x="364" y="944"/>
      <point x="473" y="944" type="curve" smooth="yes"/>
      <point x="570" y="944"/>
      <point x="645" y="908"/>
      <point x="699" y="858" type="curve"/>
      <point x="727" y="853" type="line"/>
      <point x="752" y="878"/>
      <point x="811" y="942"/>
      <point x="799" y="952" type="curve" smooth="yes"/>
      <point x="744" y="996"/>
      <point x="655" y="1032"/>
      <point x="540" y="1032" type="curve" smooth="yes"/>
      <point x="278" y="1032"/>
      <point x="56" y="809"/>
      <point x="56" y="468" type="curve" smooth="yes"/>
      <point x="56" y="159"/>
      <point x="259" y="-24"/>
      <point x="456" y="-24" type="curve" smooth="yes"/>
      <point x="567" y="-24"/>
      <point x="678" y="23"/>
    </contour>
  </outline>
</glyph>
<glyph name="D" format="2">
  <advance width="971"/>
  <unicode hex="0044"/>
  <anchor x="440" y="-80" name="L"/>
  <anchor x="440" y="1096" name="U"/>
  <outline>
    <contour>
      <point x="898" y="540" type="curve"/>
      <point x="898" y="850"/>
      <point x="711" y="1032"/>
      <point x="414" y="1032" type="curve" smooth="yes"/>
      <point x="288" y="1032"/>
      <point x="126" y="1010"/>
      <point x="32" y="984" type="curve"/>
      <point x="40" y="934" type="line"/>
      <point x="128" y="948"/>
      <point x="242" y="964"/>
      <point x="362" y="964" type="curve" smooth="yes"/>
      <point x="619" y="964"/>
      <point x="762" y="792"/>
      <point x="762" y="509" type="curve" smooth="yes"/>
      <point x="762" y="209"/>
      <point x="576" y="67"/>
      <point x="429" y="67" type="curve" smooth="yes"/>
      <point x="316" y="67"/>
      <point x="284" y="83"/>
      <point x="284" y="120" type="curve"/>
      <point x="65" y="0" type="line"/>
      <point x="237" y="0"/>
      <point x="288" y="0"/>
      <point x="447" y="0" type="curve" smooth="yes"/>
      <point x="636" y="0"/>
      <point x="898" y="140"/>
    </contour>
    <contour>
      <point x="40" y="0" type="line"/>
      <point x="400" y="0" type="line"/>
      <point x="400" y="48" type="line"/>
      <point x="322" y="64"/>
      <point x="284" y="81"/>
      <point x="284" y="123" type="curve" smooth="yes"/>
      <point x="284" y="991" type="line"/>
      <point x="156" y="991" type="line"/>
      <point x="156" y="83" type="line" smooth="yes"/>
      <point x="156" y="68"/>
      <point x="112" y="48"/>
      <point x="40" y="34" type="curve"/>
    </contour>
  </outline>
</glyph>
<glyph name="E" format="2">
  <advance width="812"/>
  <unicode hex="0045"/>
  <anchor x="401" y="0" name="H"/>
  <anchor x="401" y="-80" name="L"/>
  <anchor x="600" y="0" name="O"/>
  <anchor x="812" y="880" name="R"/>
  <anchor x="401" y="1096" name="U"/>
  <outline>
    <contour>
      <point x="711" y="988" type="curve"/>
      <point x="684" y="1008" type="line"/>
      <point x="265" y="1008" type="line"/>
      <point x="242" y="936" type="line"/>
      <point x="576" y="936" type="line" smooth="yes"/>
      <point x="616" y="936"/>
      <point x="637" y="906"/>
      <point x="642" y="808" type="curve"/>
      <point x="678" y="808" type="line"/>
      <point x="691" y="848"/>
      <point x="708" y="933"/>
    </contour>
    <contour>
      <point x="628" y="565" type="curve"/>
      <point x="608" y="588" type="line"/>
      <point x="248" y="588" type="line"/>
      <point x="231" y="520" type="line"/>
      <point x="396" y="520" type="line" smooth="yes"/>
      <point x="486" y="520"/>
      <point x="522" y="508"/>
      <point x="555" y="476" type="curve"/>
      <point x="578" y="493"/>
      <point x="611" y="536"/>
    </contour>
    <contour>
      <point x="763" y="195" type="curve"/>
      <point x="728" y="209" type="line"/>
      <point x="683" y="84"/>
      <point x="648" y="72"/>
      <point x="550" y="72" type="curve" smooth="yes"/>
      <point x="447" y="72" type="line" smooth="yes"/>
      <point x="306" y="72"/>
      <point x="284" y="92"/>
      <point x="284" y="123" type="curve" smooth="yes"/>
      <point x="284" y="941" type="line" smooth="yes"/>
      <point x="284" y="956"/>
      <point x="328" y="966"/>
      <point x="400" y="973" type="curve"/>
      <point x="400" y="1008" type="line"/>
      <point x="40" y="1008" type="line"/>
      <point x="40" y="973" type="line"/>
      <point x="116" y="958"/>
      <point x="156" y="936"/>
      <point x="156" y="924" type="curve" smooth="yes"/>
      <point x="156" y="83" type="line" smooth="yes"/>
      <point x="156" y="68"/>
      <point x="112" y="48"/>
      <point x="40" y="34" type="curve"/>
      <point x="40" y="0" type="line"/>
      <point x="730" y="0" type="line"/>
      <point x="739" y="31"/>
      <point x="755" y="103"/>
    </contour>
  </outline>
</glyph>
<glyph name="F" format="2">
  <advance width="783"/>
  <unicode hex="0046"/>
  <anchor x="378" y="-80" name="L"/>
  <anchor x="378" y="1096" name="U"/>
  <outline>
    <contour>
      <point x="717" y="988" type="curve"/>
      <point x="692" y="1008" type="line"/>
      <point x="265" y="1008" type="line"/>
      <point x="242" y="936" type="line"/>
      <point x="583" y="936" type="line" smooth="yes"/>
      <point x="624" y="936"/>
      <point x="645" y="906"/>
      <point x="648" y="808" type="curve"/>
      <point x="686" y="808" type="line"/>
      <point x="699" y="848"/>
      <point x="716" y="933"/>
    </contour>
    <contour>
      <point x="606" y="565" type="curve"/>
      <point x="583" y="588" type="line"/>
      <point x="226" y="588" type="line"/>
      <point x="206" y="520" type="line"/>
      <point x="373" y="520" type="line" smooth="yes"/>
      <point x="462" y="520"/>
      <point x="500" y="508"/>
      <point x="531" y="476" type="curve"/>
      <point x="553" y="493"/>
      <point x="586" y="536"/>
    </contour>
    <contour>
      <point x="40" y="0" type="line"/>
      <point x="424" y="0" type="line"/>
      <point x="424" y="34" type="line"/>
      <point x="319" y="54"/>
      <point x="284" y="70"/>
      <point x="284" y="83" type="curve" smooth="yes"/>
      <point x="284" y="941" type="line" smooth="yes"/>
      <point x="284" y="956"/>
      <point x="344" y="966"/>
      <point x="400" y="973" type="curve"/>
      <point x="400" y="1008" type="line"/>
      <point x="40" y="1008" type="line"/>
      <point x="40" y="973" type="line"/>
      <point x="116" y="958"/>
      <point x="156" y="936"/>
      <point x="156" y="924" type="curve" smooth="yes"/>
      <point x="156" y="83" type="line" smooth="yes"/>
      <point x="156" y="68"/>
      <point x="112" y="48"/>
      <point x="40" y="34" type="curve"/>
    </contour>
  </outline>
</glyph>
<glyph name="G" format="2">
  <advance width="955"/>
  <unicode hex="0047"/>
  <anchor x="496" y="0" name="H"/>
  <anchor x="512" y="-80" name="L"/>
  <anchor x="512" y="1096" name="U"/>
  <outline>
    <contour>
      <point x="916" y="453" type="curve"/>
      <point x="916" y="488" type="line"/>
      <point x="547" y="488" type="line"/>
      <point x="547" y="453" type="line"/>
      <point x="676" y="432"/>
      <point x="712" y="411"/>
      <point x="712" y="388" type="curve" smooth="yes"/>
      <point x="712" y="78" type="line" smooth="yes"/>
      <point x="712" y="64"/>
      <point x="832" y="123"/>
      <point x="832" y="123" type="curve"/>
      <point x="832" y="388" type="line" smooth="yes"/>
      <point x="832" y="412"/>
      <point x="855" y="439"/>
    </contour>
    <contour>
      <point x="833" y="950" type="curve"/>
      <point x="764" y="1002"/>
      <point x="660" y="1032"/>
      <point x="589" y="1032" type="curve" smooth="yes"/>
      <point x="296" y="1032"/>
      <point x="56" y="820"/>
      <point x="56" y="465" type="curve" smooth="yes"/>
      <point x="56" y="136"/>
      <point x="280" y="-24"/>
      <point x="494" y="-24" type="curve" smooth="yes"/>
      <point x="591" y="-24"/>
      <point x="673" y="-6"/>
      <point x="832" y="123" type="curve"/>
      <point x="825" y="131"/>
      <point x="778" y="148"/>
      <point x="764" y="156" type="curve"/>
      <point x="709" y="103"/>
      <point x="624" y="72"/>
      <point x="516" y="72" type="curve" smooth="yes"/>
      <point x="353" y="72"/>
      <point x="180" y="212"/>
      <point x="180" y="509" type="curve" smooth="yes"/>
      <point x="180" y="842"/>
      <point x="398" y="944"/>
      <point x="478" y="944" type="curve" smooth="yes"/>
      <point x="583" y="944"/>
      <point x="660" y="928"/>
      <point x="730" y="861" type="curve"/>
      <point x="756" y="856" type="line"/>
      <point x="784" y="881"/>
      <point x="848" y="939"/>
    </contour>
  </outline>
</glyph>
<glyph name="H" format="2">
  <advance width="1071"/>
  <unicode hex="0048"/>
  <anchor x="216" y="0" name="H"/>
  <anchor x="528" y="-80" name="L"/>
  <anchor x="528" y="1096" name="U"/>
  <outline>
    <contour>
      <point x="656" y="0" type="line"/>
      <point x="1016" y="0" type="line"/>
      <point x="1016" y="34" type="line"/>
      <point x="939" y="48"/>
      <point x="900" y="70"/>
      <point x="900" y="83" type="curve" smooth="yes"/>
      <point x="900" y="924" type="line" smooth="yes"/>
      <point x="900" y="939"/>
      <point x="944" y="958"/>
      <point x="1016" y="973" type="curve"/>
      <point x="1016" y="1008" type="line"/>
      <point x="656" y="1008" type="line"/>
      <point x="656" y="973" type="line"/>
      <point x="732" y="958"/>
      <point x="772" y="936"/>
      <point x="772" y="924" type="curve" smooth="yes"/>
      <point x="772" y="83" type="line" smooth="yes"/>
      <point x="772" y="68"/>
      <point x="728" y="48"/>
      <point x="656" y="34" type="curve"/>
    </contour>
    <contour>
      <point x="261" y="492" type="line"/>
      <point x="788" y="492" type="line"/>
      <point x="788" y="564" type="line"/>
      <point x="261" y="564" type="line"/>
    </contour>
    <contour>
      <point x="40" y="0" type="line"/>
      <point x="400" y="0" type="line"/>
      <point x="400" y="34" type="line"/>
      <point x="322" y="48"/>
      <point x="284" y="70"/>
      <point x="284" y="83" type="curve" smooth="yes"/>
      <point x="284" y="924" type="line" smooth="yes"/>
      <point x="284" y="939"/>
      <point x="328" y="958"/>
      <point x="400" y="973" type="curve"/>
      <point x="400" y="1008" type="line"/>
      <point x="40" y="1008" type="line"/>
      <point x="40" y="973" type="line"/>
      <point x="116" y="958"/>
      <point x="156" y="936"/>
      <point x="156" y="924" type="curve" smooth="yes"/>
      <point x="156" y="83" type="line" smooth="yes"/>
      <point x="156" y="68"/>
      <point x="112" y="48"/>
      <point x="40" y="34" type="curve"/>
    </contour>
  </outline>
</glyph>
<glyph name="I" format="2">
  <advance width="488"/>
  <unicode hex="0049"/>
  <anchor x="236" y="0" name="H"/>
  <anchor x="236" y="-80" name="L"/>
  <anchor x="276" y="0" name="O"/>
  <anchor x="464" y="880" name="R"/>
  <anchor x="236" y="1096" name="U"/>
  <outline>
    <contour>
      <point x="56" y="0" type="line"/>
      <point x="416" y="0" type="line"/>
      <point x="416" y="34" type="line"/>
      <point x="339" y="48"/>
      <point x="300" y="70"/>
      <point x="300" y="83" type="curve" smooth="yes"/>
      <point x="300" y="924" type="line" smooth="yes"/>
      <point x="300" y="939"/>
      <point x="344" y="958"/>
      <point x="416" y="973" type="curve"/>
      <point x="416" y="1008" type="line"/>
      <point x="56" y="1008" type="line"/>
      <point x="56" y="973" type="line"/>
      <point x="132" y="958"/>
      <point x="172" y="936"/>
      <point x="172" y="924" type="curve" smooth="yes"/>
      <point x="172" y="83" type="line" smooth="yes"/>
      <point x="172" y="68"/>
      <point x="128" y="48"/>
      <point x="56" y="34" type="curve"/>
    </contour>
  </outline>
</glyph>
<glyph name="J" format="2">
  <advance width="500"/>
  <unicode hex="004A"/>
  <anchor x="264" y="-480" name="L"/>
  <anchor x="264" y="1096" name="U"/>
  <outline>
    <contour>
      <point x="444" y="973" type="curve"/>
      <point x="444" y="1008" type="line"/>
      <point x="44" y="1008" type="line"/>
      <point x="44" y="973" type="line"/>
      <point x="172" y="955"/>
      <point x="200" y="936"/>
      <point x="200" y="924" type="curve" smooth="yes"/>
      <point x="200" y="106" type="line" smooth="yes"/>
      <point x="200" y="-144"/>
      <point x="123" y="-205"/>
      <point x="67" y="-205" type="curve" smooth="yes"/>
      <point x="26" y="-205"/>
      <point x="0" y="-199"/>
      <point x="-59" y="-160" type="curve"/>
      <point x="-88" y="-171"/>
      <point x="-152" y="-222"/>
      <point x="-152" y="-240" type="curve" smooth="yes"/>
      <point x="-152" y="-258"/>
      <point x="-84" y="-304"/>
      <point x="-20" y="-304" type="curve" smooth="yes"/>
      <point x="21" y="-304"/>
      <point x="112" y="-276"/>
      <point x="168" y="-230" type="curve" smooth="yes"/>
      <point x="252" y="-162"/>
      <point x="328" y="-88"/>
      <point x="328" y="164" type="curve" smooth="yes"/>
      <point x="328" y="924" type="line" smooth="yes"/>
      <point x="328" y="939"/>
      <point x="372" y="958"/>
    </contour>
  </outline>
</glyph>
<glyph name="K" format="2">
  <advance width="947"/>
  <unicode hex="004B"/>
  <anchor x="220" y="0" name="H"/>
  <anchor x="489" y="-80" name="L"/>
  <anchor x="472" y="1096" name="U"/>
  <outline>
    <contour>
      <point x="888" y="973" type="curve"/>
      <point x="888" y="1008" type="line"/>
      <point x="552" y="1008" type="line"/>
      <point x="552" y="973" type="line"/>
      <point x="636" y="966"/>
      <point x="660" y="960"/>
      <point x="611" y="902" type="curve" smooth="yes"/>
      <point x="281" y="514" type="line"/>
      <point x="380" y="514" type="line"/>
      <point x="752" y="924" type="line" smooth="yes"/>
      <point x="784" y="960"/>
      <point x="819" y="964"/>
    </contour>
    <contour>
      <point x="939" y="29" type="curve"/>
      <point x="933" y="64" type="line"/>
      <point x="878" y="57"/>
      <point x="825" y="59"/>
      <point x="788" y="101" type="curve" smooth="yes"/>
      <point x="366" y="576" type="line"/>
      <point x="281" y="514" type="line"/>
      <point x="683" y="23" type="line" smooth="yes"/>
      <point x="704" y="-3"/>
      <point x="727" y="-11"/>
      <point x="758" y="-11" type="curve" smooth="yes"/>
      <point x="809" y="-11"/>
      <point x="876" y="9"/>
    </contour>
    <contour>
      <point x="40" y="0" type="line"/>
      <point x="400" y="0" type="line"/>
      <point x="400" y="34" type="line"/>
      <point x="322" y="48"/>
      <point x="284" y="70"/>
      <point x="284" y="83" type="curve" smooth="yes"/>
      <point x="284" y="924" type="line" smooth="yes"/>
      <point x="284" y="939"/>
      <point x="328" y="958"/>
      <point x="400" y="973" type="curve"/>
      <point x="400" y="1008" type="line"/>
      <point x="40" y="1008" type="line"/>
      <point x="40" y="973" type="line"/>
      <point x="116" y="958"/>
      <point x="156" y="936"/>
      <point x="156" y="924" type="curve" smooth="yes"/>
      <point x="156" y="83" type="line" smooth="yes"/>
      <point x="156" y="68"/>
      <point x="112" y="48"/>
      <point x="40" y="34" type="curve"/>
    </contour>
  </outline>
</glyph>
<glyph name="L" format="2">
  <advance width="780"/>
  <unicode hex="004C"/>
  <anchor x="397" y="0" name="H"/>
  <anchor x="397" y="-80" name="L"/>
  <anchor x="600" y="720" name="R"/>
  <anchor x="373" y="1096" name="U"/>
  <outline>
    <contour>
      <point x="755" y="195" type="curve"/>
      <point x="720" y="209" type="line"/>
      <point x="675" y="84"/>
      <point x="645" y="72"/>
      <point x="547" y="72" type="curve" smooth="yes"/>
      <point x="432" y="72" type="line" smooth="yes"/>
      <point x="316" y="72"/>
      <point x="284" y="93"/>
      <point x="284" y="131" type="curve" smooth="yes"/>
      <point x="284" y="924" type="line" smooth="yes"/>
      <point x="284" y="939"/>
      <point x="328" y="958"/>
      <point x="400" y="973" type="curve"/>
      <point x="400" y="1008" type="line"/>
      <point x="40" y="1008" type="line"/>
      <point x="40" y="973" type="line"/>
      <point x="116" y="958"/>
      <point x="156" y="936"/>
      <point x="156" y="924" type="curve" smooth="yes"/>
      <point x="156" y="83" type="line" smooth="yes"/>
      <point x="156" y="68"/>
      <point x="112" y="48"/>
      <point x="40" y="34" type="curve"/>
      <point x="40" y="0" type="line"/>
      <point x="722" y="0" type="line"/>
      <point x="730" y="31"/>
      <point x="747" y="103"/>
    </contour>
  </outline>
</glyph>
<glyph name="M" format="2">
  <advance width="1320"/>
  <unicode hex="004D"/>
  <anchor x="1080" y="0" name="H"/>
  <anchor x="652" y="-80" name="L"/>
  <anchor x="652" y="1096" name="U"/>
  <outline>
    <contour>
      <point x="892" y="0" type="line"/>
      <point x="1256" y="0" type="line"/>
      <point x="1256" y="34" type="line"/>
      <point x="1179" y="48"/>
      <point x="1140" y="70"/>
      <point x="1140" y="83" type="curve" smooth="yes"/>
      <point x="1132" y="971" type="line"/>
      <point x="1008" y="925" type="line"/>
      <point x="1016" y="83" type="line" smooth="yes"/>
      <point x="1016" y="68"/>
      <point x="964" y="48"/>
      <point x="892" y="34" type="curve"/>
    </contour>
    <contour>
      <point x="1240" y="973" type="curve"/>
      <point x="1240" y="1008" type="line"/>
      <point x="1011" y="1008" type="line" smooth="yes"/>
      <point x="991" y="1008"/>
      <point x="987" y="1004"/>
      <point x="960" y="940" type="curve" smooth="yes"/>
      <point x="650" y="209" type="line" smooth="yes"/>
      <point x="636" y="175"/>
      <point x="630" y="134"/>
      <point x="655" y="0" type="curve"/>
      <point x="658" y="0" type="line"/>
      <point x="1018" y="854" type="line" smooth="yes"/>
      <point x="1041" y="909"/>
      <point x="1168" y="973"/>
    </contour>
    <contour>
      <point x="658" y="211" type="curve" smooth="yes"/>
      <point x="336" y="940" type="line" smooth="yes"/>
      <point x="310" y="998"/>
      <point x="305" y="1008"/>
      <point x="284" y="1008" type="curve" smooth="yes"/>
      <point x="56" y="1008" type="line"/>
      <point x="56" y="973" type="line"/>
      <point x="114" y="973"/>
      <point x="212" y="945"/>
      <point x="253" y="848" type="curve" smooth="yes"/>
      <point x="619" y="0" type="line"/>
      <point x="655" y="0" type="line"/>
      <point x="681" y="134"/>
      <point x="672" y="178"/>
    </contour>
    <contour>
      <point x="48" y="0" type="line"/>
      <point x="372" y="0" type="line"/>
      <point x="372" y="34" type="line"/>
      <point x="295" y="48"/>
      <point x="256" y="70"/>
      <point x="256" y="83" type="curve" smooth="yes"/>
      <point x="264" y="976" type="line"/>
      <point x="172" y="956" type="line"/>
      <point x="164" y="83" type="line" smooth="yes"/>
      <point x="164" y="68"/>
      <point x="120" y="48"/>
      <point x="48" y="34" type="curve"/>
    </contour>
  </outline>
</glyph>
<glyph name="N" format="2">
  <advance width="1063"/>
  <unicode hex="004E"/>
  <anchor x="837" y="0" name="H"/>
  <anchor x="532" y="-80" name="L"/>
  <anchor x="532" y="1096" name="U"/>
  <outline>
    <contour>
      <point x="1024" y="973" type="curve"/>
      <point x="1024" y="1008" type="line"/>
      <point x="696" y="1008" type="line"/>
      <point x="696" y="973" type="line"/>
      <point x="781" y="961"/>
      <point x="812" y="936"/>
      <point x="812" y="924" type="curve" smooth="yes"/>
      <point x="812" y="56" type="line"/>
      <point x="908" y="25" type="line"/>
      <point x="908" y="924" type="line" smooth="yes"/>
      <point x="908" y="939"/>
      <point x="947" y="963"/>
    </contour>
    <contour>
      <point x="908" y="-24" type="curve"/>
      <point x="908" y="96" type="line"/>
      <point x="908" y="96"/>
      <point x="836" y="187"/>
      <point x="813" y="218" type="curve" smooth="yes"/>
      <point x="286" y="945" type="line" smooth="yes"/>
      <point x="246" y="1000"/>
      <point x="240" y="1008"/>
      <point x="209" y="1008" type="curve" smooth="yes"/>
      <point x="40" y="1008" type="line"/>
      <point x="40" y="973" type="line"/>
      <point x="96" y="964"/>
      <point x="146" y="941"/>
      <point x="190" y="880" type="curve" smooth="yes"/>
      <point x="812" y="16" type="line" smooth="yes"/>
      <point x="825" y="0"/>
      <point x="855" y="-17"/>
    </contour>
    <contour>
      <point x="40" y="0" type="line"/>
      <point x="368" y="0" type="line"/>
      <point x="368" y="34" type="line"/>
      <point x="285" y="45"/>
      <point x="252" y="70"/>
      <point x="252" y="83" type="curve" smooth="yes"/>
      <point x="252" y="976" type="line"/>
      <point x="156" y="956" type="line"/>
      <point x="156" y="83" type="line" smooth="yes"/>
      <point x="156" y="68"/>
      <point x="118" y="44"/>
      <point x="40" y="34" type="curve"/>
    </contour>
  </outline>
</glyph>
<glyph name="O" format="2">
  <advance width="983"/>
  <unicode hex="004F"/>
  <anchor x="469" y="0" name="H"/>
  <anchor x="493" y="-80" name="L"/>
  <anchor x="542" y="0" name="O"/>
  <anchor x="1006" y="880" name="R"/>
  <anchor x="493" y="1096" name="U"/>
  <outline>
    <contour>
      <point x="461" y="-24" type="curve" smooth="yes"/>
      <point x="704" y="-24"/>
      <point x="912" y="228"/>
      <point x="912" y="517" type="curve" smooth="yes"/>
      <point x="912" y="778"/>
      <point x="772" y="1032"/>
      <point x="508" y="1032" type="curve" smooth="yes"/>
      <point x="256" y="1032"/>
      <point x="57" y="780"/>
      <point x="57" y="489" type="curve" smooth="yes"/>
      <point x="57" y="220"/>
      <point x="204" y="-24"/>
    </contour>
    <contour>
      <point x="484" y="72" type="curve" smooth="yes"/>
      <point x="320" y="72"/>
      <point x="181" y="273"/>
      <point x="181" y="512" type="curve" smooth="yes"/>
      <point x="181" y="773"/>
      <point x="295" y="940"/>
      <point x="484" y="940" type="curve" smooth="yes"/>
      <point x="666" y="940"/>
      <point x="788" y="724"/>
      <point x="788" y="503" type="curve" smooth="yes"/>
      <point x="788" y="220"/>
      <point x="661" y="72"/>
    </contour>
  </outline>
</glyph>
<glyph name="P" format="2">
  <advance width="856"/>
  <unicode hex="0050"/>
  <anchor x="408" y="-80" name="L"/>
  <anchor x="408" y="1096" name="U"/>
  <outline>
    <contour>
      <point x="785" y="748" type="curve"/>
      <point x="785" y="932"/>
      <point x="637" y="1032"/>
      <point x="408" y="1032" type="curve" smooth="yes"/>
      <point x="278" y="1032"/>
      <point x="136" y="1012"/>
      <point x="32" y="984" type="curve"/>
      <point x="40" y="934" type="line"/>
      <point x="143" y="952"/>
      <point x="250" y="964"/>
      <point x="362" y="964" type="curve" smooth="yes"/>
      <point x="527" y="964"/>
      <point x="661" y="891"/>
      <point x="661" y="716" type="curve" smooth="yes"/>
      <point x="661" y="565"/>
      <point x="532" y="488"/>
      <point x="434" y="488" type="curve" smooth="yes"/>
      <point x="396" y="488"/>
      <point x="355" y="492"/>
      <point x="311" y="512" type="curve"/>
      <point x="329" y="452" type="line"/>
      <point x="365" y="436"/>
      <point x="409" y="428"/>
      <point x="458" y="428" type="curve" smooth="yes"/>
      <point x="583" y="428"/>
      <point x="785" y="527"/>
    </contour>
    <contour>
      <point x="40" y="0" type="line"/>
      <point x="424" y="0" type="line"/>
      <point x="424" y="34" type="line"/>
      <point x="312" y="52"/>
      <point x="284" y="70"/>
      <point x="284" y="83" type="curve" smooth="yes"/>
      <point x="284" y="968" type="line"/>
      <point x="156" y="968" type="line"/>
      <point x="156" y="83" type="line" smooth="yes"/>
      <point x="156" y="68"/>
      <point x="112" y="48"/>
      <point x="40" y="34" type="curve"/>
    </contour>
  </outline>
</glyph>
<glyph name="Q" format="2">
  <advance width="983"/>
  <unicode hex="0051"/>
  <anchor x="483" y="-208" name="L"/>
  <anchor x="483" y="1096" name="U"/>
  <outline>
    <contour>
      <point x="910" y="517" type="curve"/>
      <point x="910" y="778"/>
      <point x="770" y="1032"/>
      <point x="506" y="1032" type="curve" smooth="yes"/>
      <point x="255" y="1032"/>
      <point x="56" y="780"/>
      <point x="56" y="489" type="curve" smooth="yes"/>
      <point x="56" y="208"/>
      <point x="224" y="-24"/>
      <point x="460" y="-24" type="curve" smooth="yes"/>
      <point x="703" y="-24"/>
      <point x="910" y="228"/>
    </contour>
    <contour>
      <point x="1025" y="-93" type="curve"/>
      <point x="1004" y="-65" type="line"/>
      <point x="940" y="-112"/>
      <point x="912" y="-128"/>
      <point x="886" y="-128" type="curve" smooth="yes"/>
      <point x="788" y="-128"/>
      <point x="661" y="6"/>
      <point x="539" y="39" type="curve" smooth="yes"/>
      <point x="511" y="47"/>
      <point x="400" y="16"/>
      <point x="400" y="16" type="curve"/>
      <point x="561" y="-12"/>
      <point x="716" y="-244"/>
      <point x="881" y="-244" type="curve" smooth="yes"/>
      <point x="914" y="-244"/>
      <point x="975" y="-186"/>
    </contour>
    <contour>
      <point x="786" y="503" type="curve"/>
      <point x="786" y="220"/>
      <point x="660" y="72"/>
      <point x="483" y="72" type="curve" smooth="yes"/>
      <point x="319" y="72"/>
      <point x="180" y="273"/>
      <point x="180" y="512" type="curve" smooth="yes"/>
      <point x="180" y="773"/>
      <point x="293" y="940"/>
      <point x="483" y="940" type="curve" smooth="yes"/>
      <point x="664" y="940"/>
      <point x="786" y="724"/>
    </contour>
  </outline>
</glyph>
<glyph name="R" format="2">
  <advance width="919"/>
  <unicode hex="0052"/>
  <anchor x="220" y="0" name="H"/>
  <anchor x="416" y="-80" name="L"/>
  <anchor x="416" y="1096" name="U"/>
  <outline>
    <contour>
      <point x="741" y="789" type="curve"/>
      <point x="741" y="927"/>
      <point x="622" y="1032"/>
      <point x="375" y="1032" type="curve" smooth="yes"/>
      <point x="234" y="1032"/>
      <point x="132" y="1008"/>
      <point x="32" y="984" type="curve"/>
      <point x="40" y="934" type="line"/>
      <point x="149" y="951"/>
      <point x="252" y="964"/>
      <point x="345" y="964" type="curve" smooth="yes"/>
      <point x="536" y="964"/>
      <point x="617" y="881"/>
      <point x="617" y="764" type="curve" smooth="yes"/>
      <point x="617" y="624"/>
      <point x="523" y="547"/>
      <point x="355" y="547" type="curve" smooth="yes"/>
      <point x="328" y="547"/>
      <point x="307" y="548"/>
      <point x="269" y="555" type="curve"/>
      <point x="274" y="491" type="line"/>
      <point x="307" y="483"/>
      <point x="339" y="480"/>
      <point x="368" y="480" type="curve" smooth="yes"/>
      <point x="575" y="480"/>
      <point x="741" y="584"/>
    </contour>
    <contour>
      <point x="911" y="29" type="curve"/>
      <point x="902" y="64" type="line"/>
      <point x="830" y="57"/>
      <point x="790" y="64"/>
      <point x="758" y="111" type="curve" smooth="yes"/>
      <point x="490" y="542" type="line"/>
      <point x="407" y="489" type="line"/>
      <point x="653" y="32" type="line" smooth="yes"/>
      <point x="668" y="8"/>
      <point x="701" y="-11"/>
      <point x="732" y="-11" type="curve" smooth="yes"/>
      <point x="773" y="-11"/>
      <point x="840" y="6"/>
    </contour>
    <contour>
      <point x="40" y="0" type="line"/>
      <point x="400" y="0" type="line"/>
      <point x="400" y="34" type="line"/>
      <point x="322" y="48"/>
      <point x="284" y="70"/>
      <point x="284" y="83" type="curve" smooth="yes"/>
      <point x="284" y="976" type="line"/>
      <point x="156" y="976" type="line"/>
      <point x="156" y="83" type="line" smooth="yes"/>
      <point x="156" y="68"/>
      <point x="112" y="48"/>
      <point x="40" y="34" type="curve"/>
    </contour>
  </outline>
</glyph>
<glyph name="S" format="2">
  <advance width="780"/>
  <unicode hex="0053"/>
  <anchor x="384" y="0" name="H"/>
  <anchor x="400" y="-80" name="L"/>
  <anchor x="400" y="1096" name="U"/>
  <outline>
    <contour>
      <point x="596" y="852" type="line"/>
      <point x="622" y="875"/>
      <point x="673" y="945"/>
      <point x="658" y="958" type="curve"/>
      <point x="619" y="1000"/>
      <point x="517" y="1032"/>
      <point x="420" y="1032" type="curve" smooth="yes"/>
      <point x="186" y="1032"/>
      <point x="101" y="873"/>
      <point x="101" y="773" type="curve" smooth="yes"/>
      <point x="101" y="464"/>
      <point x="600" y="519"/>
      <point x="600" y="259" type="curve" smooth="yes"/>
      <point x="600" y="157"/>
      <point x="492" y="72"/>
      <point x="396" y="72" type="curve" smooth="yes"/>
      <point x="288" y="72"/>
      <point x="186" y="129"/>
      <point x="137" y="255" type="curve"/>
      <point x="104" y="259" type="line"/>
      <point x="88" y="201"/>
      <point x="90" y="62"/>
      <point x="104" y="54" type="curve" smooth="yes"/>
      <point x="180" y="6"/>
      <point x="281" y="-24"/>
      <point x="352" y="-24" type="curve" smooth="yes"/>
      <point x="592" y="-24"/>
      <point x="708" y="159"/>
      <point x="708" y="301" type="curve" smooth="yes"/>
      <point x="708" y="617"/>
      <point x="205" y="609"/>
      <point x="205" y="811" type="curve" smooth="yes"/>
      <point x="205" y="872"/>
      <point x="255" y="951"/>
      <point x="373" y="951" type="curve" smooth="yes"/>
      <point x="434" y="951"/>
      <point x="508" y="927"/>
      <point x="567" y="856" type="curve"/>
    </contour>
  </outline>
</glyph>
<glyph name="T" format="2">
  <advance width="902"/>
  <unicode hex="0054"/>
  <anchor x="440" y="0" name="H"/>
  <anchor x="436" y="-80" name="L"/>
  <anchor x="436" y="1096" name="U"/>
  <outline>
    <contour>
      <point x="866" y="988" type="curve"/>
      <point x="842" y="1008" type="line"/>
      <point x="437" y="1008" type="line"/>
      <point x="414" y="936" type="line"/>
      <point x="732" y="936" type="line" smooth="yes"/>
      <point x="777" y="936"/>
      <point x="785" y="899"/>
      <point x="806" y="800" type="curve"/>
      <point x="842" y="800" type="line"/>
      <point x="855" y="867"/>
      <point x="864" y="933"/>
    </contour>
    <contour>
      <point x="137" y="936" type="curve" smooth="yes"/>
      <point x="558" y="936" type="line"/>
      <point x="536" y="1008" type="line"/>
      <point x="34" y="1008" type="line"/>
      <point x="23" y="952"/>
      <point x="12" y="873"/>
      <point x="8" y="811" type="curve"/>
      <point x="42" y="796" type="line"/>
      <point x="90" y="920"/>
      <point x="104" y="936"/>
    </contour>
    <contour>
      <point x="245" y="0" type="line"/>
      <point x="636" y="0" type="line"/>
      <point x="636" y="34" type="line"/>
      <point x="537" y="54"/>
      <point x="504" y="78"/>
      <point x="504" y="92" type="curve" smooth="yes"/>
      <point x="504" y="941" type="line" smooth="yes"/>
      <point x="504" y="956"/>
      <point x="547" y="958"/>
      <point x="619" y="973" type="curve"/>
      <point x="619" y="1008" type="line"/>
      <point x="260" y="1008" type="line"/>
      <point x="260" y="973" type="line"/>
      <point x="337" y="958"/>
      <point x="376" y="954"/>
      <point x="376" y="941" type="curve" smooth="yes"/>
      <point x="376" y="92" type="line" smooth="yes"/>
      <point x="376" y="76"/>
      <point x="344" y="54"/>
      <point x="245" y="34" type="curve"/>
    </contour>
  </outline>
</glyph>
<glyph name="U" format="2">
  <advance width="1071"/>
  <unicode hex="0055"/>
  <anchor x="541" y="0" name="H"/>
  <anchor x="541" y="-80" name="L"/>
  <anchor x="608" y="0" name="O"/>
  <anchor x="1064" y="880" name="R"/>
  <anchor x="541" y="1096" name="U"/>
  <outline>
    <contour>
      <point x="1020" y="973" type="curve"/>
      <point x="1020" y="1008" type="line"/>
      <point x="684" y="1008" type="line"/>
      <point x="684" y="973" type="line"/>
      <point x="760" y="958"/>
      <point x="800" y="936"/>
      <point x="800" y="924" type="curve" smooth="yes"/>
      <point x="800" y="386" type="line" smooth="yes"/>
      <point x="800" y="228"/>
      <point x="716" y="68"/>
      <point x="564" y="68" type="curve" smooth="yes"/>
      <point x="381" y="68"/>
      <point x="284" y="190"/>
      <point x="284" y="395" type="curve" smooth="yes"/>
      <point x="284" y="924" type="line" smooth="yes"/>
      <point x="284" y="939"/>
      <point x="328" y="958"/>
      <point x="400" y="973" type="curve"/>
      <point x="400" y="1008" type="line"/>
      <point x="40" y="1008" type="line"/>
      <point x="40" y="973" type="line"/>
      <point x="116" y="958"/>
      <point x="156" y="936"/>
      <point x="156" y="924" type="curve" smooth="yes"/>
      <point x="156" y="355" type="line" smooth="yes"/>
      <point x="156" y="95"/>
      <point x="312" y="-24"/>
      <point x="532" y="-24" type="curve" smooth="yes"/>
      <point x="763" y="-24"/>
      <point x="904" y="139"/>
      <point x="904" y="419" type="curve" smooth="yes"/>
      <point x="904" y="924" type="line" smooth="yes"/>
      <point x="904" y="939"/>
      <point x="948" y="958"/>
    </contour>
  </outline>
</glyph>
<glyph name="V" format="2">
  <advance width="1064"/>
  <unicode hex="0056"/>
  <anchor x="518" y="0" name="H"/>
  <anchor x="524" y="-80" name="L"/>
  <anchor x="492" y="0" name="O"/>
  <anchor x="532" y="1096" name="U"/>
  <outline>
    <contour>
      <point x="1032" y="973" type="curve"/>
      <point x="1032" y="1008" type="line"/>
      <point x="699" y="1008" type="line"/>
      <point x="699" y="973" type="line"/>
      <point x="786" y="963"/>
      <point x="824" y="952"/>
      <point x="812" y="920" type="curve" smooth="yes"/>
      <point x="544" y="162" type="line"/>
      <point x="261" y="922" type="line" smooth="yes"/>
      <point x="250" y="952"/>
      <point x="279" y="967"/>
      <point x="364" y="973" type="curve"/>
      <point x="364" y="1008" type="line"/>
      <point x="16" y="1008" type="line"/>
      <point x="16" y="973" type="line"/>
      <point x="83" y="964"/>
      <point x="119" y="948"/>
      <point x="129" y="920" type="curve" smooth="yes"/>
      <point x="481" y="-24" type="line"/>
      <point x="509" y="-17"/>
      <point x="584" y="0"/>
      <point x="601" y="47" type="curve" smooth="yes"/>
      <point x="908" y="920" type="line"/>
      <point x="918" y="950"/>
      <point x="960" y="960"/>
    </contour>
  </outline>
</glyph>
<glyph name="W" format="2">
  <advance width="1392"/>
  <unicode hex="0057"/>
  <anchor x="688" y="-80" name="L"/>
  <anchor x="688" y="1096" name="U"/>
  <outline>
    <contour>
      <point x="1361" y="973" type="curve"/>
      <point x="1361" y="1008" type="line"/>
      <point x="1022" y="1008" type="line"/>
      <point x="1022" y="973" type="line"/>
      <point x="1094" y="961"/>
      <point x="1150" y="948"/>
      <point x="1145" y="924" type="curve"/>
      <point x="996" y="200" type="line"/>
      <point x="712" y="1008" type="line"/>
      <point x="668" y="1008" type="line"/>
      <point x="409" y="200" type="line"/>
      <point x="250" y="917" type="line" smooth="yes"/>
      <point x="245" y="940"/>
      <point x="255" y="963"/>
      <point x="359" y="973" type="curve"/>
      <point x="359" y="1008" type="line"/>
      <point x="16" y="1008" type="line"/>
      <point x="16" y="973" type="line"/>
      <point x="92" y="960"/>
      <point x="120" y="944"/>
      <point x="126" y="917" type="curve" smooth="yes"/>
      <point x="334" y="-24" type="line"/>
      <point x="377" y="-14"/>
      <point x="440" y="1"/>
      <point x="455" y="47" type="curve" smooth="yes"/>
      <point x="684" y="755" type="line"/>
      <point x="945" y="-24" type="line"/>
      <point x="978" y="-16"/>
      <point x="1047" y="1"/>
      <point x="1056" y="47" type="curve" smooth="yes"/>
      <point x="1240" y="924" type="line" smooth="yes"/>
      <point x="1243" y="940"/>
      <point x="1267" y="954"/>
    </contour>
  </outline>
</glyph>
<glyph name="X" format="2">
  <advance width="1008"/>
  <unicode hex="0058"/>
  <anchor x="504" y="-80" name="L"/>
  <anchor x="504" y="1096" name="U"/>
  <outline>
    <contour>
      <point x="944" y="973" type="curve"/>
      <point x="944" y="1008" type="line"/>
      <point x="581" y="1008" type="line"/>
      <point x="581" y="973" type="line"/>
      <point x="676" y="966"/>
      <point x="716" y="953"/>
      <point x="686" y="906" type="curve" smooth="yes"/>
      <point x="462" y="545" type="line"/>
      <point x="501" y="428" type="line"/>
      <point x="797" y="906" type="line" smooth="yes"/>
      <point x="825" y="952"/>
      <point x="866" y="964"/>
    </contour>
    <contour>
      <point x="622" y="0" type="line"/>
      <point x="983" y="0" type="line"/>
      <point x="983" y="34" type="line"/>
      <point x="920" y="42"/>
      <point x="888" y="56"/>
      <point x="856" y="101" type="curve" smooth="yes"/>
      <point x="308" y="906" type="line" smooth="yes"/>
      <point x="276" y="952"/>
      <point x="303" y="964"/>
      <point x="393" y="973" type="curve"/>
      <point x="393" y="1008" type="line"/>
      <point x="32" y="1008" type="line"/>
      <point x="32" y="973" type="line"/>
      <point x="103" y="963"/>
      <point x="125" y="953"/>
      <point x="157" y="906" type="curve" smooth="yes"/>
      <point x="706" y="101" type="line" smooth="yes"/>
      <point x="736" y="58"/>
      <point x="716" y="44"/>
      <point x="622" y="34" type="curve"/>
    </contour>
    <contour>
      <point x="281" y="101" type="curve" smooth="yes"/>
      <point x="504" y="462" type="line"/>
      <point x="476" y="601" type="line"/>
      <point x="170" y="101" type="line" smooth="yes"/>
      <point x="143" y="57"/>
      <point x="93" y="39"/>
      <point x="24" y="34" type="curve"/>
      <point x="24" y="0" type="line"/>
      <point x="384" y="0" type="line"/>
      <point x="384" y="34" type="line"/>
      <point x="286" y="40"/>
      <point x="252" y="54"/>
    </contour>
  </outline>
</glyph>
<glyph name="Y" format="2">
  <advance width="973"/>
  <unicode hex="0059"/>
  <anchor x="483" y="-80" name="L"/>
  <anchor x="483" y="1096" name="U"/>
  <outline>
    <contour>
      <point x="940" y="973" type="curve"/>
      <point x="940" y="1008" type="line"/>
      <point x="624" y="1008" type="line"/>
      <point x="624" y="973" type="line"/>
      <point x="706" y="963"/>
      <point x="728" y="948"/>
      <point x="712" y="920" type="curve" smooth="yes"/>
      <point x="498" y="544" type="line"/>
      <point x="424" y="697"/>
      <point x="317" y="881"/>
      <point x="237" y="984" type="curve" smooth="yes"/>
      <point x="220" y="1005"/>
      <point x="198" y="1016"/>
      <point x="175" y="1016" type="curve" smooth="yes"/>
      <point x="131" y="1016"/>
      <point x="62" y="1008"/>
      <point x="0" y="999" type="curve"/>
      <point x="3" y="964" type="line"/>
      <point x="92" y="964"/>
      <point x="114" y="944"/>
      <point x="134" y="920" type="curve"/>
      <point x="214" y="811"/>
      <point x="360" y="568"/>
      <point x="436" y="391" type="curve"/>
      <point x="524" y="391" type="line"/>
      <point x="816" y="920" type="line" smooth="yes"/>
      <point x="831" y="948"/>
      <point x="868" y="960"/>
    </contour>
    <contour>
      <point x="288" y="0" type="line"/>
      <point x="680" y="0" type="line"/>
      <point x="680" y="34" type="line"/>
      <point x="580" y="54"/>
      <point x="547" y="78"/>
      <point x="547" y="92" type="curve" smooth="yes"/>
      <point x="547" y="509" type="line"/>
      <point x="419" y="509" type="line"/>
      <point x="419" y="92" type="line" smooth="yes"/>
      <point x="419" y="76"/>
      <point x="384" y="54"/>
      <point x="288" y="34" type="curve"/>
    </contour>
  </outline>
</glyph>
<glyph name="Z" format="2">
  <advance width="856"/>
  <unicode hex="005A"/>
  <anchor x="428" y="-80" name="L"/>
  <anchor x="444" y="1096" name="U"/>
  <outline>
    <contour>
      <point x="792" y="234" type="curve"/>
      <point x="748" y="245" type="line"/>
      <point x="708" y="114"/>
      <point x="684" y="80"/>
      <point x="639" y="80" type="curve" smooth="yes"/>
      <point x="220" y="80" type="line"/>
      <point x="784" y="973" type="line"/>
      <point x="764" y="1008" type="line"/>
      <point x="272" y="1008" type="line" smooth="yes"/>
      <point x="209" y="1008"/>
      <point x="178" y="1008"/>
      <point x="120" y="1020" type="curve"/>
      <point x="96" y="780" type="line"/>
      <point x="142" y="770" type="line"/>
      <point x="165" y="881"/>
      <point x="214" y="928"/>
      <point x="248" y="928" type="curve" smooth="yes"/>
      <point x="616" y="928" type="line"/>
      <point x="47" y="36" type="line"/>
      <point x="70" y="0" type="line"/>
      <point x="783" y="0" type="line"/>
      <point x="784" y="62"/>
      <point x="789" y="165"/>
    </contour>
  </outline>
</glyph>
<glyph name="bracketleft" format="2">
  <advance width="504"/>
  <unicode hex="005B"/>
  <outline>
    <contour>
      <point x="472" y="-199" type="curve"/>
      <point x="444" y="-176" type="line"/>
      <point x="224" y="-176" type="line"/>
      <point x="224" y="1188" type="line"/>
      <point x="448" y="1188" type="line"/>
      <point x="455" y="1200"/>
      <point x="465" y="1232"/>
      <point x="470" y="1259" type="curve"/>
      <point x="444" y="1280" type="line"/>
      <point x="112" y="1280" type="line"/>
      <point x="112" y="-268" type="line"/>
      <point x="448" y="-268" type="line"/>
      <point x="456" y="-249"/>
      <point x="467" y="-220"/>
    </contour>
  </outline>
</glyph>
<glyph name="backslash" format="2">
  <advance width="768"/>
  <unicode hex="005C"/>
  <outline>
    <contour>
      <point x="696" y="-268" type="curve"/>
      <point x="724" y="-248" type="line"/>
      <point x="164" y="1240" type="line"/>
      <point x="134" y="1259"/>
      <point x="104" y="1272"/>
      <point x="73" y="1280" type="curve"/>
      <point x="44" y="1262" type="line"/>
      <point x="604" y="-227" type="line"/>
      <point x="624" y="-241"/>
      <point x="670" y="-260"/>
    </contour>
  </outline>
</glyph>
<glyph name="bracketright" format="2">
  <advance width="504"/>
  <unicode hex="005D"/>
  <outline>
    <contour>
      <point x="60" y="-268" type="line"/>
      <point x="392" y="-268" type="line"/>
      <point x="392" y="1280" type="line"/>
      <point x="53" y="1280" type="line"/>
      <point x="46" y="1262"/>
      <point x="35" y="1232"/>
      <point x="32" y="1208" type="curve"/>
      <point x="60" y="1188" type="line"/>
      <point x="280" y="1188" type="line"/>
      <point x="280" y="-176" type="line"/>
      <point x="53" y="-176" type="line"/>
      <point x="46" y="-189"/>
      <point x="36" y="-220"/>
      <point x="33" y="-244" type="curve"/>
    </contour>
  </outline>
</glyph>
<glyph name="underscore" format="2">
  <advance width="641"/>
  <unicode hex="005F"/>
  <outline>
    <contour>
      <point x="664" y="-124" type="curve"/>
      <point x="646" y="-104" type="line"/>
      <point x="4" y="-104" type="line"/>
      <point x="-4" y="-126"/>
      <point x="-14" y="-154"/>
      <point x="-20" y="-175" type="curve"/>
      <point x="0" y="-196" type="line"/>
      <point x="641" y="-196" type="line"/>
      <point x="650" y="-176"/>
      <point x="660" y="-147"/>
    </contour>
  </outline>
</glyph>
<glyph name="grave" format="2">
  <advance width="522"/>
  <unicode hex="0060"/>
  <anchor x="261" y="1128" name="U"/>
  <outline>
    <contour>
      <point x="350" y="862" type="curve"/>
      <point x="158" y="1191" type="line"/>
      <point x="132" y="1188"/>
      <point x="62" y="1176"/>
      <point x="41" y="1172" type="curve"/>
      <point x="24" y="1139" type="line"/>
      <point x="305" y="837" type="line"/>
      <point x="324" y="843"/>
      <point x="340" y="854"/>
    </contour>
  </outline>
</glyph>
<glyph name="a" format="2">
  <advance width="752"/>
  <unicode hex="0061"/>
  <anchor x="356" y="0" name="H"/>
  <anchor x="368" y="-80" name="L"/>
  <anchor x="572" y="0" name="O"/>
  <anchor x="752" y="720" name="R"/>
  <anchor x="384" y="840" name="U"/>
  <outline>
    <contour>
      <point x="740" y="65" type="curve"/>
      <point x="728" y="101" type="line"/>
      <point x="686" y="84"/>
      <point x="665" y="80"/>
      <point x="650" y="80" type="curve" smooth="yes"/>
      <point x="631" y="80"/>
      <point x="618" y="97"/>
      <point x="618" y="142" type="curve" smooth="yes"/>
      <point x="618" y="593" type="line" smooth="yes"/>
      <point x="618" y="703"/>
      <point x="552" y="768"/>
      <point x="435" y="768" type="curve" smooth="yes"/>
      <point x="300" y="768"/>
      <point x="135" y="671"/>
      <point x="86" y="564" type="curve"/>
      <point x="97" y="533" type="line"/>
      <point x="124" y="527"/>
      <point x="236" y="559"/>
      <point x="233" y="579" type="curve" smooth="yes"/>
      <point x="227" y="643"/>
      <point x="295" y="686"/>
      <point x="364" y="688" type="curve" smooth="yes"/>
      <point x="468" y="691"/>
      <point x="498" y="633"/>
      <point x="498" y="561" type="curve" smooth="yes"/>
      <point x="498" y="131" type="line" smooth="yes"/>
      <point x="498" y="36"/>
      <point x="524" y="-24"/>
      <point x="561" y="-24" type="curve" smooth="yes"/>
      <point x="591" y="-24"/>
      <point x="650" y="3"/>
    </contour>
    <contour>
      <point x="506" y="390" type="curve"/>
      <point x="506" y="450" type="line"/>
      <point x="254" y="413"/>
      <point x="188" y="372"/>
      <point x="136" y="320" type="curve" smooth="yes"/>
      <point x="96" y="281"/>
      <point x="64" y="230"/>
      <point x="64" y="148" type="curve" smooth="yes"/>
      <point x="64" y="24"/>
      <point x="157" y="-24"/>
      <point x="234" y="-24" type="curve" smooth="yes"/>
      <point x="306" y="-24"/>
      <point x="412" y="21"/>
      <point x="512" y="129" type="curve"/>
      <point x="506" y="188" type="line"/>
      <point x="422" y="114"/>
      <point x="347" y="80"/>
      <point x="281" y="80" type="curve" smooth="yes"/>
      <point x="253" y="80"/>
      <point x="195" y="98"/>
      <point x="195" y="183" type="curve" smooth="yes"/>
      <point x="195" y="232"/>
      <point x="214" y="268"/>
      <point x="241" y="297" type="curve" smooth="yes"/>
      <point x="276" y="334"/>
      <point x="321" y="360"/>
    </contour>
  </outline>
</glyph>
<glyph name="b" format="2">
  <advance width="832"/>
  <unicode hex="0062"/>
  <anchor x="383" y="0" name="H"/>
  <anchor x="383" y="-80" name="L"/>
  <anchor x="854" y="720" name="R"/>
  <anchor x="416" y="1296" name="U"/>
  <outline>
    <contour>
      <point x="760" y="393" type="curve"/>
      <point x="760" y="627"/>
      <point x="655" y="768"/>
      <point x="509" y="768" type="curve" smooth="yes"/>
      <point x="448" y="768"/>
      <point x="338" y="709"/>
      <point x="232" y="581" type="curve"/>
      <point x="232" y="1212" type="line"/>
      <point x="223" y="1221"/>
      <point x="212" y="1231"/>
      <point x="202" y="1240" type="curve"/>
      <point x="141" y="1207"/>
      <point x="77" y="1192"/>
      <point x="8" y="1176" type="curve"/>
      <point x="8" y="1144" type="line"/>
      <point x="95" y="1133"/>
      <point x="112" y="1131"/>
      <point x="112" y="1036" type="curve" smooth="yes"/>
      <point x="112" y="76" type="line"/>
      <point x="227" y="12"/>
      <point x="334" y="-24"/>
      <point x="375" y="-24" type="curve" smooth="yes"/>
      <point x="611" y="-24"/>
      <point x="760" y="208"/>
    </contour>
    <contour>
      <point x="652" y="326" type="curve"/>
      <point x="652" y="203"/>
      <point x="583" y="80"/>
      <point x="453" y="80" type="curve" smooth="yes"/>
      <point x="416" y="80"/>
      <point x="316" y="98"/>
      <point x="232" y="162" type="curve"/>
      <point x="232" y="488" type="line"/>
      <point x="321" y="620"/>
      <point x="416" y="660"/>
      <point x="453" y="660" type="curve" smooth="yes"/>
      <point x="556" y="660"/>
      <point x="652" y="539"/>
    </contour>
  </outline>
</glyph>
<glyph name="c" format="2">
  <advance width="716"/>
  <unicode hex="0063"/>
  <anchor x="392" y="0" name="H"/>
  <anchor x="392" y="-80" name="L"/>
  <anchor x="758" y="720" name="R"/>
  <anchor x="392" y="840" name="U"/>
  <outline>
    <contour>
      <point x="672" y="152" type="curve"/>
      <point x="640" y="184" type="line"/>
      <point x="522" y="83"/>
      <point x="489" y="80"/>
      <point x="429" y="80" type="curve" smooth="yes"/>
      <point x="301" y="80"/>
      <point x="184" y="198"/>
      <point x="184" y="380" type="curve" smooth="yes"/>
      <point x="184" y="580"/>
      <point x="288" y="680"/>
      <point x="400" y="680" type="curve" smooth="yes"/>
      <point x="509" y="680"/>
      <point x="567" y="619"/>
      <point x="584" y="581" type="curve"/>
      <point x="614" y="573" type="line"/>
      <point x="634" y="603"/>
      <point x="664" y="678"/>
      <point x="660" y="704" type="curve"/>
      <point x="624" y="742"/>
      <point x="542" y="768"/>
      <point x="472" y="768" type="curve" smooth="yes"/>
      <point x="242" y="768"/>
      <point x="64" y="584"/>
      <point x="64" y="355" type="curve" smooth="yes"/>
      <point x="64" y="117"/>
      <point x="216" y="-24"/>
      <point x="372" y="-24" type="curve" smooth="yes"/>
      <point x="472" y="-24"/>
      <point x="532" y="-11"/>
    </contour>
  </outline>
</glyph>
<glyph name="d" format="2">
  <advance width="852"/>
  <unicode hex="0064"/>
  <anchor x="446" y="0" name="H"/>
  <anchor x="420" y="-80" name="L"/>
  <anchor x="852" y="720" name="R"/>
  <anchor x="268" y="840" name="U"/>
  <outline>
    <contour>
      <point x="840" y="67" type="curve"/>
      <point x="830" y="101" type="line"/>
      <point x="766" y="76"/>
      <point x="743" y="72"/>
      <point x="734" y="84" type="curve" smooth="yes"/>
      <point x="723" y="100"/>
      <point x="716" y="128"/>
      <point x="716" y="203" type="curve" smooth="yes"/>
      <point x="716" y="1216" type="line"/>
      <point x="691" y="1240" type="line"/>
      <point x="636" y="1221"/>
      <point x="567" y="1199"/>
      <point x="480" y="1188" type="curve"/>
      <point x="480" y="1156" type="line"/>
      <point x="592" y="1148"/>
      <point x="596" y="1136"/>
      <point x="596" y="1019" type="curve" smooth="yes"/>
      <point x="596" y="217" type="line" smooth="yes"/>
      <point x="596" y="39"/>
      <point x="620" y="-24"/>
      <point x="663" y="-24" type="curve" smooth="yes"/>
      <point x="692" y="-24"/>
      <point x="742" y="1"/>
    </contour>
    <contour>
      <point x="655" y="208" type="curve"/>
      <point x="650" y="216"/>
      <point x="639" y="231"/>
      <point x="625" y="237" type="curve"/>
      <point x="550" y="165"/>
      <point x="473" y="80"/>
      <point x="389" y="80" type="curve" smooth="yes"/>
      <point x="301" y="80"/>
      <point x="184" y="198"/>
      <point x="184" y="380" type="curve" smooth="yes"/>
      <point x="184" y="580"/>
      <point x="280" y="680"/>
      <point x="416" y="680" type="curve" smooth="yes"/>
      <point x="496" y="680"/>
      <point x="568" y="640"/>
      <point x="601" y="573" type="curve"/>
      <point x="636" y="594"/>
      <point x="648" y="608"/>
      <point x="648" y="672" type="curve"/>
      <point x="565" y="755"/>
      <point x="504" y="768"/>
      <point x="440" y="768" type="curve" smooth="yes"/>
      <point x="217" y="768"/>
      <point x="64" y="539"/>
      <point x="64" y="355" type="curve" smooth="yes"/>
      <point x="64" y="117"/>
      <point x="214" y="-24"/>
      <point x="332" y="-24" type="curve" smooth="yes"/>
      <point x="467" y="-24"/>
      <point x="547" y="67"/>
    </contour>
  </outline>
</glyph>
<glyph name="e" format="2">
  <advance width="756"/>
  <unicode hex="0065"/>
  <anchor x="400" y="0" name="H"/>
  <anchor x="400" y="-80" name="L"/>
  <anchor x="446" y="0" name="O"/>
  <anchor x="816" y="720" name="R"/>
  <anchor x="408" y="840" name="U"/>
  <outline>
    <contour>
      <point x="692" y="445" type="curve"/>
      <point x="692" y="581"/>
      <point x="628" y="768"/>
      <point x="419" y="768" type="curve" smooth="yes"/>
      <point x="362" y="768"/>
      <point x="288" y="737"/>
      <point x="240" y="704" type="curve" smooth="yes"/>
      <point x="129" y="628"/>
      <point x="64" y="491"/>
      <point x="64" y="347" type="curve" smooth="yes"/>
      <point x="64" y="121"/>
      <point x="208" y="-24"/>
      <point x="372" y="-24" type="curve" smooth="yes"/>
      <point x="481" y="-24"/>
      <point x="545" y="0"/>
      <point x="688" y="156" type="curve"/>
      <point x="683" y="164"/>
      <point x="672" y="181"/>
      <point x="658" y="188" type="curve"/>
      <point x="539" y="90"/>
      <point x="488" y="80"/>
      <point x="420" y="80" type="curve" smooth="yes"/>
      <point x="273" y="80"/>
      <point x="184" y="229"/>
      <point x="184" y="397" type="curve" smooth="yes"/>
      <point x="184" y="561"/>
      <point x="268" y="684"/>
      <point x="396" y="684" type="curve" smooth="yes"/>
      <point x="536" y="684"/>
      <point x="561" y="550"/>
      <point x="561" y="492" type="curve" smooth="yes"/>
      <point x="561" y="470"/>
      <point x="555" y="464"/>
      <point x="531" y="464" type="curve" smooth="yes"/>
      <point x="147" y="464" type="line"/>
      <point x="145" y="392" type="line"/>
      <point x="604" y="392" type="line"/>
      <point x="639" y="405"/>
      <point x="673" y="424"/>
    </contour>
  </outline>
</glyph>
<glyph name="f" format="2">
  <advance width="509"/>
  <unicode hex="0066"/>
  <anchor x="220" y="0" name="H"/>
  <anchor x="260" y="-80" name="L"/>
  <anchor x="336" y="1296" name="U"/>
  <outline>
    <contour>
      <point x="653" y="1163" type="curve"/>
      <point x="653" y="1181"/>
      <point x="568" y="1240"/>
      <point x="503" y="1240" type="curve" smooth="yes"/>
      <point x="462" y="1240"/>
      <point x="376" y="1212"/>
      <point x="319" y="1166" type="curve" smooth="yes"/>
      <point x="234" y="1097"/>
      <point x="160" y="1020"/>
      <point x="160" y="768" type="curve" smooth="yes"/>
      <point x="160" y="744" type="line"/>
      <point x="98" y="744" type="line"/>
      <point x="36" y="690" type="line"/>
      <point x="52" y="668" type="line"/>
      <point x="160" y="668" type="line"/>
      <point x="160" y="81" type="line" smooth="yes"/>
      <point x="160" y="68"/>
      <point x="120" y="47"/>
      <point x="48" y="34" type="curve"/>
      <point x="48" y="0" type="line"/>
      <point x="447" y="0" type="line"/>
      <point x="447" y="34" type="line"/>
      <point x="322" y="57"/>
      <point x="280" y="68"/>
      <point x="280" y="81" type="curve" smooth="yes"/>
      <point x="280" y="668" type="line"/>
      <point x="365" y="668"/>
      <point x="406" y="652"/>
      <point x="431" y="640" type="curve"/>
      <point x="450" y="649"/>
      <point x="489" y="691"/>
      <point x="509" y="720" type="curve"/>
      <point x="486" y="744" type="line"/>
      <point x="280" y="744" type="line"/>
      <point x="280" y="812" type="line" smooth="yes"/>
      <point x="280" y="1076"/>
      <point x="360" y="1140"/>
      <point x="416" y="1140" type="curve" smooth="yes"/>
      <point x="444" y="1140"/>
      <point x="501" y="1119"/>
      <point x="552" y="1074" type="curve"/>
      <point x="583" y="1089"/>
      <point x="653" y="1145"/>
    </contour>
  </outline>
</glyph>
<glyph name="g" format="2">
  <advance width="799"/>
  <unicode hex="0067"/>
  <anchor x="400" y="-376" name="H"/>
  <anchor x="400" y="-480" name="L"/>
  <anchor x="799" y="720" name="R"/>
  <anchor x="400" y="840" name="U"/>
  <outline>
    <contour>
      <point x="776" y="-96" type="curve" smooth="yes"/>
      <point x="776" y="-20"/>
      <point x="714" y="62"/>
      <point x="481" y="88" type="curve"/>
      <point x="314" y="108"/>
      <point x="276" y="131"/>
      <point x="276" y="156" type="curve" smooth="yes"/>
      <point x="276" y="165"/>
      <point x="307" y="216"/>
      <point x="403" y="280" type="curve"/>
      <point x="289" y="266" type="line"/>
      <point x="165" y="186"/>
      <point x="145" y="141"/>
      <point x="145" y="122" type="curve" smooth="yes"/>
      <point x="145" y="71"/>
      <point x="204" y="20"/>
      <point x="414" y="-3" type="curve" smooth="yes"/>
      <point x="608" y="-24"/>
      <point x="656" y="-66"/>
      <point x="656" y="-125" type="curve" smooth="yes"/>
      <point x="656" y="-236"/>
      <point x="561" y="-316"/>
      <point x="417" y="-316" type="curve" smooth="yes"/>
      <point x="272" y="-316"/>
      <point x="144" y="-241"/>
      <point x="144" y="-152" type="curve" smooth="yes"/>
      <point x="144" y="-116"/>
      <point x="159" y="-65"/>
      <point x="331" y="24" type="curve"/>
      <point x="326" y="45"/>
      <point x="267" y="48"/>
      <point x="267" y="48" type="curve"/>
      <point x="58" y="-58"/>
      <point x="24" y="-124"/>
      <point x="24" y="-183" type="curve" smooth="yes"/>
      <point x="24" y="-338"/>
      <point x="224" y="-400"/>
      <point x="373" y="-400" type="curve" smooth="yes"/>
      <point x="561" y="-400"/>
      <point x="776" y="-271"/>
    </contour>
    <contour>
      <point x="791" y="744" type="curve"/>
      <point x="775" y="768" type="line"/>
      <point x="725" y="749"/>
      <point x="648" y="720"/>
      <point x="508" y="712" type="curve"/>
      <point x="545" y="651" type="line"/>
      <point x="636" y="648"/>
      <point x="688" y="654"/>
      <point x="745" y="664" type="curve"/>
      <point x="770" y="690"/>
      <point x="778" y="714"/>
    </contour>
    <contour>
      <point x="664" y="512" type="curve" smooth="yes"/>
      <point x="664" y="651"/>
      <point x="544" y="768"/>
      <point x="388" y="768" type="curve" smooth="yes"/>
      <point x="232" y="768"/>
      <point x="80" y="638"/>
      <point x="80" y="481" type="curve" smooth="yes"/>
      <point x="80" y="332"/>
      <point x="193" y="236"/>
      <point x="347" y="236" type="curve" smooth="yes"/>
      <point x="503" y="236"/>
      <point x="664" y="349"/>
    </contour>
    <contour>
      <point x="552" y="480" type="curve" smooth="yes"/>
      <point x="552" y="374"/>
      <point x="473" y="320"/>
      <point x="411" y="320" type="curve" smooth="yes"/>
      <point x="260" y="320"/>
      <point x="192" y="413"/>
      <point x="192" y="527" type="curve" smooth="yes"/>
      <point x="192" y="632"/>
      <point x="280" y="688"/>
      <point x="332" y="688" type="curve" smooth="yes"/>
      <point x="476" y="688"/>
      <point x="552" y="593"/>
    </contour>
  </outline>
</glyph>
<glyph name="h" format="2">
  <advance width="904"/>
  <unicode hex="0068"/>
  <anchor x="205" y="0" name="H"/>
  <anchor x="461" y="-80" name="L"/>
  <anchor x="461" y="1296" name="U"/>
  <outline>
    <contour>
      <point x="536" y="0" type="line"/>
      <point x="880" y="0" type="line"/>
      <point x="880" y="34" type="line"/>
      <point x="796" y="56"/>
      <point x="768" y="68"/>
      <point x="768" y="83" type="curve" smooth="yes"/>
      <point x="768" y="592" type="line" smooth="yes"/>
      <point x="768" y="712"/>
      <point x="683" y="768"/>
      <point x="591" y="768" type="curve" smooth="yes"/>
      <point x="508" y="768"/>
      <point x="368" y="683"/>
      <point x="276" y="547" type="curve"/>
      <point x="276" y="1212" type="line"/>
      <point x="246" y="1240" type="line"/>
      <point x="185" y="1208"/>
      <point x="134" y="1192"/>
      <point x="44" y="1176" type="curve"/>
      <point x="44" y="1144" type="line"/>
      <point x="147" y="1132"/>
      <point x="156" y="1127"/>
      <point x="156" y="1038" type="curve" smooth="yes"/>
      <point x="156" y="83" type="line" smooth="yes"/>
      <point x="156" y="65"/>
      <point x="114" y="52"/>
      <point x="44" y="34" type="curve"/>
      <point x="44" y="0" type="line"/>
      <point x="388" y="0" type="line"/>
      <point x="388" y="34" type="line"/>
      <point x="319" y="48"/>
      <point x="276" y="67"/>
      <point x="276" y="83" type="curve" smooth="yes"/>
      <point x="276" y="439" type="line"/>
      <point x="368" y="588"/>
      <point x="472" y="664"/>
      <point x="545" y="664" type="curve" smooth="yes"/>
      <point x="616" y="664"/>
      <point x="648" y="636"/>
      <point x="648" y="506" type="curve" smooth="yes"/>
      <point x="648" y="83" type="line" smooth="yes"/>
      <point x="648" y="68"/>
      <point x="612" y="54"/>
      <point x="536" y="34" type="curve"/>
    </contour>
  </outline>
</glyph>
<glyph name="i" format="2">
  <advance width="444"/>
  <unicode hex="0069"/>
  <anchor x="228" y="0" name="H"/>
  <anchor x="228" y="-80" name="L"/>
  <anchor x="268" y="0" name="O"/>
  <anchor x="444" y="720" name="R"/>
  <anchor x="228" y="840" name="U"/>
  <outline>
    <contour>
      <point x="312" y="1008" type="curve" smooth="yes"/>
      <point x="312" y="1058"/>
      <point x="289" y="1084"/>
      <point x="244" y="1084" type="curve" smooth="yes"/>
      <point x="193" y="1084"/>
      <point x="152" y="1036"/>
      <point x="152" y="976" type="curve" smooth="yes"/>
      <point x="152" y="927"/>
      <point x="172" y="899"/>
      <point x="219" y="899" type="curve" smooth="yes"/>
      <point x="272" y="899"/>
      <point x="312" y="948"/>
    </contour>
    <contour>
      <point x="56" y="0" type="line"/>
      <point x="400" y="0" type="line"/>
      <point x="400" y="34" type="line"/>
      <point x="322" y="48"/>
      <point x="288" y="70"/>
      <point x="288" y="83" type="curve" smooth="yes"/>
      <point x="288" y="768" type="line"/>
      <point x="260" y="768" type="line"/>
      <point x="206" y="741"/>
      <point x="123" y="716"/>
      <point x="56" y="704" type="curve"/>
      <point x="56" y="672" type="line"/>
      <point x="167" y="661"/>
      <point x="168" y="645"/>
      <point x="168" y="536" type="curve" smooth="yes"/>
      <point x="168" y="83" type="line" smooth="yes"/>
      <point x="168" y="68"/>
      <point x="128" y="48"/>
      <point x="56" y="34" type="curve"/>
    </contour>
  </outline>
</glyph>
<glyph name="j" format="2">
  <advance width="424"/>
  <unicode hex="006A"/>
  <anchor x="224" y="-480" name="L"/>
  <anchor x="224" y="840" name="U"/>
  <outline>
    <contour>
      <point x="308" y="1008" type="curve" smooth="yes"/>
      <point x="308" y="1058"/>
      <point x="285" y="1084"/>
      <point x="240" y="1084" type="curve" smooth="yes"/>
      <point x="188" y="1084"/>
      <point x="148" y="1036"/>
      <point x="148" y="976" type="curve" smooth="yes"/>
      <point x="148" y="927"/>
      <point x="168" y="899"/>
      <point x="216" y="899" type="curve" smooth="yes"/>
      <point x="268" y="899"/>
      <point x="308" y="948"/>
    </contour>
    <contour>
      <point x="284" y="79" type="curve" smooth="yes"/>
      <point x="284" y="768" type="line"/>
      <point x="254" y="768" type="line"/>
      <point x="188" y="740"/>
      <point x="140" y="720"/>
      <point x="52" y="704" type="curve"/>
      <point x="52" y="672" type="line"/>
      <point x="163" y="660"/>
      <point x="164" y="645"/>
      <point x="164" y="536" type="curve" smooth="yes"/>
      <point x="164" y="34" type="line" smooth="yes"/>
      <point x="164" y="-224"/>
      <point x="97" y="-292"/>
      <point x="36" y="-292" type="curve" smooth="yes"/>
      <point x="-4" y="-292"/>
      <point x="-40" y="-285"/>
      <point x="-74" y="-256" type="curve"/>
      <point x="-105" y="-270"/>
      <point x="-176" y="-326"/>
      <point x="-176" y="-344" type="curve" smooth="yes"/>
      <point x="-176" y="-362"/>
      <point x="-108" y="-400"/>
      <point x="-43" y="-400" type="curve" smooth="yes"/>
      <point x="-2" y="-400"/>
      <point x="75" y="-365"/>
      <point x="132" y="-320" type="curve" smooth="yes"/>
      <point x="217" y="-251"/>
      <point x="284" y="-166"/>
    </contour>
  </outline>
</glyph>
<glyph name="k" format="2">
  <advance width="799"/>
  <unicode hex="006B"/>
  <anchor x="200" y="0" name="H"/>
  <anchor x="411" y="-80" name="L"/>
  <anchor x="799" y="720" name="R"/>
  <anchor x="411" y="1296" name="U"/>
  <outline>
    <contour>
      <point x="771" y="709" type="curve"/>
      <point x="771" y="744" type="line"/>
      <point x="468" y="744" type="line"/>
      <point x="468" y="709" type="line"/>
      <point x="524" y="709"/>
      <point x="572" y="700"/>
      <point x="502" y="639" type="curve" smooth="yes"/>
      <point x="252" y="420" type="line"/>
      <point x="313" y="396" type="line"/>
      <point x="643" y="660" type="line" smooth="yes"/>
      <point x="688" y="696"/>
      <point x="724" y="704"/>
    </contour>
    <contour>
      <point x="24" y="0" type="line"/>
      <point x="344" y="0" type="line"/>
      <point x="344" y="34" type="line"/>
      <point x="264" y="59"/>
      <point x="256" y="67"/>
      <point x="256" y="83" type="curve" smooth="yes"/>
      <point x="256" y="1212" type="line"/>
      <point x="226" y="1240" type="line"/>
      <point x="172" y="1208"/>
      <point x="97" y="1191"/>
      <point x="24" y="1176" type="curve"/>
      <point x="24" y="1144" type="line"/>
      <point x="116" y="1133"/>
      <point x="136" y="1131"/>
      <point x="136" y="1036" type="curve" smooth="yes"/>
      <point x="136" y="83" type="line" smooth="yes"/>
      <point x="136" y="64"/>
      <point x="94" y="52"/>
      <point x="24" y="34" type="curve"/>
    </contour>
    <contour>
      <point x="799" y="14" type="curve"/>
      <point x="794" y="48" type="line"/>
      <point x="732" y="44"/>
      <point x="700" y="54"/>
      <point x="671" y="88" type="curve" smooth="yes"/>
      <point x="336" y="481" type="line"/>
      <point x="253" y="420" type="line"/>
      <point x="560" y="34" type="line" smooth="yes"/>
      <point x="584" y="3"/>
      <point x="607" y="-8"/>
      <point x="652" y="-8" type="curve" smooth="yes"/>
      <point x="674" y="-8"/>
      <point x="736" y="0"/>
    </contour>
  </outline>
</glyph>
<glyph name="l" format="2">
  <advance width="444"/>
  <unicode hex="006C"/>
  <anchor x="228" y="0" name="H"/>
  <anchor x="228" y="-80" name="L"/>
  <anchor x="428" y="720" name="R"/>
  <anchor x="228" y="1352" name="U"/>
  <outline>
    <contour>
      <point x="48" y="0" type="line"/>
      <point x="408" y="0" type="line"/>
      <point x="408" y="34" type="line"/>
      <point x="320" y="48"/>
      <point x="288" y="67"/>
      <point x="288" y="83" type="curve" smooth="yes"/>
      <point x="288" y="1212" type="line"/>
      <point x="259" y="1240" type="line"/>
      <point x="193" y="1205"/>
      <point x="132" y="1191"/>
      <point x="56" y="1176" type="curve"/>
      <point x="56" y="1144" type="line"/>
      <point x="145" y="1133"/>
      <point x="168" y="1130"/>
      <point x="168" y="1036" type="curve" smooth="yes"/>
      <point x="168" y="83" type="line" smooth="yes"/>
      <point x="168" y="65"/>
      <point x="140" y="50"/>
      <point x="48" y="34" type="curve"/>
    </contour>
  </outline>
</glyph>
<glyph name="m" format="2">
  <advance width="1316"/>
  <unicode hex="006D"/>
  <anchor x="1120" y="0" name="H"/>
  <anchor x="668" y="-80" name="L"/>
  <anchor x="668" y="840" name="U"/>
  <outline>
    <contour>
      <point x="948" y="0" type="line"/>
      <point x="1292" y="0" type="line"/>
      <point x="1292" y="34" type="line"/>
      <point x="1208" y="56"/>
      <point x="1180" y="68"/>
      <point x="1180" y="83" type="curve" smooth="yes"/>
      <point x="1180" y="592" type="line" smooth="yes"/>
      <point x="1180" y="712"/>
      <point x="1104" y="768"/>
      <point x="1002" y="768" type="curve" smooth="yes"/>
      <point x="924" y="768"/>
      <point x="817" y="696"/>
      <point x="728" y="563" type="curve"/>
      <point x="728" y="580" type="line" smooth="yes"/>
      <point x="728" y="722"/>
      <point x="652" y="768"/>
      <point x="550" y="768" type="curve" smooth="yes"/>
      <point x="473" y="768"/>
      <point x="368" y="698"/>
      <point x="272" y="556" type="curve"/>
      <point x="264" y="740" type="line"/>
      <point x="236" y="768" type="line"/>
      <point x="178" y="740"/>
      <point x="124" y="716"/>
      <point x="44" y="704" type="curve"/>
      <point x="44" y="672" type="line"/>
      <point x="147" y="660"/>
      <point x="156" y="653"/>
      <point x="156" y="568" type="curve" smooth="yes"/>
      <point x="156" y="83" type="line" smooth="yes"/>
      <point x="156" y="65"/>
      <point x="114" y="52"/>
      <point x="44" y="34" type="curve"/>
      <point x="44" y="0" type="line"/>
      <point x="388" y="0" type="line"/>
      <point x="388" y="34" type="line"/>
      <point x="319" y="48"/>
      <point x="276" y="67"/>
      <point x="276" y="83" type="curve" smooth="yes"/>
      <point x="276" y="458" type="line"/>
      <point x="366" y="592"/>
      <point x="445" y="672"/>
      <point x="517" y="672" type="curve" smooth="yes"/>
      <point x="583" y="672"/>
      <point x="608" y="637"/>
      <point x="608" y="506" type="curve" smooth="yes"/>
      <point x="608" y="83" type="line" smooth="yes"/>
      <point x="608" y="68"/>
      <point x="573" y="54"/>
      <point x="496" y="34" type="curve"/>
      <point x="496" y="0" type="line"/>
      <point x="840" y="0" type="line"/>
      <point x="840" y="34" type="line"/>
      <point x="756" y="56"/>
      <point x="728" y="68"/>
      <point x="728" y="83" type="curve" smooth="yes"/>
      <point x="728" y="458" type="line"/>
      <point x="808" y="591"/>
      <point x="899" y="672"/>
      <point x="969" y="672" type="curve" smooth="yes"/>
      <point x="1033" y="672"/>
      <point x="1060" y="637"/>
      <point x="1060" y="506" type="curve" smooth="yes"/>
      <point x="1060" y="83" type="line" smooth="yes"/>
      <point x="1060" y="68"/>
      <point x="1025" y="54"/>
      <point x="948" y="34" type="curve"/>
    </contour>
  </outline>
</glyph>
<glyph name="n" format="2">
  <advance width="904"/>
  <unicode hex="006E"/>
  <anchor x="708" y="0" name="H"/>
  <anchor x="461" y="-80" name="L"/>
  <anchor x="461" y="840" name="U"/>
  <outline>
    <contour>
      <point x="536" y="0" type="line"/>
      <point x="880" y="0" type="line"/>
      <point x="880" y="34" type="line"/>
      <point x="796" y="56"/>
      <point x="768" y="68"/>
      <point x="768" y="83" type="curve" smooth="yes"/>
      <point x="768" y="592" type="line" smooth="yes"/>
      <point x="768" y="712"/>
      <point x="683" y="768"/>
      <point x="591" y="768" type="curve" smooth="yes"/>
      <point x="508" y="768"/>
      <point x="366" y="683"/>
      <point x="272" y="540" type="curve"/>
      <point x="264" y="740" type="line"/>
      <point x="236" y="768" type="line"/>
      <point x="176" y="738"/>
      <point x="116" y="715"/>
      <point x="44" y="704" type="curve"/>
      <point x="44" y="672" type="line"/>
      <point x="152" y="660"/>
      <point x="156" y="652"/>
      <point x="156" y="568" type="curve" smooth="yes"/>
      <point x="156" y="83" type="line" smooth="yes"/>
      <point x="156" y="65"/>
      <point x="114" y="52"/>
      <point x="44" y="34" type="curve"/>
      <point x="44" y="0" type="line"/>
      <point x="388" y="0" type="line"/>
      <point x="388" y="34" type="line"/>
      <point x="319" y="48"/>
      <point x="276" y="67"/>
      <point x="276" y="83" type="curve" smooth="yes"/>
      <point x="276" y="439" type="line"/>
      <point x="379" y="604"/>
      <point x="480" y="664"/>
      <point x="545" y="664" type="curve" smooth="yes"/>
      <point x="620" y="664"/>
      <point x="648" y="636"/>
      <point x="648" y="506" type="curve" smooth="yes"/>
      <point x="648" y="83" type="line" smooth="yes"/>
      <point x="648" y="68"/>
      <point x="612" y="54"/>
      <point x="536" y="34" type="curve"/>
    </contour>
  </outline>
</glyph>
<glyph name="o" format="2">
  <advance width="824"/>
  <unicode hex="006F"/>
  <anchor x="428" y="0" name="H"/>
  <anchor x="428" y="-80" name="L"/>
  <anchor x="460" y="0" name="O"/>
  <anchor x="835" y="720" name="R"/>
  <anchor x="428" y="840" name="U"/>
  <outline>
    <contour>
      <point x="760" y="388" type="curve" smooth="yes"/>
      <point x="760" y="606"/>
      <point x="628" y="768"/>
      <point x="428" y="768" type="curve" smooth="yes"/>
      <point x="228" y="768"/>
      <point x="64" y="567"/>
      <point x="64" y="355" type="curve" smooth="yes"/>
      <point x="64" y="137"/>
      <point x="195" y="-24"/>
      <point x="396" y="-24" type="curve" smooth="yes"/>
      <point x="591" y="-24"/>
      <point x="760" y="175"/>
    </contour>
    <contour>
      <point x="636" y="364" type="curve" smooth="yes"/>
      <point x="636" y="181"/>
      <point x="570" y="64"/>
      <point x="419" y="64" type="curve" smooth="yes"/>
      <point x="320" y="64"/>
      <point x="188" y="209"/>
      <point x="188" y="378" type="curve" smooth="yes"/>
      <point x="188" y="548"/>
      <point x="242" y="680"/>
      <point x="404" y="680" type="curve" smooth="yes"/>
      <point x="514" y="680"/>
      <point x="636" y="532"/>
    </contour>
  </outline>
</glyph>
<glyph name="p" format="2">
  <advance width="868"/>
  <unicode hex="0070"/>
  <anchor x="214" y="-384" name="H"/>
  <anchor x="423" y="-480" name="L"/>
  <anchor x="899" y="720" name="R"/>
  <anchor x="423" y="840" name="U"/>
  <outline>
    <contour>
      <point x="498" y="-24" type="curve" smooth="yes"/>
      <point x="654" y="-24"/>
      <point x="804" y="208"/>
      <point x="804" y="393" type="curve" smooth="yes"/>
      <point x="804" y="627"/>
      <point x="697" y="768"/>
      <point x="552" y="768" type="curve" smooth="yes"/>
      <point x="491" y="768"/>
      <point x="377" y="709"/>
      <point x="271" y="581" type="curve"/>
      <point x="264" y="740" type="line"/>
      <point x="236" y="768" type="line"/>
      <point x="173" y="738"/>
      <point x="117" y="720"/>
      <point x="44" y="704" type="curve"/>
      <point x="44" y="672" type="line"/>
      <point x="145" y="667"/>
      <point x="156" y="648"/>
      <point x="156" y="568" type="curve" smooth="yes"/>
      <point x="156" y="-300" type="line" smooth="yes"/>
      <point x="156" y="-318"/>
      <point x="114" y="-332"/>
      <point x="44" y="-349" type="curve"/>
      <point x="44" y="-384" type="line"/>
      <point x="411" y="-384" type="line"/>
      <point x="411" y="-349" type="line"/>
      <point x="311" y="-334"/>
      <point x="276" y="-316"/>
      <point x="276" y="-300" type="curve" smooth="yes"/>
      <point x="276" y="78" type="line"/>
      <point x="351" y="12"/>
      <point x="436" y="-24"/>
    </contour>
    <contour>
      <point x="498" y="668" type="curve" smooth="yes"/>
      <point x="601" y="668"/>
      <point x="696" y="527"/>
      <point x="696" y="340" type="curve" smooth="yes"/>
      <point x="696" y="170"/>
      <point x="611" y="80"/>
      <point x="496" y="80" type="curve" smooth="yes"/>
      <point x="439" y="80"/>
      <point x="371" y="98"/>
      <point x="276" y="170" type="curve"/>
      <point x="276" y="488" type="line"/>
      <point x="369" y="625"/>
      <point x="460" y="668"/>
    </contour>
  </outline>
</glyph>
<glyph name="q" format="2">
  <advance width="844"/>
  <unicode hex="0071"/>
  <anchor x="445" y="-480" name="L"/>
  <anchor x="864" y="720" name="R"/>
  <anchor x="445" y="840" name="U"/>
  <outline>
    <contour>
      <point x="460" y="-384" type="line"/>
      <point x="827" y="-384" type="line"/>
      <point x="827" y="-349" type="line"/>
      <point x="745" y="-334"/>
      <point x="716" y="-316"/>
      <point x="716" y="-300" type="curve" smooth="yes"/>
      <point x="716" y="573" type="line" smooth="yes"/>
      <point x="716" y="670"/>
      <point x="740" y="744"/>
      <point x="740" y="744" type="curve"/>
      <point x="716" y="768" type="line"/>
      <point x="689" y="741"/>
      <point x="630" y="689"/>
      <point x="596" y="678" type="curve"/>
      <point x="596" y="-300" type="line" smooth="yes"/>
      <point x="596" y="-318"/>
      <point x="560" y="-334"/>
      <point x="460" y="-349" type="curve"/>
    </contour>
    <contour>
      <point x="655" y="208" type="curve"/>
      <point x="650" y="216"/>
      <point x="639" y="231"/>
      <point x="625" y="237" type="curve"/>
      <point x="550" y="165"/>
      <point x="473" y="80"/>
      <point x="389" y="80" type="curve" smooth="yes"/>
      <point x="301" y="80"/>
      <point x="184" y="198"/>
      <point x="184" y="380" type="curve" smooth="yes"/>
      <point x="184" y="580"/>
      <point x="296" y="680"/>
      <point x="416" y="680" type="curve" smooth="yes"/>
      <point x="496" y="680"/>
      <point x="568" y="640"/>
      <point x="601" y="573" type="curve"/>
      <point x="636" y="594"/>
      <point x="648" y="608"/>
      <point x="648" y="672" type="curve"/>
      <point x="565" y="755"/>
      <point x="504" y="768"/>
      <point x="440" y="768" type="curve" smooth="yes"/>
      <point x="400" y="768"/>
      <point x="336" y="748"/>
      <point x="275" y="716" type="curve" smooth="yes"/>
      <point x="200" y="673"/>
      <point x="64" y="542"/>
      <point x="64" y="355" type="curve" smooth="yes"/>
      <point x="64" y="117"/>
      <point x="214" y="-24"/>
      <point x="332" y="-24" type="curve" smooth="yes"/>
      <point x="467" y="-24"/>
      <point x="547" y="67"/>
    </contour>
  </outline>
</glyph>
<glyph name="r" format="2">
  <advance width="648"/>
  <unicode hex="0072"/>
  <anchor x="216" y="0" name="H"/>
  <anchor x="216" y="-80" name="L"/>
  <anchor x="360" y="840" name="U"/>
  <outline>
    <contour>
      <point x="616" y="738" type="curve" smooth="yes"/>
      <point x="577" y="760"/>
      <point x="536" y="768"/>
      <point x="501" y="768" type="curve" smooth="yes"/>
      <point x="409" y="768"/>
      <point x="332" y="676"/>
      <point x="274" y="558" type="curve"/>
      <point x="264" y="740" type="line"/>
      <point x="236" y="768" type="line"/>
      <point x="183" y="738"/>
      <point x="112" y="720"/>
      <point x="44" y="704" type="curve"/>
      <point x="44" y="672" type="line"/>
      <point x="103" y="668"/>
      <point x="123" y="664"/>
      <point x="137" y="650" type="curve" smooth="yes"/>
      <point x="147" y="640"/>
      <point x="156" y="619"/>
      <point x="156" y="548" type="curve" smooth="yes"/>
      <point x="156" y="83" type="line" smooth="yes"/>
      <point x="156" y="65"/>
      <point x="114" y="50"/>
      <point x="44" y="34" type="curve"/>
      <point x="44" y="0" type="line"/>
      <point x="411" y="0" type="line"/>
      <point x="411" y="34" type="line"/>
      <point x="311" y="48"/>
      <point x="276" y="67"/>
      <point x="276" y="83" type="curve" smooth="yes"/>
      <point x="276" y="396" type="line"/>
      <point x="327" y="578"/>
      <point x="411" y="656"/>
      <point x="458" y="656" type="curve" smooth="yes"/>
      <point x="498" y="656"/>
      <point x="534" y="627"/>
      <point x="547" y="540" type="curve"/>
      <point x="581" y="540" type="line"/>
      <point x="608" y="598"/>
      <point x="636" y="726"/>
    </contour>
  </outline>
</glyph>
<glyph name="s" format="2">
  <advance width="632"/>
  <unicode hex="0073"/>
  <anchor x="308" y="0" name="H"/>
  <anchor x="317" y="-80" name="L"/>
  <anchor x="317" y="840" name="U"/>
  <outline>
    <contour>
      <point x="560" y="226" type="curve" smooth="yes"/>
      <point x="560" y="345"/>
      <point x="456" y="399"/>
      <point x="364" y="447" type="curve" smooth="yes"/>
      <point x="274" y="493"/>
      <point x="187" y="531"/>
      <point x="187" y="600" type="curve" smooth="yes"/>
      <point x="187" y="644"/>
      <point x="229" y="696"/>
      <point x="300" y="696" type="curve" smooth="yes"/>
      <point x="352" y="696"/>
      <point x="409" y="668"/>
      <point x="460" y="592" type="curve"/>
      <point x="491" y="586" type="line"/>
      <point x="504" y="603"/>
      <point x="544" y="694"/>
      <point x="531" y="706" type="curve" smooth="yes"/>
      <point x="488" y="744"/>
      <point x="388" y="768"/>
      <point x="320" y="768" type="curve" smooth="yes"/>
      <point x="200" y="768"/>
      <point x="83" y="692"/>
      <point x="83" y="560" type="curve" smooth="yes"/>
      <point x="83" y="458"/>
      <point x="168" y="405"/>
      <point x="257" y="359" type="curve" smooth="yes"/>
      <point x="355" y="308"/>
      <point x="456" y="267"/>
      <point x="456" y="181" type="curve" smooth="yes"/>
      <point x="456" y="106"/>
      <point x="401" y="56"/>
      <point x="324" y="56" type="curve" smooth="yes"/>
      <point x="214" y="56"/>
      <point x="129" y="128"/>
      <point x="124" y="217" type="curve"/>
      <point x="90" y="226" type="line"/>
      <point x="75" y="178"/>
      <point x="71" y="42"/>
      <point x="84" y="34" type="curve" smooth="yes"/>
      <point x="156" y="-5"/>
      <point x="234" y="-24"/>
      <point x="284" y="-24" type="curve" smooth="yes"/>
      <point x="347" y="-24"/>
      <point x="560" y="0"/>
    </contour>
  </outline>
</glyph>
<glyph name="t" format="2">
  <advance width="564"/>
  <unicode hex="0074"/>
  <anchor x="278" y="0" name="H"/>
  <anchor x="278" y="-80" name="L"/>
  <anchor x="400" y="720" name="R"/>
  <anchor x="278" y="1056" name="U"/>
  <outline>
    <contour>
      <point x="540" y="93" type="curve"/>
      <point x="517" y="134" type="line"/>
      <point x="434" y="92"/>
      <point x="380" y="80"/>
      <point x="342" y="80" type="curve" smooth="yes"/>
      <point x="278" y="80"/>
      <point x="256" y="117"/>
      <point x="256" y="245" type="curve" smooth="yes"/>
      <point x="256" y="668" type="line"/>
      <point x="297" y="668" type="line" smooth="yes"/>
      <point x="384" y="668"/>
      <point x="434" y="652"/>
      <point x="460" y="640" type="curve"/>
      <point x="481" y="649"/>
      <point x="520" y="691"/>
      <point x="540" y="720" type="curve"/>
      <point x="517" y="744" type="line"/>
      <point x="256" y="744" type="line"/>
      <point x="256" y="1004" type="line"/>
      <point x="231" y="1024" type="line"/>
      <point x="136" y="940" type="line"/>
      <point x="136" y="744" type="line"/>
      <point x="78" y="744" type="line"/>
      <point x="16" y="690" type="line"/>
      <point x="32" y="668" type="line"/>
      <point x="136" y="668" type="line"/>
      <point x="136" y="176" type="line" smooth="yes"/>
      <point x="136" y="28"/>
      <point x="201" y="-24"/>
      <point x="275" y="-24" type="curve" smooth="yes"/>
      <point x="331" y="-24"/>
      <point x="436" y="16"/>
    </contour>
  </outline>
</glyph>
<glyph name="u" format="2">
  <advance width="868"/>
  <unicode hex="0075"/>
  <anchor x="436" y="0" name="H"/>
  <anchor x="436" y="-80" name="L"/>
  <anchor x="688" y="0" name="O"/>
  <anchor x="867" y="720" name="R"/>
  <anchor x="436" y="840" name="U"/>
  <outline>
    <contour>
      <point x="855" y="65" type="curve"/>
      <point x="847" y="101" type="line"/>
      <point x="792" y="78"/>
      <point x="762" y="74"/>
      <point x="750" y="83" type="curve" smooth="yes"/>
      <point x="736" y="93"/>
      <point x="732" y="137"/>
      <point x="732" y="203" type="curve" smooth="yes"/>
      <point x="732" y="736" type="line"/>
      <point x="708" y="768" type="line"/>
      <point x="648" y="748"/>
      <point x="576" y="724"/>
      <point x="500" y="715" type="curve"/>
      <point x="500" y="683" type="line"/>
      <point x="598" y="678"/>
      <point x="612" y="664"/>
      <point x="612" y="568" type="curve" smooth="yes"/>
      <point x="612" y="209" type="line"/>
      <point x="518" y="109"/>
      <point x="447" y="72"/>
      <point x="378" y="72" type="curve" smooth="yes"/>
      <point x="301" y="72"/>
      <point x="256" y="117"/>
      <point x="256" y="267" type="curve" smooth="yes"/>
      <point x="256" y="736" type="line"/>
      <point x="233" y="768" type="line"/>
      <point x="163" y="740"/>
      <point x="109" y="724"/>
      <point x="32" y="715" type="curve"/>
      <point x="32" y="683" type="line"/>
      <point x="131" y="673"/>
      <point x="136" y="670"/>
      <point x="136" y="568" type="curve" smooth="yes"/>
      <point x="136" y="223" type="line" smooth="yes"/>
      <point x="136" y="23"/>
      <point x="227" y="-24"/>
      <point x="326" y="-24" type="curve" smooth="yes"/>
      <point x="394" y="-24"/>
      <point x="479" y="0"/>
      <point x="612" y="132" type="curve"/>
      <point x="618" y="23"/>
      <point x="642" y="-24"/>
      <point x="680" y="-24" type="curve" smooth="yes"/>
      <point x="706" y="-24"/>
      <point x="776" y="14"/>
    </contour>
  </outline>
</glyph>
<glyph name="v" format="2">
  <advance width="808"/>
  <unicode hex="0076"/>
  <anchor x="399" y="0" name="H"/>
  <anchor x="412" y="-80" name="L"/>
  <anchor x="368" y="0" name="O"/>
  <anchor x="428" y="840" name="U"/>
  <outline>
    <contour>
      <point x="791" y="709" type="curve"/>
      <point x="791" y="744" type="line"/>
      <point x="532" y="744" type="line"/>
      <point x="532" y="709" type="line"/>
      <point x="611" y="697"/>
      <point x="627" y="687"/>
      <point x="616" y="655" type="curve" smooth="yes"/>
      <point x="431" y="142" type="line"/>
      <point x="234" y="655" type="line" smooth="yes"/>
      <point x="220" y="689"/>
      <point x="242" y="699"/>
      <point x="324" y="709" type="curve"/>
      <point x="324" y="744" type="line"/>
      <point x="16" y="744" type="line"/>
      <point x="16" y="709" type="line"/>
      <point x="68" y="697"/>
      <point x="93" y="683"/>
      <point x="104" y="655" type="curve" smooth="yes"/>
      <point x="368" y="-24" type="line"/>
      <point x="396" y="-17"/>
      <point x="459" y="0"/>
      <point x="476" y="47" type="curve" smooth="yes"/>
      <point x="703" y="655" type="line" smooth="yes"/>
      <point x="714" y="686"/>
      <point x="727" y="694"/>
    </contour>
  </outline>
</glyph>
<glyph name="w" format="2">
  <advance width="1156"/>
  <unicode hex="0077"/>
  <anchor x="584" y="-80" name="L"/>
  <anchor x="600" y="840" name="U"/>
  <outline>
    <contour>
      <point x="1140" y="709" type="curve"/>
      <point x="1140" y="744" type="line"/>
      <point x="880" y="744" type="line"/>
      <point x="880" y="709" type="line"/>
      <point x="953" y="697"/>
      <point x="980" y="684"/>
      <point x="973" y="660" type="curve" smooth="yes"/>
      <point x="835" y="152" type="line"/>
      <point x="627" y="744" type="line"/>
      <point x="614" y="744"/>
      <point x="576" y="744"/>
      <point x="576" y="744" type="curve"/>
      <point x="570" y="556" type="line"/>
      <point x="773" y="-24" type="line"/>
      <point x="800" y="-17"/>
      <point x="869" y="0"/>
      <point x="883" y="47" type="curve" smooth="yes"/>
      <point x="1060" y="660" type="line" smooth="yes"/>
      <point x="1066" y="684"/>
      <point x="1074" y="694"/>
    </contour>
    <contour>
      <point x="419" y="47" type="curve" smooth="yes"/>
      <point x="632" y="660" type="line"/>
      <point x="616" y="744" type="line"/>
      <point x="616" y="744"/>
      <point x="586" y="744"/>
      <point x="572" y="744" type="curve"/>
      <point x="375" y="152" type="line"/>
      <point x="224" y="660" type="line" smooth="yes"/>
      <point x="217" y="680"/>
      <point x="220" y="699"/>
      <point x="324" y="709" type="curve"/>
      <point x="324" y="744" type="line"/>
      <point x="16" y="744" type="line"/>
      <point x="16" y="709" type="line"/>
      <point x="68" y="697"/>
      <point x="98" y="680"/>
      <point x="103" y="660" type="curve"/>
      <point x="312" y="-24" type="line"/>
      <point x="340" y="-17"/>
      <point x="403" y="-1"/>
    </contour>
  </outline>
</glyph>
<glyph name="x" format="2">
  <advance width="824"/>
  <unicode hex="0078"/>
  <anchor x="640" y="0" name="H"/>
  <anchor x="414" y="-80" name="L"/>
  <anchor x="414" y="840" name="U"/>
  <outline>
    <contour>
      <point x="796" y="709" type="curve"/>
      <point x="796" y="744" type="line"/>
      <point x="491" y="744" type="line"/>
      <point x="491" y="709" type="line"/>
      <point x="556" y="703"/>
      <point x="586" y="691"/>
      <point x="550" y="639" type="curve" smooth="yes"/>
      <point x="400" y="422" type="line"/>
      <point x="442" y="360" type="line"/>
      <point x="639" y="637" type="line" smooth="yes"/>
      <point x="667" y="676"/>
      <point x="709" y="703"/>
    </contour>
    <contour>
      <point x="491" y="0" type="line"/>
      <point x="812" y="0" type="line"/>
      <point x="812" y="34" type="line"/>
      <point x="742" y="44"/>
      <point x="708" y="77"/>
      <point x="684" y="109" type="curve"/>
      <point x="298" y="639" type="line" smooth="yes"/>
      <point x="261" y="689"/>
      <point x="295" y="703"/>
      <point x="360" y="709" type="curve"/>
      <point x="360" y="744" type="line"/>
      <point x="24" y="744" type="line"/>
      <point x="24" y="709" type="line"/>
      <point x="111" y="703"/>
      <point x="132" y="676"/>
      <point x="160" y="637" type="curve" smooth="yes"/>
      <point x="550" y="104" type="line" smooth="yes"/>
      <point x="592" y="47"/>
      <point x="544" y="39"/>
      <point x="491" y="34" type="curve"/>
    </contour>
    <contour>
      <point x="240" y="104" type="curve" smooth="yes"/>
      <point x="400" y="331" type="line"/>
      <point x="359" y="395" type="line"/>
      <point x="154" y="109" type="line" smooth="yes"/>
      <point x="131" y="76"/>
      <point x="101" y="47"/>
      <point x="16" y="34" type="curve"/>
      <point x="16" y="0" type="line"/>
      <point x="319" y="0" type="line"/>
      <point x="319" y="34" type="line"/>
      <point x="268" y="39"/>
      <point x="200" y="47"/>
    </contour>
  </outline>
</glyph>
<glyph name="y" format="2">
  <advance width="808"/>
  <unicode hex="0079"/>
  <anchor x="616" y="-80" name="L"/>
  <anchor x="835" y="720" name="R"/>
  <anchor x="424" y="840" name="U"/>
  <outline>
    <contour>
      <point x="791" y="709" type="curve"/>
      <point x="791" y="744" type="line"/>
      <point x="524" y="744" type="line"/>
      <point x="524" y="709" type="line"/>
      <point x="603" y="697"/>
      <point x="628" y="688"/>
      <point x="616" y="655" type="curve" smooth="yes"/>
      <point x="431" y="145" type="line"/>
      <point x="234" y="655" type="line" smooth="yes"/>
      <point x="220" y="690"/>
      <point x="242" y="699"/>
      <point x="324" y="709" type="curve"/>
      <point x="324" y="744" type="line"/>
      <point x="16" y="744" type="line"/>
      <point x="16" y="709" type="line"/>
      <point x="68" y="697"/>
      <point x="93" y="684"/>
      <point x="104" y="655" type="curve" smooth="yes"/>
      <point x="367" y="-18" type="line"/>
      <point x="344" y="-73" type="line" smooth="yes"/>
      <point x="305" y="-165"/>
      <point x="239" y="-250"/>
      <point x="200" y="-264" type="curve" smooth="yes"/>
      <point x="160" y="-277"/>
      <point x="106" y="-279"/>
      <point x="56" y="-249" type="curve"/>
      <point x="21" y="-270"/>
      <point x="-37" y="-344"/>
      <point x="-37" y="-357" type="curve" smooth="yes"/>
      <point x="-37" y="-377"/>
      <point x="20" y="-400"/>
      <point x="101" y="-400" type="curve" smooth="yes"/>
      <point x="208" y="-400"/>
      <point x="348" y="-302"/>
      <point x="436" y="-65" type="curve" smooth="yes"/>
      <point x="703" y="656" type="line" smooth="yes"/>
      <point x="714" y="687"/>
      <point x="727" y="694"/>
    </contour>
  </outline>
</glyph>
<glyph name="z" format="2">
  <advance width="695"/>
  <unicode hex="007A"/>
  <anchor x="361" y="0" name="H"/>
  <anchor x="361" y="-80" name="L"/>
  <anchor x="384" y="840" name="U"/>
  <outline>
    <contour>
      <point x="663" y="198" type="curve"/>
      <point x="625" y="206" type="line"/>
      <point x="601" y="109"/>
      <point x="580" y="72"/>
      <point x="553" y="72" type="curve" smooth="yes"/>
      <point x="216" y="72" type="line"/>
      <point x="661" y="709" type="line"/>
      <point x="644" y="744" type="line"/>
      <point x="250" y="744" type="line" smooth="yes"/>
      <point x="181" y="744"/>
      <point x="156" y="744"/>
      <point x="109" y="756" type="curve"/>
      <point x="95" y="561" type="line"/>
      <point x="134" y="552" type="line"/>
      <point x="156" y="650"/>
      <point x="193" y="672"/>
      <point x="228" y="672" type="curve" smooth="yes"/>
      <point x="504" y="672" type="line"/>
      <point x="60" y="36" type="line"/>
      <point x="81" y="0" type="line"/>
      <point x="653" y="0" type="line"/>
      <point x="660" y="37"/>
      <point x="663" y="131"/>
    </contour>
  </outline>
</glyph>
<glyph name="braceleft" format="2">
  <advance width="550"/>
  <unicode hex="007B"/>
  <outline>
    <contour>
      <point x="519" y="1242" type="curve"/>
      <point x="498" y="1280" type="line"/>
      <point x="339" y="1208"/>
      <point x="239" y="1100"/>
      <point x="239" y="956" type="curve" smooth="yes"/>
      <point x="239" y="824"/>
      <point x="272" y="820"/>
      <point x="272" y="690" type="curve" smooth="yes"/>
      <point x="272" y="610"/>
      <point x="206" y="539"/>
      <point x="81" y="506" type="curve"/>
      <point x="95" y="464" type="line"/>
      <point x="126" y="468"/>
      <point x="117" y="468"/>
      <point x="147" y="468" type="curve" smooth="yes"/>
      <point x="226" y="468"/>
      <point x="272" y="424"/>
      <point x="272" y="337" type="curve" smooth="yes"/>
      <point x="272" y="204"/>
      <point x="239" y="183"/>
      <point x="239" y="57" type="curve" smooth="yes"/>
      <point x="239" y="-96"/>
      <point x="314" y="-180"/>
      <point x="492" y="-252" type="curve"/>
      <point x="511" y="-203" type="line"/>
      <point x="398" y="-140"/>
      <point x="372" y="-83"/>
      <point x="372" y="34" type="curve" smooth="yes"/>
      <point x="372" y="140"/>
      <point x="404" y="180"/>
      <point x="404" y="308" type="curve" smooth="yes"/>
      <point x="404" y="425"/>
      <point x="367" y="503"/>
      <point x="260" y="522" type="curve"/>
      <point x="350" y="561"/>
      <point x="404" y="649"/>
      <point x="404" y="738" type="curve" smooth="yes"/>
      <point x="404" y="862"/>
      <point x="372" y="877"/>
      <point x="372" y="1001" type="curve" smooth="yes"/>
      <point x="372" y="1112"/>
      <point x="436" y="1190"/>
    </contour>
  </outline>
</glyph>
<glyph name="bar" format="2">
  <advance width="400"/>
  <unicode hex="007C"/>
  <outline>
    <contour>
      <point x="256" y="-358" type="curve"/>
      <point x="256" y="1318" type="line"/>
      <point x="227" y="1336" type="line"/>
      <point x="196" y="1328"/>
      <point x="173" y="1314"/>
      <point x="144" y="1296" type="curve"/>
      <point x="144" y="-381" type="line"/>
      <point x="172" y="-400" type="line"/>
      <point x="198" y="-391"/>
      <point x="236" y="-375"/>
    </contour>
  </outline>
</glyph>
<glyph name="braceright" format="2">
  <advance width="550"/>
  <unicode hex="007D"/>
  <outline>
    <contour>
      <point x="470" y="520" type="curve"/>
      <point x="456" y="565" type="line"/>
      <point x="424" y="558"/>
      <point x="432" y="560"/>
      <point x="404" y="560" type="curve" smooth="yes"/>
      <point x="324" y="560"/>
      <point x="280" y="605"/>
      <point x="280" y="692" type="curve" smooth="yes"/>
      <point x="280" y="823"/>
      <point x="311" y="846"/>
      <point x="311" y="972" type="curve" smooth="yes"/>
      <point x="311" y="1124"/>
      <point x="237" y="1209"/>
      <point x="57" y="1280" type="curve"/>
      <point x="39" y="1231" type="line"/>
      <point x="150" y="1170"/>
      <point x="178" y="1113"/>
      <point x="178" y="993" type="curve" smooth="yes"/>
      <point x="178" y="888"/>
      <point x="147" y="848"/>
      <point x="147" y="721" type="curve" smooth="yes"/>
      <point x="147" y="602"/>
      <point x="183" y="525"/>
      <point x="292" y="504" type="curve"/>
      <point x="200" y="465"/>
      <point x="147" y="380"/>
      <point x="147" y="292" type="curve" smooth="yes"/>
      <point x="147" y="165"/>
      <point x="178" y="152"/>
      <point x="178" y="28" type="curve" smooth="yes"/>
      <point x="178" y="-83"/>
      <point x="114" y="-160"/>
      <point x="31" y="-212" type="curve"/>
      <point x="52" y="-252" type="line"/>
      <point x="211" y="-180"/>
      <point x="311" y="-70"/>
      <point x="311" y="73" type="curve" smooth="yes"/>
      <point x="311" y="204"/>
      <point x="280" y="208"/>
      <point x="280" y="337" type="curve" smooth="yes"/>
      <point x="280" y="419"/>
      <point x="344" y="488"/>
    </contour>
  </outline>
</glyph>
<glyph name="asciitilde" format="2">
  <advance width="799"/>
  <unicode hex="007E"/>
  <outline>
    <contour>
      <point x="760" y="619" type="curve"/>
      <point x="717" y="639" type="line"/>
      <point x="673" y="552"/>
      <point x="627" y="511"/>
      <point x="576" y="511" type="curve" smooth="yes"/>
      <point x="491" y="511"/>
      <point x="380" y="639"/>
      <point x="281" y="639" type="curve" smooth="yes"/>
      <point x="180" y="639"/>
      <point x="84" y="506"/>
      <point x="39" y="401" type="curve"/>
      <point x="81" y="380" type="line"/>
      <point x="126" y="468"/>
      <point x="168" y="509"/>
      <point x="220" y="509" type="curve" smooth="yes"/>
      <point x="312" y="509"/>
      <point x="428" y="381"/>
      <point x="517" y="381" type="curve" smooth="yes"/>
      <point x="619" y="381"/>
      <point x="716" y="514"/>
    </contour>
  </outline>
</glyph>
<glyph name="exclamdown" format="2">
  <advance width="445"/>
  <unicode hex="00A1"/>
  <outline>
    <contour>
      <point x="312" y="678" type="curve"/>
      <point x="312" y="736"/>
      <point x="289" y="768"/>
      <point x="234" y="768" type="curve" smooth="yes"/>
      <point x="170" y="768"/>
      <point x="123" y="711"/>
      <point x="123" y="639" type="curve" smooth="yes"/>
      <point x="123" y="580"/>
      <point x="148" y="547"/>
      <point x="203" y="547" type="curve" smooth="yes"/>
      <point x="262" y="547"/>
      <point x="312" y="606"/>
    </contour>
    <contour>
      <point x="296" y="-386" type="curve"/>
      <point x="257" y="440" type="line"/>
      <point x="236" y="455" type="line"/>
      <point x="208" y="447"/>
      <point x="196" y="440"/>
      <point x="175" y="424" type="curve"/>
      <point x="137" y="-434" type="line"/>
      <point x="172" y="-452" type="line"/>
      <point x="208" y="-439"/>
      <point x="255" y="-412"/>
    </contour>
  </outline>
</glyph>
<glyph name="cent" format="2">
  <advance width="768"/>
  <unicode hex="00A2"/>
  <outline>
    <contour>
      <point x="452" y="-6" type="curve"/>
      <point x="452" y="978" type="line"/>
      <point x="431" y="996" type="line"/>
      <point x="398" y="988"/>
      <point x="409" y="989"/>
      <point x="380" y="971" type="curve"/>
      <point x="380" y="-12" type="line"/>
      <point x="400" y="-32" type="line"/>
      <point x="425" y="-24"/>
      <point x="432" y="-23"/>
    </contour>
    <contour>
      <point x="691" y="280" type="curve"/>
      <point x="660" y="312" type="line"/>
      <point x="544" y="211"/>
      <point x="509" y="209"/>
      <point x="448" y="209" type="curve" smooth="yes"/>
      <point x="320" y="209"/>
      <point x="204" y="309"/>
      <point x="204" y="492" type="curve" smooth="yes"/>
      <point x="204" y="691"/>
      <point x="308" y="776"/>
      <point x="419" y="776" type="curve" smooth="yes"/>
      <point x="529" y="776"/>
      <point x="586" y="716"/>
      <point x="606" y="678" type="curve"/>
      <point x="634" y="670" type="line"/>
      <point x="653" y="697"/>
      <point x="684" y="775"/>
      <point x="680" y="799" type="curve"/>
      <point x="644" y="839"/>
      <point x="561" y="863"/>
      <point x="491" y="863" type="curve" smooth="yes"/>
      <point x="262" y="863"/>
      <point x="83" y="696"/>
      <point x="83" y="468" type="curve" smooth="yes"/>
      <point x="83" y="231"/>
      <point x="237" y="103"/>
      <point x="391" y="103" type="curve" smooth="yes"/>
      <point x="491" y="103"/>
      <point x="552" y="116"/>
    </contour>
  </outline>
</glyph>
<glyph name="sterling" format="2">
  <advance width="768"/>
  <unicode hex="00A3"/>
  <outline>
    <contour>
      <point x="688" y="932" type="curve"/>
      <point x="589" y="982"/>
      <point x="547" y="988"/>
      <point x="491" y="988" type="curve" smooth="yes"/>
      <point x="237" y="988"/>
      <point x="132" y="788"/>
      <point x="157" y="462" type="curve" smooth="yes"/>
      <point x="183" y="126"/>
      <point x="153" y="99"/>
      <point x="51" y="15" type="curve"/>
      <point x="69" y="-24" type="line"/>
      <point x="226" y="76"/>
      <point x="542" y="-79"/>
      <point x="685" y="0" type="curve"/>
      <point x="693" y="31"/>
      <point x="710" y="111"/>
      <point x="718" y="203" type="curve"/>
      <point x="684" y="217" type="line"/>
      <point x="638" y="92"/>
      <point x="601" y="83"/>
      <point x="503" y="80" type="curve" smooth="yes"/>
      <point x="384" y="77"/>
      <point x="352" y="92"/>
      <point x="206" y="80" type="curve"/>
      <point x="268" y="165"/>
      <point x="313" y="310"/>
      <point x="294" y="476" type="curve" smooth="yes"/>
      <point x="248" y="872"/>
      <point x="345" y="908"/>
      <point x="432" y="908" type="curve" smooth="yes"/>
      <point x="539" y="908"/>
      <point x="604" y="852"/>
      <point x="620" y="720" type="curve"/>
      <point x="657" y="720" type="line"/>
      <point x="670" y="760"/>
      <point x="687" y="877"/>
    </contour>
    <contour>
      <point x="492" y="428" type="line"/>
      <point x="512" y="483" type="line"/>
      <point x="492" y="501" type="line"/>
      <point x="68" y="501" type="line"/>
      <point x="62" y="484"/>
      <point x="56" y="464"/>
      <point x="51" y="448" type="curve"/>
      <point x="68" y="428" type="line"/>
    </contour>
  </outline>
</glyph>
<glyph name="currency" format="2">
  <advance width="768"/>
  <unicode hex="00A4"/>
  <outline>
    <contour>
      <point x="290" y="576" type="curve"/>
      <point x="316" y="603"/>
      <point x="351" y="616"/>
      <point x="385" y="616" type="curve" smooth="yes"/>
      <point x="420" y="616"/>
      <point x="453" y="603"/>
      <point x="480" y="576" type="curve" smooth="yes"/>
      <point x="506" y="550"/>
      <point x="520" y="516"/>
      <point x="520" y="481" type="curve" smooth="yes"/>
      <point x="520" y="447"/>
      <point x="506" y="412"/>
      <point x="480" y="386" type="curve" smooth="yes"/>
      <point x="454" y="360"/>
      <point x="420" y="347"/>
      <point x="385" y="347" type="curve" smooth="yes"/>
      <point x="351" y="347"/>
      <point x="316" y="360"/>
      <point x="289" y="387" type="curve" smooth="yes"/>
      <point x="263" y="412"/>
      <point x="250" y="446"/>
      <point x="250" y="480" type="curve" smooth="yes"/>
      <point x="250" y="515"/>
      <point x="264" y="550"/>
    </contour>
    <contour>
      <point x="236" y="630" type="curve"/>
      <point x="195" y="588"/>
      <point x="174" y="534"/>
      <point x="174" y="480" type="curve" smooth="yes"/>
      <point x="174" y="426"/>
      <point x="194" y="373"/>
      <point x="235" y="332" type="curve" smooth="yes"/>
      <point x="276" y="291"/>
      <point x="331" y="271"/>
      <point x="385" y="271" type="curve" smooth="yes"/>
      <point x="440" y="271"/>
      <point x="494" y="291"/>
      <point x="534" y="332" type="curve" smooth="yes"/>
      <point x="575" y="372"/>
      <point x="596" y="426"/>
      <point x="596" y="480" type="curve" smooth="yes"/>
      <point x="596" y="534"/>
      <point x="574" y="589"/>
      <point x="533" y="630" type="curve" smooth="yes"/>
      <point x="492" y="672"/>
      <point x="439" y="692"/>
      <point x="385" y="692" type="curve" smooth="yes"/>
      <point x="332" y="692"/>
      <point x="278" y="672"/>
    </contour>
    <contour>
      <point x="296" y="341" type="line"/>
      <point x="272" y="394" type="line"/>
      <point x="244" y="392" type="line"/>
      <point x="126" y="274" type="line"/>
      <point x="133" y="257"/>
      <point x="143" y="239"/>
      <point x="151" y="224" type="curve"/>
      <point x="177" y="223" type="line"/>
    </contour>
    <contour>
      <point x="240" y="574" type="line"/>
      <point x="292" y="599" type="line"/>
      <point x="291" y="626" type="line"/>
      <point x="178" y="739" type="line"/>
      <point x="161" y="732"/>
      <point x="143" y="722"/>
      <point x="128" y="714" type="curve"/>
      <point x="127" y="688" type="line"/>
    </contour>
    <contour>
      <point x="590" y="224" type="line"/>
      <point x="643" y="248" type="line"/>
      <point x="642" y="275" type="line"/>
      <point x="528" y="388" type="line"/>
      <point x="512" y="381"/>
      <point x="493" y="372"/>
      <point x="479" y="364" type="curve"/>
      <point x="477" y="336" type="line"/>
    </contour>
    <contour>
      <point x="641" y="686" type="line"/>
      <point x="617" y="739" type="line"/>
      <point x="590" y="738" type="line"/>
      <point x="471" y="619" type="line"/>
      <point x="478" y="603"/>
      <point x="488" y="584"/>
      <point x="496" y="569" type="curve"/>
      <point x="523" y="568" type="line"/>
    </contour>
  </outline>
</glyph>
<glyph name="yen" format="2">
  <advance width="768"/>
  <unicode hex="00A5"/>
  <outline>
    <contour>
      <point x="188" y="0" type="line"/>
      <point x="580" y="0" type="line"/>
      <point x="580" y="34" type="line"/>
      <point x="480" y="54"/>
      <point x="448" y="78"/>
      <point x="448" y="92" type="curve" smooth="yes"/>
      <point x="448" y="348" type="line"/>
      <point x="664" y="348" type="line"/>
      <point x="684" y="403" type="line"/>
      <point x="664" y="421" type="line"/>
      <point x="448" y="421" type="line"/>
      <point x="448" y="462" type="line"/>
      <point x="673" y="876" type="line" smooth="yes"/>
      <point x="688" y="904"/>
      <point x="725" y="915"/>
      <point x="798" y="928" type="curve"/>
      <point x="798" y="963" type="line"/>
      <point x="481" y="963" type="line"/>
      <point x="481" y="928" type="line"/>
      <point x="564" y="918"/>
      <point x="586" y="904"/>
      <point x="570" y="876" type="curve" smooth="yes"/>
      <point x="399" y="572" type="line"/>
      <point x="324" y="726"/>
      <point x="264" y="836"/>
      <point x="184" y="940" type="curve" smooth="yes"/>
      <point x="167" y="960"/>
      <point x="144" y="971"/>
      <point x="121" y="971" type="curve" smooth="yes"/>
      <point x="77" y="971"/>
      <point x="8" y="963"/>
      <point x="-53" y="954" type="curve"/>
      <point x="-50" y="920" type="line"/>
      <point x="38" y="920"/>
      <point x="61" y="900"/>
      <point x="80" y="876" type="curve" smooth="yes"/>
      <point x="153" y="784"/>
      <point x="246" y="620"/>
      <point x="320" y="464" type="curve"/>
      <point x="320" y="421" type="line"/>
      <point x="102" y="421" type="line"/>
      <point x="96" y="404"/>
      <point x="89" y="384"/>
      <point x="84" y="368" type="curve"/>
      <point x="102" y="348" type="line"/>
      <point x="320" y="348" type="line"/>
      <point x="320" y="92" type="line" smooth="yes"/>
      <point x="320" y="76"/>
      <point x="285" y="54"/>
      <point x="188" y="34" type="curve"/>
    </contour>
  </outline>
</glyph>
<glyph name="brokenbar" format="2">
  <advance width="400"/>
  <unicode hex="00A6"/>
  <outline>
    <contour>
      <point x="256" y="589" type="curve"/>
      <point x="256" y="1318" type="line"/>
      <point x="226" y="1336" type="line"/>
      <point x="193" y="1328"/>
      <point x="175" y="1314"/>
      <point x="144" y="1296" type="curve"/>
      <point x="144" y="566" type="line"/>
      <point x="173" y="548" type="line"/>
      <point x="200" y="556"/>
      <point x="234" y="572"/>
    </contour>
    <contour>
      <point x="256" y="-358" type="curve"/>
      <point x="256" y="361" type="line"/>
      <point x="226" y="381" type="line"/>
      <point x="193" y="371"/>
      <point x="175" y="358"/>
      <point x="144" y="340" type="curve"/>
      <point x="144" y="-381" type="line"/>
      <point x="173" y="-400" type="line"/>
      <point x="200" y="-391"/>
      <point x="234" y="-375"/>
    </contour>
  </outline>
</glyph>
<glyph name="section" format="2">
  <advance width="768"/>
  <unicode hex="00A7"/>
  <outline>
    <contour>
      <point x="351" y="-24" type="curve" smooth="yes"/>
      <point x="413" y="-24"/>
      <point x="626" y="-16"/>
      <point x="626" y="210" type="curve" smooth="yes"/>
      <point x="626" y="329"/>
      <point x="523" y="376"/>
      <point x="430" y="423" type="curve"/>
      <point x="270" y="514"/>
      <point x="200" y="560"/>
      <point x="200" y="657" type="curve" smooth="yes"/>
      <point x="200" y="725"/>
      <point x="245" y="778"/>
      <point x="325" y="789" type="curve"/>
      <point x="286" y="846" type="line"/>
      <point x="183" y="820"/>
      <point x="95" y="719"/>
      <point x="95" y="620" type="curve" smooth="yes"/>
      <point x="95" y="484"/>
      <point x="182" y="412"/>
      <point x="324" y="335" type="curve" smooth="yes"/>
      <point x="420" y="282"/>
      <point x="522" y="251"/>
      <point x="522" y="165" type="curve" smooth="yes"/>
      <point x="522" y="90"/>
      <point x="468" y="54"/>
      <point x="391" y="54" type="curve" smooth="yes"/>
      <point x="280" y="54"/>
      <point x="196" y="136"/>
      <point x="191" y="225" type="curve"/>
      <point x="156" y="234" type="line"/>
      <point x="141" y="186"/>
      <point x="136" y="48"/>
      <point x="151" y="42" type="curve"/>
      <point x="222" y="3"/>
      <point x="300" y="-24"/>
    </contour>
    <contour>
      <point x="505" y="295" type="line"/>
      <point x="568" y="296"/>
      <point x="673" y="379"/>
      <point x="673" y="524" type="curve" smooth="yes"/>
      <point x="673" y="671"/>
      <point x="572" y="725"/>
      <point x="430" y="807" type="curve" smooth="yes"/>
      <point x="313" y="873"/>
      <point x="253" y="917"/>
      <point x="253" y="992" type="curve" smooth="yes"/>
      <point x="253" y="1048"/>
      <point x="296" y="1080"/>
      <point x="366" y="1080" type="curve" smooth="yes"/>
      <point x="418" y="1080"/>
      <point x="476" y="1044"/>
      <point x="526" y="968" type="curve"/>
      <point x="557" y="962" type="line"/>
      <point x="571" y="979"/>
      <point x="610" y="1070"/>
      <point x="597" y="1082" type="curve"/>
      <point x="554" y="1120"/>
      <point x="454" y="1152"/>
      <point x="387" y="1152" type="curve" smooth="yes"/>
      <point x="266" y="1152"/>
      <point x="149" y="1092"/>
      <point x="149" y="960" type="curve" smooth="yes"/>
      <point x="149" y="852"/>
      <point x="219" y="775"/>
      <point x="324" y="719" type="curve" smooth="yes"/>
      <point x="490" y="629"/>
      <point x="568" y="573"/>
      <point x="568" y="475" type="curve" smooth="yes"/>
      <point x="568" y="411"/>
      <point x="516" y="358"/>
      <point x="439" y="358" type="curve"/>
    </contour>
  </outline>
</glyph>
<glyph name="dieresis" format="2">
  <advance width="640"/>
  <unicode hex="00A8"/>
  <anchor x="320" y="1128" name="U"/>
  <outline>
    <contour>
      <point x="240" y="1008" type="curve"/>
      <point x="240" y="1058"/>
      <point x="217" y="1084"/>
      <point x="172" y="1084" type="curve" smooth="yes"/>
      <point x="121" y="1084"/>
      <point x="80" y="1036"/>
      <point x="80" y="976" type="curve" smooth="yes"/>
      <point x="80" y="927"/>
      <point x="100" y="899"/>
      <point x="147" y="899" type="curve" smooth="yes"/>
      <point x="200" y="899"/>
      <point x="240" y="948"/>
    </contour>
    <contour>
      <point x="560" y="1008" type="curve"/>
      <point x="560" y="1058"/>
      <point x="537" y="1084"/>
      <point x="492" y="1084" type="curve" smooth="yes"/>
      <point x="441" y="1084"/>
      <point x="400" y="1036"/>
      <point x="400" y="976" type="curve" smooth="yes"/>
      <point x="400" y="927"/>
      <point x="420" y="899"/>
      <point x="467" y="899" type="curve" smooth="yes"/>
      <point x="520" y="899"/>
      <point x="560" y="948"/>
    </contour>
  </outline>
</glyph>
<glyph name="copyright" format="2">
  <advance width="1168"/>
  <unicode hex="00A9"/>
  <outline>
    <contour>
      <point x="583" y="-24" type="curve" smooth="yes"/>
      <point x="875" y="-24"/>
      <point x="1088" y="212"/>
      <point x="1088" y="504" type="curve" smooth="yes"/>
      <point x="1088" y="796"/>
      <point x="875" y="1032"/>
      <point x="583" y="1032" type="curve" smooth="yes"/>
      <point x="292" y="1032"/>
      <point x="80" y="796"/>
      <point x="80" y="504" type="curve" smooth="yes"/>
      <point x="80" y="212"/>
      <point x="292" y="-24"/>
    </contour>
    <contour>
      <point x="565" y="173" type="curve" smooth="yes"/>
      <point x="642" y="173"/>
      <point x="719" y="203"/>
      <point x="814" y="295" type="curve"/>
      <point x="792" y="317" type="line"/>
      <point x="711" y="257"/>
      <point x="670" y="244"/>
      <point x="624" y="244" type="curve" smooth="yes"/>
      <point x="534" y="244"/>
      <point x="391" y="331"/>
      <point x="391" y="501" type="curve" smooth="yes"/>
      <point x="391" y="709"/>
      <point x="516" y="770"/>
      <point x="584" y="770" type="curve" smooth="yes"/>
      <point x="650" y="770"/>
      <point x="696" y="739"/>
      <point x="734" y="709" type="curve"/>
      <point x="753" y="706" type="line"/>
      <point x="772" y="720"/>
      <point x="812" y="778"/>
      <point x="804" y="784" type="curve"/>
      <point x="764" y="812"/>
      <point x="704" y="835"/>
      <point x="624" y="835" type="curve" smooth="yes"/>
      <point x="440" y="835"/>
      <point x="286" y="696"/>
      <point x="286" y="481" type="curve" smooth="yes"/>
      <point x="286" y="288"/>
      <point x="428" y="173"/>
    </contour>
    <contour>
      <point x="583" y="44" type="curve" smooth="yes"/>
      <point x="331" y="44"/>
      <point x="148" y="250"/>
      <point x="148" y="504" type="curve" smooth="yes"/>
      <point x="148" y="756"/>
      <point x="331" y="963"/>
      <point x="583" y="963" type="curve" smooth="yes"/>
      <point x="837" y="963"/>
      <point x="1019" y="756"/>
      <point x="1019" y="504" type="curve" smooth="yes"/>
      <point x="1019" y="250"/>
      <point x="837" y="44"/>
    </contour>
  </outline>
</glyph>
<glyph name="ordfeminine" format="2">
  <advance width="419"/>
  <unicode hex="00AA"/>
  <outline>
    <contour>
      <point x="411" y="614" type="curve"/>
      <point x="406" y="634" type="line"/>
      <point x="376" y="622"/>
      <point x="360" y="622"/>
      <point x="355" y="625" type="curve" smooth="yes"/>
      <point x="348" y="632"/>
      <point x="344" y="644"/>
      <point x="344" y="673" type="curve" smooth="yes"/>
      <point x="344" y="830" type="line" smooth="yes"/>
      <point x="344" y="948"/>
      <point x="316" y="988"/>
      <point x="239" y="988" type="curve" smooth="yes"/>
      <point x="183" y="988"/>
      <point x="62" y="927"/>
      <point x="52" y="860" type="curve"/>
      <point x="59" y="844" type="line"/>
      <point x="73" y="840"/>
      <point x="145" y="856"/>
      <point x="142" y="866" type="curve" smooth="yes"/>
      <point x="126" y="911"/>
      <point x="170" y="942"/>
      <point x="201" y="942" type="curve" smooth="yes"/>
      <point x="259" y="942"/>
      <point x="270" y="906"/>
      <point x="270" y="840" type="curve" smooth="yes"/>
      <point x="270" y="676" type="line" smooth="yes"/>
      <point x="270" y="601"/>
      <point x="293" y="568"/>
      <point x="312" y="568" type="curve" smooth="yes"/>
      <point x="329" y="568"/>
      <point x="362" y="581"/>
    </contour>
    <contour>
      <point x="236" y="784" type="curve"/>
      <point x="331" y="809" type="line"/>
      <point x="328" y="842" type="line"/>
      <point x="196" y="808" type="line" smooth="yes"/>
      <point x="88" y="778"/>
      <point x="39" y="725"/>
      <point x="39" y="660" type="curve" smooth="yes"/>
      <point x="39" y="592"/>
      <point x="90" y="568"/>
      <point x="132" y="568" type="curve" smooth="yes"/>
      <point x="172" y="568"/>
      <point x="231" y="591"/>
      <point x="286" y="648" type="curve"/>
      <point x="281" y="681" type="line"/>
      <point x="237" y="642"/>
      <point x="195" y="624"/>
      <point x="159" y="624" type="curve" smooth="yes"/>
      <point x="144" y="624"/>
      <point x="117" y="634"/>
      <point x="117" y="678" type="curve" smooth="yes"/>
      <point x="117" y="724"/>
      <point x="142" y="758"/>
    </contour>
    <contour>
      <point x="40" y="468" type="line"/>
      <point x="388" y="468" type="line"/>
      <point x="388" y="527" type="line"/>
      <point x="40" y="527" type="line"/>
    </contour>
  </outline>
</glyph>
<glyph name="guillemotleft" format="2">
  <advance width="795"/>
  <unicode hex="00AB"/>
  <outline>
    <contour>
      <point x="360" y="344" type="curve"/>
      <point x="648" y="13" type="line"/>
      <point x="683" y="37" type="line"/>
      <point x="498" y="373" type="line"/>
      <point x="496" y="372"/>
      <point x="683" y="706"/>
      <point x="682" y="706" type="curve"/>
      <point x="648" y="730" type="line"/>
      <point x="361" y="402" type="line"/>
      <point x="360" y="400"/>
      <point x="360" y="344"/>
    </contour>
    <contour>
      <point x="64" y="344" type="curve"/>
      <point x="352" y="13" type="line"/>
      <point x="387" y="37" type="line"/>
      <point x="202" y="373" type="line"/>
      <point x="200" y="372"/>
      <point x="387" y="706"/>
      <point x="386" y="706" type="curve"/>
      <point x="352" y="730" type="line"/>
      <point x="65" y="402" type="line"/>
      <point x="64" y="400"/>
      <point x="64" y="344"/>
    </contour>
  </outline>
</glyph>
<glyph name="logicalnot" format="2">
  <advance width="768"/>
  <unicode hex="00AC"/>
  <outline>
    <contour>
      <point x="712" y="186" type="curve"/>
      <point x="712" y="476" type="line"/>
      <point x="689" y="494" type="line"/>
      <point x="689" y="494"/>
      <point x="703" y="494"/>
      <point x="73" y="494" type="curve"/>
      <point x="64" y="473"/>
      <point x="54" y="445"/>
      <point x="48" y="424" type="curve"/>
      <point x="68" y="404" type="line"/>
      <point x="624" y="404" type="line"/>
      <point x="624" y="165" type="line"/>
      <point x="644" y="145" type="line"/>
      <point x="670" y="154"/>
      <point x="691" y="170"/>
    </contour>
  </outline>
</glyph>
<glyph name="registered" format="2">
  <advance width="584"/>
  <unicode hex="00AE"/>
  <outline>
    <contour>
      <point x="556" y="867" type="curve"/>
      <point x="556" y="1020"/>
      <point x="444" y="1144"/>
      <point x="291" y="1144" type="curve" smooth="yes"/>
      <point x="138" y="1144"/>
      <point x="28" y="1020"/>
      <point x="28" y="867" type="curve" smooth="yes"/>
      <point x="28" y="714"/>
      <point x="138" y="590"/>
      <point x="291" y="590" type="curve" smooth="yes"/>
      <point x="444" y="590"/>
      <point x="556" y="714"/>
    </contour>
    <contour>
      <point x="509" y="867" type="curve"/>
      <point x="509" y="740"/>
      <point x="418" y="637"/>
      <point x="291" y="637" type="curve" smooth="yes"/>
      <point x="165" y="637"/>
      <point x="74" y="740"/>
      <point x="74" y="867" type="curve" smooth="yes"/>
      <point x="74" y="993"/>
      <point x="165" y="1096"/>
      <point x="291" y="1096" type="curve" smooth="yes"/>
      <point x="418" y="1096"/>
      <point x="509" y="993"/>
    </contour>
    <contour>
      <point x="399" y="956" type="curve"/>
      <point x="399" y="1000"/>
      <point x="357" y="1032"/>
      <point x="277" y="1032" type="curve" smooth="yes"/>
      <point x="233" y="1032"/>
      <point x="200" y="1025"/>
      <point x="169" y="1018" type="curve"/>
      <point x="171" y="995" type="line"/>
      <point x="205" y="1000"/>
      <point x="239" y="1004"/>
      <point x="268" y="1004" type="curve" smooth="yes"/>
      <point x="329" y="1004"/>
      <point x="350" y="980"/>
      <point x="350" y="949" type="curve" smooth="yes"/>
      <point x="350" y="908"/>
      <point x="325" y="885"/>
      <point x="272" y="885" type="curve" smooth="yes"/>
      <point x="262" y="885"/>
      <point x="255" y="886"/>
      <point x="244" y="888" type="curve"/>
      <point x="245" y="860" type="line"/>
      <point x="256" y="857"/>
      <point x="266" y="856"/>
      <point x="275" y="856" type="curve" smooth="yes"/>
      <point x="343" y="856"/>
      <point x="399" y="892"/>
    </contour>
    <contour>
      <point x="444" y="718" type="curve"/>
      <point x="443" y="735" type="line"/>
      <point x="420" y="733"/>
      <point x="408" y="736"/>
      <point x="401" y="747" type="curve" smooth="yes"/>
      <point x="307" y="878" type="line"/>
      <point x="272" y="863" type="line"/>
      <point x="360" y="719" type="line" smooth="yes"/>
      <point x="364" y="712"/>
      <point x="376" y="704"/>
      <point x="385" y="704" type="curve" smooth="yes"/>
      <point x="397" y="704"/>
      <point x="423" y="712"/>
    </contour>
    <contour>
      <point x="171" y="709" type="line"/>
      <point x="284" y="709" type="line"/>
      <point x="284" y="724" type="line"/>
      <point x="260" y="728"/>
      <point x="250" y="735"/>
      <point x="250" y="739" type="curve" smooth="yes"/>
      <point x="250" y="1015" type="line"/>
      <point x="206" y="1015" type="line"/>
      <point x="206" y="739" type="line" smooth="yes"/>
      <point x="206" y="734"/>
      <point x="193" y="728"/>
      <point x="171" y="724" type="curve"/>
    </contour>
  </outline>
</glyph>
<glyph name="macron" format="2">
  <advance width="808"/>
  <unicode hex="00AF"/>
  <outline>
    <contour>
      <point x="674" y="1024" type="curve"/>
      <point x="656" y="1044" type="line"/>
      <point x="166" y="1044" type="line"/>
      <point x="156" y="1023"/>
      <point x="138" y="983"/>
      <point x="133" y="960" type="curve"/>
      <point x="151" y="940" type="line"/>
      <point x="643" y="940" type="line"/>
      <point x="651" y="960"/>
      <point x="669" y="1001"/>
    </contour>
  </outline>
</glyph>
<glyph name="degree" format="2">
  <advance width="586"/>
  <unicode hex="00B0"/>
  <outline>
    <contour>
      <point x="474" y="836" type="curve"/>
      <point x="474" y="917"/>
      <point x="406" y="988"/>
      <point x="323" y="988" type="curve" smooth="yes"/>
      <point x="223" y="988"/>
      <point x="112" y="891"/>
      <point x="112" y="758" type="curve" smooth="yes"/>
      <point x="112" y="676"/>
      <point x="175" y="607"/>
      <point x="263" y="607" type="curve" smooth="yes"/>
      <point x="361" y="607"/>
      <point x="474" y="704"/>
    </contour>
    <contour>
      <point x="387" y="796" type="curve"/>
      <point x="387" y="722"/>
      <point x="335" y="680"/>
      <point x="284" y="680" type="curve" smooth="yes"/>
      <point x="231" y="680"/>
      <point x="200" y="738"/>
      <point x="200" y="798" type="curve" smooth="yes"/>
      <point x="200" y="868"/>
      <point x="249" y="913"/>
      <point x="302" y="913" type="curve" smooth="yes"/>
      <point x="354" y="913"/>
      <point x="387" y="858"/>
    </contour>
  </outline>
</glyph>
<glyph name="plusminus" format="2">
  <advance width="672"/>
  <unicode hex="00B1"/>
  <outline>
    <contour>
      <point x="622" y="554" type="curve"/>
      <point x="603" y="573" type="line"/>
      <point x="73" y="573" type="line"/>
      <point x="64" y="552"/>
      <point x="54" y="526"/>
      <point x="48" y="504" type="curve"/>
      <point x="68" y="485" type="line"/>
      <point x="598" y="485" type="line"/>
      <point x="606" y="503"/>
      <point x="617" y="532"/>
    </contour>
    <contour>
      <point x="381" y="272" type="curve"/>
      <point x="381" y="793" type="line"/>
      <point x="362" y="812" type="line"/>
      <point x="339" y="806"/>
      <point x="309" y="795"/>
      <point x="289" y="788" type="curve"/>
      <point x="289" y="265" type="line"/>
      <point x="309" y="248" type="line"/>
      <point x="332" y="252"/>
      <point x="360" y="262"/>
    </contour>
    <contour>
      <point x="622" y="176" type="curve"/>
      <point x="603" y="196" type="line"/>
      <point x="73" y="196" type="line"/>
      <point x="64" y="175"/>
      <point x="54" y="148"/>
      <point x="48" y="127" type="curve"/>
      <point x="68" y="108" type="line"/>
      <point x="598" y="108" type="line"/>
      <point x="606" y="125"/>
      <point x="617" y="155"/>
    </contour>
  </outline>
</glyph>
<glyph name="uni00B2" format="2">
  <advance width="538"/>
  <unicode hex="00B2"/>
  <anchor x="269" y="440" name="L"/>
  <anchor x="269" y="1128" name="U"/>
  <outline>
    <contour>
      <point x="468" y="496" type="line"/>
      <point x="476" y="633" type="line"/>
      <point x="440" y="639" type="line"/>
      <point x="440" y="639"/>
      <point x="433" y="562"/>
      <point x="383" y="562" type="curve" smooth="yes"/>
      <point x="164" y="562" type="line"/>
      <point x="394" y="792"/>
      <point x="468" y="867"/>
      <point x="468" y="952" type="curve" smooth="yes"/>
      <point x="468" y="1046"/>
      <point x="397" y="1088"/>
      <point x="300" y="1088" type="curve" smooth="yes"/>
      <point x="176" y="1088"/>
      <point x="62" y="1001"/>
      <point x="62" y="935" type="curve"/>
      <point x="76" y="920" type="line"/>
      <point x="111" y="924"/>
      <point x="140" y="932"/>
      <point x="165" y="944" type="curve"/>
      <point x="165" y="989"/>
      <point x="204" y="1036"/>
      <point x="261" y="1036" type="curve" smooth="yes"/>
      <point x="338" y="1036"/>
      <point x="366" y="998"/>
      <point x="366" y="939" type="curve" smooth="yes"/>
      <point x="366" y="866"/>
      <point x="312" y="796"/>
      <point x="47" y="531" type="curve"/>
      <point x="63" y="496" type="line"/>
    </contour>
  </outline>
</glyph>
<glyph name="uni00B3" format="2">
  <advance width="538"/>
  <unicode hex="00B3"/>
  <anchor x="269" y="440" name="L"/>
  <anchor x="269" y="1128" name="U"/>
  <outline>
    <contour>
      <point x="469" y="679" type="curve"/>
      <point x="469" y="756"/>
      <point x="404" y="822"/>
      <point x="319" y="831" type="curve"/>
      <point x="392" y="853"/>
      <point x="436" y="908"/>
      <point x="436" y="956" type="curve" smooth="yes"/>
      <point x="436" y="1020"/>
      <point x="385" y="1088"/>
      <point x="270" y="1088" type="curve" smooth="yes"/>
      <point x="153" y="1088"/>
      <point x="50" y="1012"/>
      <point x="50" y="959" type="curve"/>
      <point x="65" y="944" type="line"/>
      <point x="97" y="946"/>
      <point x="134" y="952"/>
      <point x="159" y="963" type="curve"/>
      <point x="150" y="1006"/>
      <point x="182" y="1036"/>
      <point x="238" y="1036" type="curve" smooth="yes"/>
      <point x="306" y="1036"/>
      <point x="332" y="991"/>
      <point x="332" y="947" type="curve" smooth="yes"/>
      <point x="332" y="908"/>
      <point x="316" y="856"/>
      <point x="184" y="824" type="curve"/>
      <point x="191" y="788" type="line"/>
      <point x="214" y="791"/>
      <point x="208" y="791"/>
      <point x="229" y="791" type="curve" smooth="yes"/>
      <point x="292" y="791"/>
      <point x="364" y="759"/>
      <point x="364" y="663" type="curve" smooth="yes"/>
      <point x="364" y="581"/>
      <point x="307" y="538"/>
      <point x="220" y="538" type="curve" smooth="yes"/>
      <point x="164" y="538"/>
      <point x="116" y="550"/>
      <point x="48" y="593" type="curve"/>
      <point x="30" y="560" type="line"/>
      <point x="97" y="505"/>
      <point x="168" y="481"/>
      <point x="235" y="481" type="curve" smooth="yes"/>
      <point x="380" y="481"/>
      <point x="469" y="571"/>
    </contour>
  </outline>
</glyph>
<glyph name="acute" format="2">
  <advance width="522"/>
  <unicode hex="00B4"/>
  <anchor x="261" y="1128" name="U"/>
  <outline>
    <contour>
      <point x="219" y="837" type="curve"/>
      <point x="495" y="1141" type="line"/>
      <point x="476" y="1172" type="line"/>
      <point x="452" y="1179"/>
      <point x="386" y="1189"/>
      <point x="360" y="1191" type="curve"/>
      <point x="173" y="860" type="line"/>
      <point x="186" y="850"/>
      <point x="200" y="841"/>
    </contour>
  </outline>
</glyph>
<glyph name="mu" format="2">
  <advance width="884"/>
  <unicode hex="00B5"/>
  <outline>
    <contour>
      <point x="868" y="65" type="curve"/>
      <point x="860" y="101" type="line"/>
      <point x="824" y="88"/>
      <point x="798" y="79"/>
      <point x="775" y="79" type="curve" smooth="yes"/>
      <point x="752" y="79"/>
      <point x="744" y="115"/>
      <point x="744" y="214" type="curve" smooth="yes"/>
      <point x="744" y="246"/>
      <point x="744" y="588"/>
      <point x="744" y="607" type="curve"/>
      <point x="745" y="673"/>
      <point x="752" y="709"/>
      <point x="756" y="736" type="curve"/>
      <point x="734" y="768" type="line"/>
      <point x="691" y="750"/>
      <point x="640" y="732"/>
      <point x="593" y="720" type="curve"/>
      <point x="608" y="700"/>
      <point x="624" y="632"/>
      <point x="624" y="598" type="curve" smooth="yes"/>
      <point x="624" y="572"/>
      <point x="624" y="196"/>
      <point x="624" y="172" type="curve" smooth="yes"/>
      <point x="624" y="69"/>
      <point x="642" y="-24"/>
      <point x="690" y="-24" type="curve" smooth="yes"/>
      <point x="726" y="-24"/>
      <point x="804" y="25"/>
    </contour>
    <contour>
      <point x="672" y="211" type="curve"/>
      <point x="660" y="282" type="line"/>
      <point x="557" y="123"/>
      <point x="483" y="104"/>
      <point x="418" y="104" type="curve" smooth="yes"/>
      <point x="328" y="104"/>
      <point x="272" y="219"/>
      <point x="272" y="292" type="curve" smooth="yes"/>
      <point x="272" y="304"/>
      <point x="272" y="727"/>
      <point x="272" y="733" type="curve"/>
      <point x="263" y="744"/>
      <point x="242" y="768"/>
      <point x="241" y="768" type="curve"/>
      <point x="185" y="739"/>
      <point x="132" y="729"/>
      <point x="48" y="715" type="curve"/>
      <point x="48" y="683" type="line"/>
      <point x="149" y="672"/>
      <point x="152" y="667"/>
      <point x="152" y="584" type="curve" smooth="yes"/>
      <point x="152" y="575"/>
      <point x="152" y="369"/>
      <point x="152" y="353" type="curve" smooth="yes"/>
      <point x="152" y="130"/>
      <point x="277" y="-24"/>
      <point x="392" y="-24" type="curve" smooth="yes"/>
      <point x="465" y="-24"/>
      <point x="568" y="56"/>
    </contour>
    <contour>
      <point x="216" y="367" type="curve"/>
      <point x="210" y="409"/>
      <point x="152" y="492"/>
      <point x="152" y="492" type="curve"/>
      <point x="152" y="435"/>
      <point x="152" y="-353"/>
      <point x="152" y="-376" type="curve"/>
      <point x="183" y="-400" type="line"/>
      <point x="208" y="-387"/>
      <point x="297" y="-353"/>
      <point x="328" y="-343" type="curve"/>
      <point x="272" y="-276"/>
      <point x="216" y="-144"/>
      <point x="218" y="92" type="curve"/>
      <point x="220" y="217"/>
      <point x="209" y="269"/>
    </contour>
  </outline>
</glyph>
<glyph name="paragraph" format="2">
  <advance width="908"/>
  <unicode hex="00B6"/>
  <outline>
    <contour>
      <point x="786" y="1008" type="curve"/>
      <point x="786" y="1008"/>
      <point x="500" y="1032"/>
      <point x="406" y="1032" type="curve" smooth="yes"/>
      <point x="190" y="1032"/>
      <point x="39" y="904"/>
      <point x="39" y="722" type="curve" smooth="yes"/>
      <point x="39" y="522"/>
      <point x="204" y="420"/>
      <point x="403" y="420" type="curve" smooth="yes"/>
      <point x="511" y="420"/>
      <point x="540" y="450"/>
      <point x="540" y="450" type="curve"/>
      <point x="534" y="494" type="line"/>
      <point x="534" y="494"/>
      <point x="506" y="488"/>
      <point x="437" y="488" type="curve" smooth="yes"/>
      <point x="250" y="488"/>
      <point x="172" y="634"/>
      <point x="172" y="750" type="curve" smooth="yes"/>
      <point x="172" y="869"/>
      <point x="264" y="964"/>
      <point x="391" y="964" type="curve" smooth="yes"/>
      <point x="448" y="964"/>
      <point x="558" y="956"/>
      <point x="661" y="917" type="curve"/>
      <point x="670" y="909"/>
      <point x="786" y="1008"/>
    </contour>
    <contour>
      <point x="355" y="-200" type="line"/>
      <point x="844" y="-200" type="line"/>
      <point x="844" y="-165" type="line"/>
      <point x="766" y="-150"/>
      <point x="727" y="-129"/>
      <point x="727" y="-116" type="curve" smooth="yes"/>
      <point x="727" y="924" type="line" smooth="yes"/>
      <point x="727" y="939"/>
      <point x="772" y="958"/>
      <point x="844" y="973" type="curve"/>
      <point x="844" y="1008" type="line"/>
      <point x="356" y="1008" type="line"/>
      <point x="356" y="973" type="line"/>
      <point x="434" y="958"/>
      <point x="473" y="989"/>
      <point x="473" y="976" type="curve" smooth="yes"/>
      <point x="472" y="-116" type="line" smooth="yes"/>
      <point x="472" y="-131"/>
      <point x="428" y="-150"/>
      <point x="355" y="-165" type="curve"/>
    </contour>
    <contour>
      <point x="632" y="963" type="line"/>
      <point x="632" y="-116" type="line"/>
      <point x="632" y="-128"/>
      <point x="612" y="-137"/>
      <point x="600" y="-140" type="curve"/>
      <point x="589" y="-137"/>
      <point x="568" y="-128"/>
      <point x="568" y="-116" type="curve" smooth="yes"/>
      <point x="568" y="978" type="line"/>
    </contour>
  </outline>
</glyph>
<glyph name="periodcentered" format="2">
  <advance width="240"/>
  <unicode hex="00B7"/>
  <outline>
    <contour>
      <point x="200" y="576" type="curve"/>
      <point x="200" y="626"/>
      <point x="177" y="652"/>
      <point x="132" y="652" type="curve" smooth="yes"/>
      <point x="81" y="652"/>
      <point x="40" y="604"/>
      <point x="40" y="544" type="curve" smooth="yes"/>
      <point x="40" y="495"/>
      <point x="60" y="467"/>
      <point x="107" y="467" type="curve" smooth="yes"/>
      <point x="160" y="467"/>
      <point x="200" y="516"/>
    </contour>
  </outline>
</glyph>
<glyph name="cedilla" format="2">
  <advance width="375"/>
  <unicode hex="00B8"/>
  <anchor x="194" y="-480" name="L"/>
  <outline>
    <contour>
      <point x="326" y="-183" type="curve"/>
      <point x="326" y="-123"/>
      <point x="270" y="-95"/>
      <point x="214" y="-83" type="curve"/>
      <point x="256" y="40" type="line"/>
      <point x="193" y="41" type="line"/>
      <point x="136" y="-136"/>
      <point x="124" y="-167"/>
      <point x="124" y="-167" type="curve"/>
      <point x="190" y="-173"/>
      <point x="216" y="-184"/>
      <point x="216" y="-220" type="curve" smooth="yes"/>
      <point x="216" y="-255"/>
      <point x="173" y="-296"/>
      <point x="62" y="-316" type="curve"/>
      <point x="80" y="-355" type="line"/>
      <point x="255" y="-329"/>
      <point x="326" y="-262"/>
    </contour>
  </outline>
</glyph>
<glyph name="uni00B9" format="2">
  <advance width="538"/>
  <unicode hex="00B9"/>
  <anchor x="288" y="440" name="L"/>
  <anchor x="288" y="1128" name="U"/>
  <outline>
    <contour>
      <point x="95" y="496" type="line"/>
      <point x="470" y="496" type="line"/>
      <point x="470" y="529" type="line"/>
      <point x="357" y="541"/>
      <point x="338" y="560"/>
      <point x="338" y="572" type="curve" smooth="yes"/>
      <point x="338" y="1076" type="line"/>
      <point x="317" y="1093" type="line"/>
      <point x="268" y="1070"/>
      <point x="140" y="1027"/>
      <point x="77" y="1012" type="curve"/>
      <point x="89" y="979" type="line"/>
      <point x="188" y="997"/>
      <point x="219" y="994"/>
      <point x="228" y="986" type="curve" smooth="yes"/>
      <point x="237" y="977"/>
      <point x="238" y="964"/>
      <point x="238" y="939" type="curve" smooth="yes"/>
      <point x="238" y="572" type="line" smooth="yes"/>
      <point x="238" y="559"/>
      <point x="212" y="541"/>
      <point x="95" y="529" type="curve"/>
    </contour>
  </outline>
</glyph>
<glyph name="ordmasculine" format="2">
  <advance width="462"/>
  <unicode hex="00BA"/>
  <outline>
    <contour>
      <point x="422" y="786" type="curve"/>
      <point x="422" y="902"/>
      <point x="347" y="988"/>
      <point x="244" y="988" type="curve" smooth="yes"/>
      <point x="131" y="988"/>
      <point x="39" y="881"/>
      <point x="39" y="770" type="curve" smooth="yes"/>
      <point x="39" y="653"/>
      <point x="111" y="568"/>
      <point x="217" y="568" type="curve" smooth="yes"/>
      <point x="317" y="568"/>
      <point x="422" y="676"/>
    </contour>
    <contour>
      <point x="48" y="468" type="line"/>
      <point x="412" y="468" type="line"/>
      <point x="412" y="527" type="line"/>
      <point x="48" y="527" type="line"/>
    </contour>
    <contour>
      <point x="347" y="773" type="curve"/>
      <point x="347" y="683"/>
      <point x="301" y="614"/>
      <point x="244" y="614" type="curve" smooth="yes"/>
      <point x="178" y="614"/>
      <point x="114" y="691"/>
      <point x="114" y="781" type="curve" smooth="yes"/>
      <point x="114" y="872"/>
      <point x="154" y="940"/>
      <point x="217" y="940" type="curve" smooth="yes"/>
      <point x="288" y="940"/>
      <point x="347" y="863"/>
    </contour>
  </outline>
</glyph>
<glyph name="guillemotright" format="2">
  <advance width="795"/>
  <unicode hex="00BB"/>
  <outline>
    <contour>
      <point x="435" y="344" type="line"/>
      <point x="433" y="402" type="line"/>
      <point x="146" y="730" type="line"/>
      <point x="112" y="706" type="line"/>
      <point x="296" y="373" type="line"/>
      <point x="112" y="37" type="line"/>
      <point x="146" y="13" type="line"/>
    </contour>
    <contour>
      <point x="731" y="344" type="line"/>
      <point x="729" y="402" type="line"/>
      <point x="442" y="730" type="line"/>
      <point x="408" y="706" type="line"/>
      <point x="592" y="373" type="line"/>
      <point x="408" y="37" type="line"/>
      <point x="442" y="13" type="line"/>
    </contour>
  </outline>
</glyph>
<glyph name="onequarter" format="2">
  <advance width="960"/>
  <unicode hex="00BC"/>
  <outline>
    <contour>
      <point x="260" y="2" type="curve"/>
      <point x="867" y="965" type="line"/>
      <point x="847" y="988" type="line"/>
      <point x="824" y="983"/>
      <point x="796" y="971"/>
      <point x="776" y="962" type="curve"/>
      <point x="166" y="0" type="line"/>
      <point x="186" y="-24" type="line"/>
      <point x="215" y="-16"/>
      <point x="236" y="-9"/>
    </contour>
    <contour>
      <point x="896" y="168" type="curve"/>
      <point x="884" y="180" type="line"/>
      <point x="835" y="180" type="line"/>
      <point x="835" y="464" type="line"/>
      <point x="819" y="478" type="line"/>
      <point x="800" y="470"/>
      <point x="771" y="460"/>
      <point x="746" y="450" type="curve"/>
      <point x="522" y="144" type="line"/>
      <point x="537" y="131" type="line"/>
      <point x="760" y="131" type="line"/>
      <point x="760" y="50" type="line" smooth="yes"/>
      <point x="760" y="41"/>
      <point x="749" y="33"/>
      <point x="672" y="23" type="curve"/>
      <point x="672" y="0" type="line"/>
      <point x="891" y="0" type="line"/>
      <point x="891" y="23" type="line"/>
      <point x="841" y="32"/>
      <point x="835" y="38"/>
      <point x="835" y="46" type="curve" smooth="yes"/>
      <point x="835" y="131" type="line"/>
      <point x="860" y="131" type="line"/>
      <point x="873" y="140"/>
      <point x="883" y="152"/>
    </contour>
    <contour>
      <point x="760" y="392" type="line"/>
      <point x="760" y="180" type="line"/>
      <point x="599" y="180" type="line"/>
    </contour>
    <contour>
      <point x="77" y="509" type="line"/>
      <point x="377" y="509" type="line"/>
      <point x="377" y="536" type="line"/>
      <point x="288" y="546"/>
      <point x="272" y="560"/>
      <point x="272" y="571" type="curve" smooth="yes"/>
      <point x="272" y="974" type="line"/>
      <point x="256" y="988" type="line"/>
      <point x="216" y="968"/>
      <point x="113" y="934"/>
      <point x="64" y="922" type="curve"/>
      <point x="73" y="896" type="line"/>
      <point x="152" y="911"/>
      <point x="176" y="908"/>
      <point x="184" y="901" type="curve" smooth="yes"/>
      <point x="192" y="895"/>
      <point x="192" y="884"/>
      <point x="192" y="864" type="curve" smooth="yes"/>
      <point x="192" y="571" type="line" smooth="yes"/>
      <point x="192" y="560"/>
      <point x="171" y="546"/>
      <point x="77" y="536" type="curve"/>
    </contour>
  </outline>
</glyph>
<glyph name="onehalf" format="2">
  <advance width="960"/>
  <unicode hex="00BD"/>
  <outline>
    <contour>
      <point x="253" y="2" type="curve"/>
      <point x="860" y="965" type="line"/>
      <point x="840" y="988" type="line"/>
      <point x="816" y="983"/>
      <point x="789" y="971"/>
      <point x="768" y="962" type="curve"/>
      <point x="159" y="0" type="line"/>
      <point x="179" y="-24" type="line"/>
      <point x="208" y="-16"/>
      <point x="228" y="-9"/>
    </contour>
    <contour>
      <point x="77" y="509" type="line"/>
      <point x="377" y="509" type="line"/>
      <point x="377" y="536" type="line"/>
      <point x="288" y="546"/>
      <point x="272" y="560"/>
      <point x="272" y="571" type="curve" smooth="yes"/>
      <point x="272" y="974" type="line"/>
      <point x="256" y="988" type="line"/>
      <point x="216" y="968"/>
      <point x="113" y="934"/>
      <point x="64" y="922" type="curve"/>
      <point x="73" y="896" type="line"/>
      <point x="152" y="911"/>
      <point x="176" y="908"/>
      <point x="184" y="901" type="curve" smooth="yes"/>
      <point x="192" y="895"/>
      <point x="192" y="884"/>
      <point x="192" y="864" type="curve" smooth="yes"/>
      <point x="192" y="571" type="line" smooth="yes"/>
      <point x="192" y="560"/>
      <point x="171" y="546"/>
      <point x="77" y="536" type="curve"/>
    </contour>
    <contour>
      <point x="889" y="0" type="line"/>
      <point x="896" y="110" type="line"/>
      <point x="867" y="114" type="line"/>
      <point x="867" y="114"/>
      <point x="862" y="52"/>
      <point x="821" y="52" type="curve" smooth="yes"/>
      <point x="647" y="52" type="line"/>
      <point x="830" y="237"/>
      <point x="889" y="296"/>
      <point x="889" y="365" type="curve" smooth="yes"/>
      <point x="889" y="440"/>
      <point x="833" y="474"/>
      <point x="755" y="474" type="curve" smooth="yes"/>
      <point x="656" y="474"/>
      <point x="564" y="404"/>
      <point x="564" y="351" type="curve"/>
      <point x="576" y="340" type="line"/>
      <point x="604" y="342"/>
      <point x="627" y="348"/>
      <point x="648" y="358" type="curve"/>
      <point x="648" y="395"/>
      <point x="679" y="432"/>
      <point x="724" y="432" type="curve" smooth="yes"/>
      <point x="785" y="432"/>
      <point x="808" y="401"/>
      <point x="808" y="354" type="curve" smooth="yes"/>
      <point x="808" y="296"/>
      <point x="765" y="240"/>
      <point x="552" y="28" type="curve"/>
      <point x="565" y="0" type="line"/>
    </contour>
  </outline>
</glyph>
<glyph name="threequarters" format="2">
  <advance width="960"/>
  <unicode hex="00BE"/>
  <outline>
    <contour>
      <point x="252" y="2" type="curve"/>
      <point x="859" y="965" type="line"/>
      <point x="839" y="988" type="line"/>
      <point x="816" y="983"/>
      <point x="788" y="971"/>
      <point x="768" y="962" type="curve"/>
      <point x="158" y="0" type="line"/>
      <point x="178" y="-24" type="line"/>
      <point x="207" y="-16"/>
      <point x="228" y="-9"/>
    </contour>
    <contour>
      <point x="415" y="656" type="curve" smooth="yes"/>
      <point x="415" y="718"/>
      <point x="363" y="771"/>
      <point x="295" y="778" type="curve"/>
      <point x="353" y="796"/>
      <point x="388" y="839"/>
      <point x="388" y="877" type="curve" smooth="yes"/>
      <point x="388" y="929"/>
      <point x="348" y="984"/>
      <point x="256" y="984" type="curve" smooth="yes"/>
      <point x="162" y="984"/>
      <point x="80" y="923"/>
      <point x="80" y="880" type="curve"/>
      <point x="92" y="868" type="line"/>
      <point x="117" y="870"/>
      <point x="147" y="874"/>
      <point x="167" y="884" type="curve"/>
      <point x="160" y="918"/>
      <point x="185" y="941"/>
      <point x="230" y="941" type="curve" smooth="yes"/>
      <point x="284" y="941"/>
      <point x="305" y="906"/>
      <point x="305" y="871" type="curve" smooth="yes"/>
      <point x="305" y="839"/>
      <point x="292" y="798"/>
      <point x="187" y="772" type="curve"/>
      <point x="192" y="743" type="line"/>
      <point x="211" y="746"/>
      <point x="206" y="746"/>
      <point x="223" y="746" type="curve" smooth="yes"/>
      <point x="273" y="746"/>
      <point x="331" y="720"/>
      <point x="331" y="644" type="curve" smooth="yes"/>
      <point x="331" y="578"/>
      <point x="285" y="544"/>
      <point x="216" y="544" type="curve" smooth="yes"/>
      <point x="171" y="544"/>
      <point x="132" y="553"/>
      <point x="78" y="588" type="curve"/>
      <point x="64" y="561" type="line"/>
      <point x="117" y="517"/>
      <point x="174" y="498"/>
      <point x="228" y="498" type="curve" smooth="yes"/>
      <point x="344" y="498"/>
      <point x="415" y="570"/>
    </contour>
    <contour>
      <point x="896" y="168" type="curve"/>
      <point x="884" y="180" type="line"/>
      <point x="835" y="180" type="line"/>
      <point x="835" y="464" type="line"/>
      <point x="819" y="478" type="line"/>
      <point x="800" y="470"/>
      <point x="771" y="460"/>
      <point x="746" y="450" type="curve"/>
      <point x="522" y="144" type="line"/>
      <point x="537" y="131" type="line"/>
      <point x="760" y="131" type="line"/>
      <point x="760" y="50" type="line" smooth="yes"/>
      <point x="760" y="41"/>
      <point x="749" y="33"/>
      <point x="672" y="23" type="curve"/>
      <point x="672" y="0" type="line"/>
      <point x="891" y="0" type="line"/>
      <point x="891" y="23" type="line"/>
      <point x="841" y="32"/>
      <point x="835" y="38"/>
      <point x="835" y="46" type="curve" smooth="yes"/>
      <point x="835" y="131" type="line"/>
      <point x="860" y="131" type="line"/>
      <point x="873" y="140"/>
      <point x="883" y="152"/>
    </contour>
    <contour>
      <point x="760" y="392" type="line"/>
      <point x="760" y="180" type="line"/>
      <point x="599" y="180" type="line"/>
    </contour>
  </outline>
</glyph>
<glyph name="questiondown" format="2">
  <advance width="709"/>
  <unicode hex="00BF"/>
  <outline>
    <contour>
      <point x="468" y="678" type="curve" smooth="yes"/>
      <point x="468" y="736"/>
      <point x="444" y="768"/>
      <point x="388" y="768" type="curve" smooth="yes"/>
      <point x="326" y="768"/>
      <point x="278" y="711"/>
      <point x="278" y="639" type="curve" smooth="yes"/>
      <point x="278" y="580"/>
      <point x="303" y="547"/>
      <point x="356" y="547" type="curve" smooth="yes"/>
      <point x="417" y="547"/>
      <point x="468" y="606"/>
    </contour>
    <contour>
      <point x="339" y="424" type="curve"/>
      <point x="334" y="347" type="line"/>
      <point x="317" y="123"/>
      <point x="64" y="44"/>
      <point x="64" y="-196" type="curve" smooth="yes"/>
      <point x="64" y="-344"/>
      <point x="150" y="-447"/>
      <point x="308" y="-447" type="curve" smooth="yes"/>
      <point x="486" y="-447"/>
      <point x="645" y="-337"/>
      <point x="645" y="-186" type="curve" smooth="yes"/>
      <point x="645" y="-178"/>
      <point x="645" y="-168"/>
      <point x="644" y="-160" type="curve"/>
      <point x="622" y="-136" type="line"/>
      <point x="575" y="-139"/>
      <point x="539" y="-147"/>
      <point x="503" y="-167" type="curve"/>
      <point x="509" y="-181"/>
      <point x="514" y="-196"/>
      <point x="514" y="-212" type="curve" smooth="yes"/>
      <point x="514" y="-296"/>
      <point x="447" y="-372"/>
      <point x="370" y="-372" type="curve" smooth="yes"/>
      <point x="259" y="-372"/>
      <point x="196" y="-292"/>
      <point x="196" y="-160" type="curve" smooth="yes"/>
      <point x="196" y="-8"/>
      <point x="436" y="164"/>
      <point x="424" y="347" type="curve"/>
      <point x="419" y="440" type="line"/>
      <point x="398" y="456" type="line"/>
      <point x="370" y="448"/>
      <point x="356" y="440"/>
    </contour>
  </outline>
</glyph>
<glyph name="AE" format="2">
  <advance width="1276"/>
  <unicode hex="00C6"/>
  <anchor x="683" y="-80" name="L"/>
  <anchor x="739" y="1096" name="U"/>
  <outline>
    <contour>
      <point x="1228" y="195" type="curve"/>
      <point x="1192" y="209" type="line"/>
      <point x="1147" y="84"/>
      <point x="1114" y="72"/>
      <point x="1016" y="72" type="curve" smooth="yes"/>
      <point x="912" y="72" type="line" smooth="yes"/>
      <point x="772" y="72"/>
      <point x="747" y="92"/>
      <point x="747" y="123" type="curve" smooth="yes"/>
      <point x="747" y="520" type="line"/>
      <point x="860" y="520" type="line" smooth="yes"/>
      <point x="950" y="520"/>
      <point x="988" y="508"/>
      <point x="1019" y="476" type="curve"/>
      <point x="1042" y="493"/>
      <point x="1074" y="536"/>
      <point x="1092" y="565" type="curve"/>
      <point x="1071" y="588" type="line"/>
      <point x="747" y="588" type="line"/>
      <point x="747" y="936" type="line"/>
      <point x="1040" y="936" type="line" smooth="yes"/>
      <point x="1081" y="936"/>
      <point x="1100" y="906"/>
      <point x="1105" y="808" type="curve"/>
      <point x="1141" y="808" type="line"/>
      <point x="1156" y="848"/>
      <point x="1171" y="933"/>
      <point x="1174" y="988" type="curve"/>
      <point x="1150" y="1008" type="line"/>
      <point x="863" y="1008" type="line"/>
      <point x="728" y="1008" type="line"/>
      <point x="304" y="1008" type="line"/>
      <point x="304" y="973" type="line"/>
      <point x="409" y="953"/>
      <point x="472" y="942"/>
      <point x="456" y="906" type="curve" smooth="yes"/>
      <point x="126" y="88" type="line" smooth="yes"/>
      <point x="112" y="57"/>
      <point x="72" y="47"/>
      <point x="0" y="34" type="curve"/>
      <point x="0" y="0" type="line"/>
      <point x="332" y="0" type="line"/>
      <point x="332" y="34" type="line"/>
      <point x="245" y="44"/>
      <point x="214" y="57"/>
      <point x="228" y="88" type="curve" smooth="yes"/>
      <point x="404" y="520" type="line"/>
      <point x="619" y="520" type="line"/>
      <point x="619" y="83" type="line" smooth="yes"/>
      <point x="619" y="68"/>
      <point x="576" y="48"/>
      <point x="504" y="34" type="curve"/>
      <point x="504" y="0" type="line"/>
      <point x="1194" y="0" type="line"/>
      <point x="1202" y="31"/>
      <point x="1219" y="103"/>
    </contour>
    <contour>
      <point x="619" y="918" type="curve" smooth="yes"/>
      <point x="619" y="588" type="line"/>
      <point x="431" y="588" type="line"/>
      <point x="556" y="904" type="line" smooth="yes"/>
      <point x="572" y="941"/>
      <point x="619" y="941"/>
    </contour>
  </outline>
</glyph>
<glyph name="Eth" format="2">
  <advance width="971"/>
  <unicode hex="00D0"/>
  <anchor x="460" y="-80" name="L"/>
  <anchor x="460" y="1096" name="U"/>
  <outline>
    <contour>
      <point x="491" y="492" type="line"/>
      <point x="511" y="545" type="line"/>
      <point x="491" y="564" type="line"/>
      <point x="39" y="564" type="line"/>
      <point x="32" y="547"/>
      <point x="26" y="528"/>
      <point x="21" y="512" type="curve"/>
      <point x="39" y="492" type="line"/>
    </contour>
    <component base="D"/>
  </outline>
</glyph>
<glyph name="multiply" format="2">
  <advance width="672"/>
  <unicode hex="00D7"/>
  <outline>
    <contour>
      <point x="596" y="224" type="curve"/>
      <point x="596" y="251" type="line"/>
      <point x="149" y="698" type="line"/>
      <point x="126" y="692"/>
      <point x="96" y="683"/>
      <point x="75" y="673" type="curve"/>
      <point x="76" y="646" type="line"/>
      <point x="523" y="199" type="line"/>
      <point x="542" y="204"/>
      <point x="575" y="215"/>
    </contour>
    <contour>
      <point x="74" y="251" type="line"/>
      <point x="74" y="224" type="line"/>
      <point x="96" y="215"/>
      <point x="128" y="204"/>
      <point x="148" y="199" type="curve"/>
      <point x="596" y="646" type="line"/>
      <point x="596" y="673" type="line"/>
      <point x="575" y="683"/>
      <point x="544" y="692"/>
      <point x="521" y="698" type="curve"/>
    </contour>
  </outline>
</glyph>
<glyph name="Oslash" format="2">
  <advance width="983"/>
  <unicode hex="00D8"/>
  <anchor x="483" y="-80" name="L"/>
  <anchor x="483" y="1096" name="U"/>
  <outline>
    <contour>
      <point x="910" y="517" type="curve"/>
      <point x="910" y="778"/>
      <point x="770" y="1032"/>
      <point x="506" y="1032" type="curve" smooth="yes"/>
      <point x="255" y="1032"/>
      <point x="56" y="780"/>
      <point x="56" y="489" type="curve" smooth="yes"/>
      <point x="56" y="220"/>
      <point x="203" y="-24"/>
      <point x="460" y="-24" type="curve" smooth="yes"/>
      <point x="703" y="-24"/>
      <point x="910" y="228"/>
    </contour>
    <contour>
      <point x="786" y="503" type="curve"/>
      <point x="786" y="220"/>
      <point x="660" y="72"/>
      <point x="483" y="72" type="curve" smooth="yes"/>
      <point x="319" y="72"/>
      <point x="180" y="273"/>
      <point x="180" y="512" type="curve" smooth="yes"/>
      <point x="180" y="773"/>
      <point x="293" y="940"/>
      <point x="483" y="940" type="curve" smooth="yes"/>
      <point x="664" y="940"/>
      <point x="786" y="724"/>
    </contour>
    <contour>
      <point x="186" y="-1" type="curve"/>
      <point x="904" y="1024" type="line"/>
      <point x="881" y="1050" type="line"/>
      <point x="848" y="1042"/>
      <point x="809" y="1028"/>
      <point x="780" y="1011" type="curve"/>
      <point x="60" y="-16" type="line"/>
      <point x="83" y="-42" type="line"/>
      <point x="109" y="-34"/>
      <point x="167" y="-18"/>
    </contour>
  </outline>
</glyph>
